<?xml version="1.0" encoding="UTF-8"?>
<svg id="Capa_1" data-name="Capa 1" xmlns="http://www.w3.org/2000/svg" viewBox="0 0 1555.58 352.18">
  <defs>
    <style>
      .cls-1 {
        fill: #f9f9f9;
      }
    </style>
  </defs>
  <g>
    <g>
      <path class="cls-1" d="M907.23,50.43c4.78-.81,8.58,3.45,8.07,8.06-.83,7.49-13.29,26.91-17.65,34.44-20.91,36.13-59.67,89.16-67.88,129.12-3.06,14.88-1.71,22.56,14.39,14.39,4.52-2.3,15.66-12.35,17.99-13.02s3.58.58,2.91,2.91c-.63,2.17-10.22,11.24-12.58,13.44-4.4,4.12-19.6,17.63-24.58,18.42-7.34,1.16-13.86-.05-14.4-8.55-1.55-24.15,18.72-69.13,28.79-92.06,9.53-21.7,37.99-86.98,53.7-100.3,1.89-1.6,9.15-6.5,11.23-6.85Z"/>
      <path class="cls-1" d="M714.72,166.5c.82-.76,5.96-2.07,7.26-2.07,11.21,0,11.65,9.96,8.69,18.51-4.52,13.05-21.8,38.15-18.76,51.37,3.58,15.56,22.56-5.58,26.57-2.05-1.68,5.45-9.19,10.59-14.08,13.41-36.01,20.8-21.92-28.36-18.38-45.38.23-1.09,1.17-3.38-.03-4.03-10.85,13.7-21.65,28.59-35.04,39.96-14.7,12.5-36.08,24.29-32.36-7.36,1.77-15.04,21.88-50.19,32.38-61.62,2.16-2.36,12.14-12.63,11.53-3.56-.14,1.99-10.88,18.22-12.87,22.22-3.44,6.92-13.1,28.59-11.75,35.39,2.19,11.03,13.39,1.5,18.07-2.07,12.09-9.22,22.15-21.14,29.71-34.29,1.94-3.37,7.56-17.02,9.07-18.43Z"/>
      <path class="cls-1" d="M604.61,224.12c8.09,7.41,29.65-18.92,33.86-14.85-.18,3.84-3.72,7.44-6.02,10.47-7.62,10.02-25.28,28.54-39.28,24.33-9.47-2.85-4.14-44.36-9.36-47.88-4.67-3.14-15.15,6.8-18.85,10.05-13.19,11.59-23.18,26.22-34.96,39.04-4.29,4.67-10.19,10.82-17.05,11.04-9.97.31-6.17-8.3-4.21-14.3,3.95-12.04,11.72-25.2,16.92-37.08,2.45-5.6,9.39-27.05,12.3-29.7,3.39-3.11,9.84-3.75,9.58,2.49-.38,8.98-10.88,24.71-12.6,35.48-.31,1.92-1.5,9.51,1.07,10.05,1.04.22,14.5-11.71,16.5-13.48,9.01-8,29.7-32.29,41.44-31.48,2.02.14,4.37,1.88,5.57,3.44,5.58,7.25,2.28,32.49,5.11,42.38Z"/>
      <path class="cls-1" d="M502.47,236.26c4.52,4.46-18.71,20.32-22.31,22.18-29.95,15.47-25.48-18.77-21.69-37.18-2.34-.65-1.69.6-2.28,1.27-6.27,7.11-31.99,35.94-38.77,38.16-9.19,3.02-13.05-2.59-13.84-11.06-2.02-21.56,32.06-70.39,51.53-79.25,9.81-4.47,23.31-4.43,32.7,1.05,10.32,6.02,3.81,6.33-.73,12.92-3.99,5.78-7.47,13.38-10.08,19.92-4.04,10.1-12.07,33.33-5.96,42.93,7.22,11.36,27.76-14.58,31.44-10.94ZM466.21,173.47c-9.97,1.99-31.81,24.82-37.36,33.66-7.45,11.85-18.97,47.79,6.64,26.64,9.12-7.53,36.53-41.25,37.9-52.1.78-6.12-.43-9.54-7.18-8.2Z"/>
      <path class="cls-1" d="M820.47,204.26c2.8,2.84-10.14,14.91-12.52,16.96-14.05,12.07-45.38,31.07-59.88,10.94-17.8-24.69,12.14-71.62,35.08-83.75,8.18-4.33,28.55-2.45,30.28,8.4,2.95,18.53-19.21,35.47-32.42,44.46-3.38,2.31-19.83,11.33-20.99,13.02-2.12,3.1-.48,8.67,1.26,11.67,7.2,12.43,25.84,1.92,34.52-3.9,5.91-3.95,14.88-14.35,19.31-16.68,1.79-.94,3.32-1.39,5.37-1.12ZM761.48,204.25c2.32,2.42,27.82-19.17,30.51-21.98,3.76-3.94,20.3-24.44,6.98-25.11-5.75-.29-21.04,15.3-25,20.09-6.3,7.63-10.63,17.24-12.48,27.01Z"/>
      <g>
        <path class="cls-1" d="M380.47,102.26c-3.4,2.57-5.67,6.94-8.01,10.48-17.44,26.35-32.87,54.02-51.16,79.84-7.66,10.82-38.53,53.18-49.54,55.45-11.11,2.29-17.82-2.8-22.13-12.41-17.12-38.22,9.08-114.96,15.58-156.13.73-4.6.77-18.11,2.37-20.63,3.3-5.19,18.39-4.65,22.46-.66,3.09,3.02.75,11.17.12,15.25-6.75,43.88-37.02,85.17-31.58,132.21,1.48,12.79,10.63,20.63,23.02,14.23,21.72-11.21,50.46-55.68,64.29-76.71,20.15-30.64,41.22-64.21,54.6-98.4,2.14-5.47,4.7-20.44,9.93-22.07,7.15-2.22,19.91,1.74,17.84,10.82-22.84,51.11-47.56,101.79-60.3,156.72-4.07,17.55-12.07,53.89-4.99,70.02,6,13.67,17.3,9.73,25.9.89,1.22-1.26,11.3-17.08,13.56-9.29.68,2.35-7.39,13.11-9.44,15.41-14.26,15.99-36.9,20.47-46.54-2.49-7.07-16.83-.19-46.53,3.71-64.34,7.35-33.55,19.32-65.79,30.31-98.18Z"/>
        <path class="cls-1" d="M123.48,193.25c-2.9-2.92,11.55-19.74,13.8-23.69,15.57-27.32,10.81-63.95-26.46-64.23-47.58-.36-82.23,76.37-91.85,114.92-18.64,74.66,19.33,111.37,87.81,68.81,39.38-24.47,72.4-69.37,97.11-107.89,17.45-27.2,33.76-55.27,50.71-82.78,3.23-.88,4.35,1.38,3.86,4.27-37.13,67.8-67.85,139.66-132.07,187.01-84.67,62.43-149.67,19.42-118.41-83.41,12.9-42.41,48.04-109.49,98.01-113.99,58.23-5.24,62.66,49.86,32.88,87.88-1.83,2.33-12.39,16.13-15.39,13.1Z"/>
      </g>
    </g>
    <g>
      <path class="cls-1" d="M1058.28,138.47c.56.33.83,2.61,2.19,3.36,2.39,1.3,28.77-8.07,33.25-9.82,31.79-12.38,108.26-53.69,82.95-97.44-20.82-35.99-101.69-28.88-135.4-19.01-54.24,15.88-96.72,52.64-125.39,100.62-6.57,2.08-2.03-12.96-.79-15.8,24.44-56.17,108.76-92.39,166.01-98.99,36.4-4.19,145.22-2.68,119.23,61.23-16.72,41.13-99.81,78.03-140.64,89.36-6.57,1.82-23.86,6.35-29.69,5.26-6.85-1.29-2.96-12.3,1.51-15.43,3.64-2.54,23.66-5.17,26.76-3.33Z"/>
      <path class="cls-1" d="M1082.21,37.51c2.89,3.09.72,8.66-1.3,11.68-6.68,9.93-19.41,21.74-27.41,31.59-28.39,34.97-56.53,72.59-69.52,116.48-3.2,10.81-10.99,37.27,2.22,43.77,3.31,1.63,10.58.9,9.34,6.62-.46,2.11-12.29,1.83-14.48,1.51-12.53-1.79-15.23-15.78-14.57-26.4,2.26-36.01,23.99-76.3,42.18-106.81,7.31-12.26,27.34-37.88,31.32-48.77.82-2.25-.71-3.86-.36-6.18.78-5.23,5.96-6.99,8.88-10.21,1.84-2.03,2.92-4.75,4.55-6.45,5.26-5.5,23.13-13.26,29.14-6.84Z"/>
    </g>
  </g>
  <g>
    <path class="cls-1" d="M1372.98,132.26c4.26.9,4.57,4.11.06,6.06-8.69,3.75-22.01,3.26-31.4,5.11-3.69,8.08-7.7,16.04-11.34,24.15-9.77,21.77-18.39,51.49-29.62,71.38-.73,1.29-2.47,3.64-3.65,4.35-6.67,4.04-4.62-3.86-4.1-8.1l30.55-88.94c-12.24-1.33-24.2,3.17-36.02,3.52-2.17-5.32-6.88-3.38-11.67-1.73-16.55,5.7-36.96,34.49-45.48,49.52-2.99,5.27-8.96,21.69-13.78,23.23-6.79,2.18-6.7-3.08-7.99-8.2,6.15-29.15,22.03-56.36,32.5-84.3,1.13-2.99,8.24-3.95,8.52-.58l-10.07,38.52c12.4-10.57,25.47-23.77,39.68-31.81,8.61-4.87,27.66-13.45,22.31,4.8l29.73-6.26c10.55-17.61,18.17-36.8,27.41-55.09,2.54-5.04,12.22-26.18,16.56-27.43,1.97-.57,4.25-.11,6.29-.2,1.48,1.4-14.42,33.28-16.18,37.32-6.44,14.81-13.08,29.74-17.83,45.17.49,1.51,2.23-.49,2.51-.49,5.9,0,18.07-1.04,23,0Z"/>
    <path class="cls-1" d="M1183.23,125.52c8.75-1.2,23.73,3.04,23.18,14.1-1.21,24.33-35.86,42.8-54.02,54.06-3.14,6.01,1.75,15.45,8.04,17.11,15,3.93,37.84-17.26,48.3-26.76,11.8-2.36-3.99,12.87-7.25,15.75-12.29,10.85-40.37,28.16-55.95,16.92-29.48-21.26,10.47-87.44,37.69-91.17ZM1154.48,183.25c11.86-4,40.25-27.81,41.82-39.76.43-3.3-1.53-7.46-5.23-7.24-10.76.64-38.76,34.11-36.59,47.01Z"/>
    <g>
      <path class="cls-1" d="M1499.04,155.89c-.22.3-3.76.99-.24,1.22,6.16-2.73,19.36-11.47,25.93-7.85,7.17,3.96-10.82,26.53,11.06,15.82,4.74-2.32,14.14-10.58,17.34-11.66,2.3-.77,2.84-.09,2.18,2.18l-38.68,35.32c-22.3,41.79-38.5,86.99-63.76,127.24-5.89,9.39-20.84,32.06-32.17,33.93-9.52,1.57-9.84-19.2-9.24-25.33,3.01-30.7,46.56-87.04,67.48-110.52,8.49-9.53,17.59-14.81,22.98-27.02,5.1-11.54,9.41-28.93-9.79-17.79-5.23,3.04-23.73,22.1-29.43,15.57-1.25-1.43-.89-4.5-.33-6.25,2.38-7.44,13.87-12.5,20.1-17.98,13.49-11.87,35.74-39.11,37.88-57.12,1.4-11.74.22-18.03-12.95-15.94-14.3,2.27-30.16,16.77-39.97,27.02-1.62,1.69-7.56,10.07-8.51,10.49-.43.19-2.47.41-2.47-.47-.84-6.1,6.39-13.96,10.49-18.51,12.78-14.17,36.88-34.75,57.31-27.28,14.91,5.46,10.24,22.76,5.38,33.96-7.11,16.39-20.54,27.06-30.6,40.96ZM1488.47,220.26c-2.78-.4-4.37.53-6.5,2-16.06,11.11-49.04,62.35-55.98,81.02-2.35,6.33-10.94,38.82,4.22,32.22,7.4-3.22,23.84-34.11,28.43-42.57,4.18-7.71,8.91-16.48,12.69-24.31,2.98-6.18,20.67-44.87,17.14-48.36Z"/>
      <path class="cls-1" d="M1407.39,122.33c.52.38,1.17,3.67.36,4.61-8.42,12.84-16.46,27.17-21.29,41.8-10.87,32.87,11.94,16.77,24.54,4.54,12.77-12.39,21.66-27.91,29.02-43.98,7.34-6.06,18.82-1.97,18.22,8.21-.63,10.58-15.14,31.99-18.79,44.21-3.7,12.37-4.09,26.41,12.74,17.74,3.9-2.01,6.8-7.32,12.29-4.71-4.3,8.2-27.75,23.66-35.44,15.45-8.49-9.06.38-40.25,3.46-51.43l-1.99-.5c-8.08,12.72-18.81,26.34-30.01,36.51-10.54,9.57-37.55,30.9-37.09.99.23-15.16,19.91-50.18,29.66-62.43,1.99-2.5,10.6-13.69,14.33-11.01Z"/>
    </g>
  </g>
</svg>