<svg width="184" height="51" viewBox="0 0 184 51" fill="none" xmlns="http://www.w3.org/2000/svg">
<path d="M7.81433 3.05357V12.5953C7.81433 14.5643 7.41135 16.0447 6.60528 17.035C5.79921 18.0262 4.55126 18.5217 2.86164 18.5217C2.50509 18.5217 2.15637 18.4912 1.81529 18.4301C1.47431 18.3691 1.17202 18.2767 0.908523 18.1546C0.644926 18.0324 0.427957 17.8735 0.257417 17.6778C0.0868778 17.4938 0.00165662 17.2801 0.00165662 17.035C-0.0138199 16.8033 0.0791381 16.5825 0.28073 16.3751C0.466746 16.1668 0.761199 16.0447 1.16428 16.0079C1.36578 15.9954 1.55953 16.0142 1.74555 16.0627C1.94704 16.112 2.11758 16.1794 2.25707 16.2647C2.39665 16.3625 2.50509 16.4667 2.58267 16.5763C2.67563 16.6992 2.72216 16.815 2.72216 16.9254C2.72216 17.1212 2.76868 17.2738 2.86164 17.3842C2.9547 17.4938 3.1562 17.5494 3.46622 17.5494C4.10175 17.5494 4.55126 17.2558 4.81486 16.6686C5.09384 16.0815 5.23333 15.1146 5.23333 13.7696V3.05357C5.23333 2.67465 5.21011 2.38107 5.16358 2.17283C5.11715 1.95284 5.01636 1.78765 4.86129 1.67726C4.72181 1.56766 4.50484 1.50033 4.21029 1.47528C3.91574 1.43927 3.52049 1.42048 3.02444 1.42048V0.521729C3.36542 0.545998 3.85373 0.564004 4.48926 0.57653C5.12489 0.57653 5.79137 0.57653 6.48901 0.57653C7.18654 0.57653 7.85313 0.57653 8.48866 0.57653C9.12419 0.564004 9.62797 0.552263 10 0.539737V1.42048C9.48848 1.42048 9.08549 1.43927 8.79094 1.47528C8.51187 1.50033 8.2949 1.56766 8.13984 1.67726C8.00035 1.78765 7.90739 1.95284 7.86086 2.17283C7.82981 2.38107 7.81433 2.67465 7.81433 3.05357Z" fill="white"/>
<path d="M64.2578 1.35773L64.516 5.31873H63.1797C62.961 3.86573 62.4688 2.82673 61.7032 2.20173C60.9375 1.57673 59.875 1.26373 58.5157 1.26373C57.5625 1.26373 56.6719 1.45173 55.8438 1.82673C55.0313 2.18573 54.3203 2.70173 53.711 3.37373C53.1016 4.02973 52.625 4.83373 52.2813 5.78773C51.9375 6.72473 51.7657 7.77173 51.7657 8.92773C51.7657 10.1937 51.9532 11.3337 52.3282 12.3497C52.7032 13.3657 53.211 14.2327 53.8516 14.9517C54.5078 15.6697 55.2657 16.2247 56.125 16.6157C57 17.0057 57.9219 17.2017 58.8907 17.2017C60.0938 17.2017 61.0469 16.8187 61.75 16.0527C62.4532 15.2877 62.9219 14.2637 63.1563 12.9827H64.586L63.9297 17.1077C63.6485 17.2947 63.2813 17.4747 62.8282 17.6467C62.3907 17.8027 61.9219 17.9357 61.4219 18.0447C60.9219 18.1697 60.4141 18.2637 59.8985 18.3267C59.3828 18.4047 58.9141 18.4437 58.4922 18.4437C57.086 18.4437 55.7969 18.2167 54.625 17.7637C53.4688 17.3107 52.4688 16.6697 51.625 15.8417C50.7969 15.0137 50.1485 14.0217 49.6797 12.8657C49.2266 11.6937 49 10.4047 49 8.99873C49 7.70173 49.2657 6.50573 49.7969 5.41273C50.3282 4.30273 51.0313 3.34973 51.9063 2.55273C52.7813 1.75573 53.7813 1.13873 54.9063 0.701729C56.0469 0.248729 57.2188 0.0217285 58.4219 0.0217285C59.4532 0.0217285 60.461 0.154731 61.4453 0.419731C62.4453 0.685731 63.3828 0.998727 64.2578 1.35773Z" fill="white"/>
<path d="M92.063 18.1857C92.406 18.6387 92.805 19.0217 93.258 19.3337C93.711 19.6467 94.227 19.8887 94.805 20.0607C95.399 20.2327 96.07 20.3417 96.82 20.3887C97.57 20.4357 98.422 20.4127 99.375 20.3187V21.3497C98.313 21.5687 97.274 21.6697 96.258 21.6547C95.242 21.6547 94.281 21.5377 93.375 21.3027C92.485 21.0687 91.656 20.7097 90.891 20.2247C90.141 19.7407 89.508 19.1157 88.992 18.3497C87.883 18.2717 86.844 17.9747 85.875 17.4597C84.906 16.9437 84.063 16.2797 83.344 15.4667C82.625 14.6387 82.055 13.7017 81.633 12.6547C81.211 11.5917 81 10.4827 81 9.32673C81 8.18573 81.211 7.06073 81.633 5.95173C82.07 4.82673 82.68 3.82673 83.461 2.95173C84.242 2.07673 85.18 1.37373 86.274 0.841728C87.367 0.294728 88.586 0.0217285 89.93 0.0217285C91.149 0.0217285 92.297 0.271729 93.375 0.771729C94.453 1.27173 95.391 1.94373 96.188 2.78773C96.985 3.61573 97.61 4.58373 98.063 5.69373C98.531 6.78773 98.766 7.93573 98.766 9.13873C98.766 10.1387 98.602 11.1307 98.274 12.1157C97.961 13.0837 97.508 13.9827 96.914 14.8107C96.336 15.6237 95.633 16.3337 94.805 16.9437C93.977 17.5377 93.063 17.9517 92.063 18.1857ZM95.86 9.84173C95.86 9.23273 95.797 8.59973 95.672 7.94373C95.563 7.27173 95.391 6.62373 95.156 5.99873C94.938 5.35773 94.656 4.75573 94.313 4.19373C93.969 3.61573 93.563 3.11573 93.094 2.69373C92.641 2.25573 92.125 1.91273 91.547 1.66273C90.969 1.39673 90.328 1.26373 89.625 1.26373C88.781 1.26373 88.008 1.44373 87.305 1.80273C86.602 2.16273 85.992 2.66273 85.477 3.30273C84.977 3.94373 84.586 4.71673 84.305 5.62373C84.024 6.52973 83.883 7.52973 83.883 8.62373C83.883 9.52973 84.016 10.4907 84.281 11.5057C84.547 12.5057 84.938 13.4277 85.453 14.2717C85.985 15.1157 86.641 15.8187 87.422 16.3807C88.203 16.9277 89.11 17.2017 90.141 17.2017C91.047 17.2017 91.852 17.0217 92.555 16.6627C93.258 16.3027 93.852 15.8027 94.336 15.1627C94.836 14.5057 95.211 13.7327 95.461 12.8417C95.727 11.9357 95.86 10.9357 95.86 9.84173Z" fill="white"/>
<path d="M130.274 0.302734V1.47474C129.821 1.47474 129.461 1.49074 129.196 1.52174C128.946 1.55274 128.758 1.63874 128.633 1.77974C128.508 1.90474 128.43 2.09974 128.399 2.36574C128.383 2.63074 128.375 3.00574 128.375 3.49074V12.3497C128.375 13.2247 128.235 14.0377 127.954 14.7877C127.672 15.5217 127.258 16.1627 126.711 16.7097C126.165 17.2407 125.485 17.6627 124.672 17.9747C123.86 18.2877 122.922 18.4437 121.86 18.4437C120.844 18.4437 119.93 18.3107 119.118 18.0447C118.305 17.7947 117.61 17.4047 117.032 16.8737C116.469 16.3417 116.032 15.6777 115.719 14.8807C115.407 14.0687 115.243 13.1237 115.227 12.0447V3.58373C115.227 3.11573 115.204 2.74074 115.157 2.45974C115.11 2.17774 115.008 1.96674 114.852 1.82674C114.711 1.68574 114.493 1.59174 114.196 1.54474C113.899 1.49874 113.5 1.47474 113 1.47474V0.326736C113.344 0.357736 113.836 0.380736 114.477 0.396736C115.118 0.412736 115.79 0.419739 116.493 0.419739C117.196 0.419739 117.868 0.412736 118.508 0.396736C119.165 0.380736 119.68 0.357736 120.055 0.326736V1.47474C119.555 1.47474 119.157 1.49874 118.86 1.54474C118.563 1.59174 118.336 1.68574 118.18 1.82674C118.024 1.96674 117.922 2.17774 117.875 2.45974C117.829 2.74074 117.805 3.11573 117.805 3.58373V11.4127C117.805 13.3807 118.18 14.8027 118.93 15.6777C119.68 16.5377 120.868 16.9667 122.493 16.9667C123.086 16.9667 123.633 16.8577 124.133 16.6387C124.633 16.4197 125.063 16.1157 125.422 15.7247C125.782 15.3187 126.063 14.8267 126.266 14.2487C126.469 13.6697 126.571 13.0217 126.571 12.3027V3.58373C126.571 3.09973 126.555 2.72474 126.524 2.45974C126.508 2.17774 126.43 1.97474 126.29 1.84974C126.165 1.70974 125.961 1.62374 125.68 1.59174C125.415 1.54474 125.032 1.51373 124.532 1.49873V0.326736C124.86 0.357736 125.29 0.380736 125.821 0.396736C126.352 0.396736 126.899 0.396736 127.461 0.396736C128.04 0.396736 128.579 0.388734 129.079 0.373734C129.594 0.357734 129.993 0.333734 130.274 0.302734Z" fill="white"/>
<path d="M145.25 14.7408V3.53778C145.25 3.05278 145.226 2.67778 145.179 2.41278C145.148 2.13078 145.054 1.92778 144.898 1.80278C144.742 1.66278 144.515 1.57678 144.218 1.54478C143.922 1.49878 143.515 1.47478 143 1.47478V0.326782C143.234 0.341782 143.531 0.357779 143.89 0.373779C144.265 0.373779 144.672 0.380782 145.109 0.396782C145.562 0.396782 146.023 0.396782 146.492 0.396782C146.976 0.396782 147.437 0.396782 147.875 0.396782C148.312 0.380782 148.718 0.373779 149.093 0.373779C149.484 0.373779 149.797 0.365785 150.031 0.349785V1.47478C149.515 1.47478 149.109 1.49878 148.812 1.54478C148.531 1.57678 148.312 1.66278 148.156 1.80278C148.015 1.92778 147.922 2.13078 147.875 2.41278C147.843 2.67778 147.828 3.05278 147.828 3.53778V14.7408C147.828 15.2248 147.851 15.6158 147.898 15.9128C147.945 16.1938 148.047 16.4128 148.203 16.5688C148.359 16.7248 148.578 16.8338 148.859 16.8968C149.156 16.9438 149.547 16.9668 150.031 16.9668V18.0918C149.672 18.0768 149.172 18.0608 148.531 18.0448C147.89 18.0448 147.218 18.0448 146.515 18.0448C145.828 18.0448 145.164 18.0528 144.523 18.0688C143.883 18.0838 143.375 18.0998 143 18.1158V16.9668C143.484 16.9668 143.875 16.9438 144.172 16.8968C144.468 16.8338 144.695 16.7248 144.851 16.5688C145.023 16.4128 145.133 16.1938 145.179 15.9128C145.226 15.6158 145.25 15.2248 145.25 14.7408Z" fill="white"/>
<path d="M180.579 3.63073V18.3027H179.102L167.829 4.35773V14.8337C167.829 15.3337 167.852 15.7327 167.899 16.0297C167.946 16.3107 168.047 16.5217 168.204 16.6627C168.36 16.8027 168.586 16.8887 168.883 16.9197C169.18 16.9517 169.579 16.9667 170.079 16.9667V18.0687C169.641 18.0527 169.125 18.0447 168.532 18.0447C167.954 18.0447 167.36 18.0447 166.75 18.0447C166.141 18.0447 165.54 18.0447 164.946 18.0447C164.368 18.0607 163.86 18.0767 163.422 18.0917V16.9667C163.969 16.9667 164.407 16.9517 164.735 16.9197C165.079 16.8737 165.344 16.7797 165.532 16.6387C165.719 16.4827 165.844 16.2557 165.907 15.9597C165.969 15.6627 166 15.2557 166 14.7407V3.63073C166 3.19373 165.954 2.84173 165.86 2.57673C165.766 2.29473 165.602 2.07673 165.368 1.91973C165.133 1.74873 164.821 1.63073 164.43 1.56873C164.055 1.50573 163.579 1.47473 163 1.47473V0.349731C163.25 0.380731 163.579 0.404731 163.985 0.419731C164.407 0.419731 164.829 0.419731 165.25 0.419731C165.672 0.419731 166.071 0.412729 166.446 0.396729C166.821 0.380729 167.11 0.365731 167.313 0.349731L178.704 14.1547V3.49073C178.704 3.05273 178.68 2.70173 178.633 2.43573C178.586 2.16973 178.485 1.96673 178.329 1.82673C178.172 1.68573 177.938 1.59173 177.625 1.54473C177.329 1.49873 176.922 1.47473 176.407 1.47473V0.349731C176.766 0.365731 177.235 0.380729 177.813 0.396729C178.407 0.396729 179.016 0.396729 179.641 0.396729C180.282 0.396729 180.891 0.396729 181.469 0.396729C182.047 0.380729 182.508 0.365731 182.852 0.349731V1.47473C182.305 1.47473 181.883 1.49873 181.586 1.54473C181.29 1.57673 181.063 1.66273 180.907 1.80273C180.75 1.94373 180.657 2.16273 180.625 2.45973C180.594 2.74073 180.579 3.13073 180.579 3.63073Z" fill="white"/>
<mask id="path-7-outside-1_502_57" maskUnits="userSpaceOnUse" x="20" y="-0.478271" width="19" height="20" fill="black">
<rect fill="white" x="20" y="-0.478271" width="19" height="20"/>
<path d="M29.3789 0.521729C29.3982 0.569157 34.539 13.1755 36.3887 16.8274C36.7911 17.6218 37.997 18.5195 38 18.5217H33C33 18.5217 34.3501 18.239 34.5 17.6643C34.6117 17.2358 34.4998 16.8076 34 16.3792C33.5 15.9506 32.5 15.5216 31.5 15.093C30.5001 14.6645 31.4261 15.0674 29 14.2356C28.2788 13.9883 26.9999 13.3785 26 13.8069C25.6316 13.9647 25.5044 14.2263 25.5 14.2356C25.5 14.2356 24.6809 16.4473 24.5 16.8069C24.3195 17.1653 24 17.6644 25 18.093C26 18.5216 26 18.5217 26 18.5217H21C21 18.5217 21.4829 18.0996 21.8857 17.7815C22.2886 17.4633 22.5 16.8069 22.5 16.8069L29.3789 0.521729ZM26 12.7708C26 12.7708 26.3554 12.6117 27 12.7708C28.7304 13.1978 33 14.6643 33 14.6643L29 5.66431L26 12.7708Z"/>
</mask>
<path d="M29.3789 0.521729C29.3982 0.569157 34.539 13.1755 36.3887 16.8274C36.7911 17.6218 37.997 18.5195 38 18.5217H33C33 18.5217 34.3501 18.239 34.5 17.6643C34.6117 17.2358 34.4998 16.8076 34 16.3792C33.5 15.9506 32.5 15.5216 31.5 15.093C30.5001 14.6645 31.4261 15.0674 29 14.2356C28.2788 13.9883 26.9999 13.3785 26 13.8069C25.6316 13.9647 25.5044 14.2263 25.5 14.2356C25.5 14.2356 24.6809 16.4473 24.5 16.8069C24.3195 17.1653 24 17.6644 25 18.093C26 18.5216 26 18.5217 26 18.5217H21C21 18.5217 21.4829 18.0996 21.8857 17.7815C22.2886 17.4633 22.5 16.8069 22.5 16.8069L29.3789 0.521729ZM26 12.7708C26 12.7708 26.3554 12.6117 27 12.7708C28.7304 13.1978 33 14.6643 33 14.6643L29 5.66431L26 12.7708Z" fill="#D9D9D9"/>
<path d="M29.3789 0.521729L29.5641 0.446212L29.3822 3.09156e-05L29.1947 0.443906L29.3789 0.521729ZM36.3887 16.8274L36.2103 16.9178L36.2103 16.9178L36.3887 16.8274ZM38 18.5217V18.7217H38.6037L38.1194 18.3613L38 18.5217ZM33 18.5217L32.959 18.326L33 18.7217V18.5217ZM34.5 17.6643L34.6935 17.7148L34.6935 17.7147L34.5 17.6643ZM34 16.3792L34.1302 16.2273L34.1302 16.2273L34 16.3792ZM31.5 15.093L31.5788 14.9092L31.5788 14.9092L31.5 15.093ZM29 14.2356L28.9351 14.4248L28.9351 14.4248L29 14.2356ZM26 13.8069L25.9212 13.623L25.9212 13.6231L26 13.8069ZM25.5 14.2356L25.3194 14.1496L25.3156 14.1577L25.3124 14.1661L25.5 14.2356ZM24.5 16.8069L24.6786 16.8968L24.6787 16.8968L24.5 16.8069ZM25 18.093L24.9212 18.2768L24.9212 18.2768L25 18.093ZM26 18.5217V18.7217H26.1915L26.1998 18.5304L26 18.5217ZM21 18.5217L20.8684 18.3711L20.4673 18.7217H21V18.5217ZM21.8857 17.7815L21.7618 17.6245L21.7618 17.6245L21.8857 17.7815ZM22.5 16.8069L22.3158 16.7291L22.3123 16.7372L22.3096 16.7456L22.5 16.8069ZM26 12.7708L25.8157 12.693L25.6183 13.1607L26.0817 12.9533L26 12.7708ZM27 12.7708L27.0479 12.5766L27.0479 12.5766L27 12.7708ZM33 14.6643L32.935 14.8535L33.3692 15.0026L33.1828 14.5831L33 14.6643ZM29 5.66431L29.1828 5.58308L28.9953 5.16124L28.8157 5.58652L29 5.66431ZM29.3789 0.521729L29.1937 0.597245C29.2109 0.639511 34.3558 13.2565 36.2103 16.9178L36.3887 16.8274L36.5671 16.737C34.7222 13.0945 29.5855 0.498803 29.5641 0.446212L29.3789 0.521729ZM36.3887 16.8274L36.2103 16.9178C36.4289 17.3493 36.8545 17.7929 37.2087 18.1188C37.568 18.4494 37.8763 18.679 37.8806 18.6822L38 18.5217L38.1194 18.3613C38.1207 18.3623 37.8246 18.1419 37.4796 17.8244C37.1295 17.5024 36.7509 17.0998 36.5671 16.737L36.3887 16.8274ZM38 18.5217V18.3217H33V18.5217V18.7217H38V18.5217ZM33 18.5217C33.041 18.7175 33.041 18.7175 33.0411 18.7175C33.0411 18.7175 33.0412 18.7174 33.0412 18.7174C33.0413 18.7174 33.0414 18.7174 33.0415 18.7174C33.0418 18.7173 33.0421 18.7172 33.0426 18.7171C33.0434 18.717 33.0446 18.7167 33.0461 18.7164C33.0491 18.7158 33.0533 18.7148 33.0587 18.7136C33.0695 18.7112 33.085 18.7077 33.1046 18.703C33.1438 18.6937 33.1994 18.6798 33.2664 18.6614C33.3999 18.6246 33.5809 18.5691 33.7681 18.4942C33.9539 18.4199 34.1536 18.3235 34.32 18.2025C34.4829 18.0841 34.639 17.924 34.6935 17.7148L34.5 17.6643L34.3065 17.6138C34.2861 17.6919 34.2172 17.7827 34.0848 17.879C33.9559 17.9726 33.79 18.0546 33.6195 18.1228C33.4504 18.1905 33.2845 18.2415 33.1602 18.2757C33.0983 18.2928 33.0473 18.3055 33.012 18.3139C32.9944 18.3181 32.9808 18.3212 32.9717 18.3232C32.9672 18.3242 32.9638 18.3249 32.9617 18.3254C32.9606 18.3256 32.9598 18.3258 32.9594 18.3259C32.9592 18.3259 32.959 18.326 32.959 18.326C32.9589 18.326 32.9589 18.326 32.9589 18.326C32.9589 18.326 32.9589 18.326 32.959 18.326C32.959 18.326 32.959 18.326 33 18.5217ZM34.5 17.6643L34.6935 17.7147C34.7581 17.4672 34.7594 17.2115 34.6677 16.9545C34.5766 16.6994 34.3991 16.4579 34.1302 16.2273L34 16.3792L33.8698 16.531C34.1007 16.7289 34.2291 16.9157 34.291 17.089C34.3521 17.2603 34.3536 17.433 34.3065 17.6139L34.5 17.6643ZM34 16.3792L34.1302 16.2273C33.8599 15.9956 33.4656 15.7722 33.0255 15.5565C32.5826 15.3394 32.0777 15.123 31.5788 14.9092L31.5 15.093L31.4212 15.2768C31.9223 15.4916 32.4174 15.7039 32.8495 15.9157C33.2844 16.1288 33.6401 16.3341 33.8698 16.531L34 16.3792ZM31.5 15.093L31.5788 14.9092C31.079 14.695 31.0503 14.684 30.8403 14.6234C30.6473 14.5676 30.2754 14.4615 29.0649 14.0464L29 14.2356L28.9351 14.4248C30.1507 14.8415 30.5289 14.9498 30.7293 15.0077C30.9129 15.0607 30.921 15.0625 31.4212 15.2768L31.5 15.093ZM29 14.2356L29.0649 14.0464C28.7241 13.9296 28.1979 13.7061 27.6517 13.5735C27.1014 13.4399 26.4803 13.3835 25.9212 13.623L26 13.8069L26.0788 13.9907C26.5196 13.8018 27.0379 13.8361 27.5574 13.9622C28.0809 14.0893 28.5547 14.2943 28.9351 14.4248L29 14.2356ZM26 13.8069L25.9212 13.6231C25.4921 13.807 25.3358 14.1153 25.3194 14.1496L25.5 14.2356L25.6806 14.3216C25.6731 14.3372 25.7712 14.1225 26.0788 13.9907L26 13.8069ZM25.5 14.2356C25.3124 14.1661 25.3124 14.1661 25.3124 14.1662C25.3124 14.1662 25.3124 14.1662 25.3124 14.1662C25.3124 14.1663 25.3124 14.1664 25.3123 14.1665C25.3122 14.1668 25.3121 14.1672 25.3119 14.1677C25.3115 14.1688 25.3109 14.1703 25.3101 14.1724C25.3086 14.1766 25.3063 14.1828 25.3032 14.1909C25.2972 14.2072 25.2884 14.2311 25.277 14.2616C25.2543 14.3227 25.2216 14.4104 25.1818 14.5168C25.1023 14.7295 24.9944 15.0168 24.8809 15.3153C24.6511 15.9195 24.4058 16.549 24.3213 16.717L24.5 16.8069L24.6787 16.8968C24.775 16.7052 25.0298 16.0491 25.2548 15.4575C25.3686 15.1581 25.4768 14.87 25.5565 14.6568C25.5964 14.5502 25.6291 14.4623 25.6519 14.401C25.6633 14.3704 25.6722 14.3464 25.6783 14.3301C25.6813 14.3219 25.6836 14.3157 25.6852 14.3115C25.686 14.3094 25.6865 14.3078 25.6869 14.3067C25.6871 14.3062 25.6873 14.3057 25.6874 14.3055C25.6874 14.3053 25.6875 14.3052 25.6875 14.3052C25.6875 14.3051 25.6875 14.3051 25.6875 14.3051C25.6875 14.3051 25.6876 14.3051 25.5 14.2356ZM24.5 16.8069L24.3214 16.7169C24.2804 16.7983 24.219 16.911 24.1745 17.0274C24.129 17.1465 24.0927 17.2891 24.1083 17.4438C24.1418 17.7749 24.3954 18.0515 24.9212 18.2768L25 18.093L25.0788 17.9092C24.6046 17.706 24.518 17.5187 24.5063 17.4035C24.4994 17.335 24.5143 17.2588 24.5482 17.1702C24.5831 17.0788 24.6294 16.9947 24.6786 16.8968L24.5 16.8069ZM25 18.093L24.9212 18.2768C25.4212 18.4911 25.6712 18.5983 25.7962 18.6519C25.8587 18.6787 25.8899 18.6921 25.9055 18.6988C25.9133 18.7021 25.9171 18.7038 25.919 18.7046C25.9199 18.705 25.9203 18.7051 25.9203 18.7052C25.9204 18.7052 25.9202 18.7051 25.9198 18.705C25.9197 18.7049 25.9192 18.7047 25.9185 18.7044C25.9182 18.7043 25.9171 18.7038 25.9157 18.7031C25.9153 18.7029 25.9131 18.7019 25.9104 18.7005C25.9078 18.6992 25.9028 18.6965 25.9003 18.6951C25.8248 18.6181 25.8002 18.513 26 18.5217C26.1998 18.5304 26.1752 18.4254 26.0997 18.3483C26.0972 18.3469 26.0922 18.3442 26.0896 18.3429C26.0869 18.3416 26.0847 18.3406 26.0843 18.3404C26.0829 18.3397 26.0817 18.3392 26.0815 18.3391C26.0808 18.3388 26.0802 18.3385 26.0801 18.3385C26.0797 18.3383 26.0794 18.3382 26.0792 18.3381C26.0788 18.3379 26.0781 18.3376 26.0771 18.3372C26.0751 18.3363 26.0711 18.3346 26.0633 18.3312C26.0476 18.3245 26.0163 18.3111 25.9538 18.2843C25.8288 18.2307 25.5788 18.1235 25.0788 17.9092L25 18.093ZM26 18.5217V18.3217H21V18.5217V18.7217H26V18.5217ZM21 18.5217C21.1316 18.6723 21.1316 18.6723 21.1316 18.6723C21.1316 18.6723 21.1316 18.6723 21.1316 18.6723C21.1316 18.6723 21.1317 18.6723 21.1317 18.6723C21.1317 18.6722 21.1318 18.6721 21.1319 18.672C21.1321 18.6719 21.1325 18.6716 21.1329 18.6712C21.1338 18.6704 21.1352 18.6692 21.1369 18.6677C21.1405 18.6646 21.1458 18.6599 21.1528 18.6539C21.1666 18.6419 21.1869 18.6243 21.2125 18.6022C21.2637 18.5579 21.3362 18.4956 21.4213 18.4234C21.5917 18.2787 21.811 18.0954 22.0097 17.9384L21.8857 17.7815L21.7618 17.6245C21.5576 17.7858 21.3341 17.9726 21.1623 18.1185C21.0763 18.1915 21.0029 18.2546 20.951 18.2995C20.9251 18.3219 20.9045 18.3397 20.8903 18.352C20.8833 18.3582 20.8778 18.3629 20.8741 18.3662C20.8722 18.3678 20.8708 18.369 20.8699 18.3698C20.8694 18.3703 20.869 18.3706 20.8688 18.3708C20.8687 18.3709 20.8686 18.371 20.8685 18.371C20.8685 18.3711 20.8684 18.3711 20.8684 18.3711C20.8684 18.3711 20.8684 18.3711 20.8684 18.3711C20.8684 18.3711 20.8684 18.3711 21 18.5217ZM21.8857 17.7815L22.0097 17.9384C22.2453 17.7524 22.4147 17.4778 22.5224 17.2652C22.5774 17.1565 22.619 17.0585 22.6468 16.9875C22.6608 16.9519 22.6714 16.9229 22.6787 16.9024C22.6823 16.8921 22.6851 16.884 22.6871 16.8782C22.688 16.8753 22.6888 16.873 22.6893 16.8713C22.6896 16.8705 22.6898 16.8698 22.69 16.8693C22.6901 16.869 22.6902 16.8688 22.6902 16.8686C22.6903 16.8685 22.6903 16.8684 22.6903 16.8684C22.6903 16.8683 22.6903 16.8683 22.6903 16.8683C22.6904 16.8682 22.6904 16.8682 22.5 16.8069C22.3096 16.7456 22.3096 16.7455 22.3097 16.7455C22.3097 16.7455 22.3097 16.7455 22.3097 16.7455C22.3097 16.7454 22.3097 16.7454 22.3097 16.7454C22.3097 16.7454 22.3097 16.7454 22.3097 16.7454C22.3096 16.7455 22.3096 16.7458 22.3094 16.7462C22.3091 16.747 22.3087 16.7485 22.308 16.7505C22.3067 16.7545 22.3045 16.7607 22.3016 16.769C22.2957 16.7857 22.2867 16.8104 22.2745 16.8413C22.2502 16.9034 22.2137 16.9894 22.1655 17.0846C22.0667 17.2797 21.9291 17.4924 21.7618 17.6245L21.8857 17.7815ZM22.5 16.8069L22.6842 16.8847L29.5631 0.599551L29.3789 0.521729L29.1947 0.443906L22.3158 16.7291L22.5 16.8069ZM26 12.7708C26.0817 12.9533 26.0816 12.9533 26.0815 12.9534C26.0815 12.9534 26.0814 12.9534 26.0813 12.9535C26.0812 12.9535 26.0811 12.9536 26.081 12.9536C26.0808 12.9537 26.0806 12.9538 26.0805 12.9539C26.0801 12.954 26.0799 12.9541 26.0797 12.9542C26.0794 12.9543 26.0794 12.9543 26.0797 12.9542C26.0804 12.9539 26.0823 12.9531 26.0856 12.9519C26.0921 12.9495 26.1039 12.9455 26.1207 12.9407C26.1543 12.931 26.2082 12.9183 26.2816 12.9097C26.4279 12.8926 26.6537 12.8913 26.9521 12.9649L27 12.7708L27.0479 12.5766C26.7017 12.4911 26.4275 12.4899 26.235 12.5125C26.1389 12.5237 26.0637 12.5409 26.0105 12.5561C25.984 12.5637 25.9629 12.5709 25.9475 12.5765C25.9398 12.5794 25.9335 12.5818 25.9286 12.5838C25.9262 12.5848 25.9241 12.5857 25.9224 12.5864C25.9215 12.5868 25.9207 12.5871 25.9201 12.5874C25.9197 12.5876 25.9194 12.5877 25.9191 12.5878C25.919 12.5879 25.9188 12.588 25.9187 12.588C25.9186 12.5881 25.9185 12.5881 25.9185 12.5881C25.9184 12.5882 25.9183 12.5882 26 12.7708ZM27 12.7708L26.9521 12.9649C27.8089 13.1764 29.3018 13.6474 30.5867 14.0678C31.2278 14.2775 31.815 14.474 32.2419 14.618C32.4553 14.69 32.6287 14.7489 32.7487 14.7898C32.8086 14.8102 32.8553 14.8261 32.8869 14.837C32.9027 14.8424 32.9147 14.8465 32.9228 14.8493C32.9269 14.8507 32.9299 14.8517 32.932 14.8524C32.933 14.8528 32.9338 14.853 32.9343 14.8532C32.9345 14.8533 32.9347 14.8534 32.9348 14.8534C32.9349 14.8534 32.935 14.8534 32.935 14.8534C32.935 14.8535 32.935 14.8535 33 14.6643C33.065 14.4752 33.0649 14.4751 33.0649 14.4751C33.0649 14.4751 33.0648 14.4751 33.0648 14.4751C33.0646 14.475 33.0644 14.475 33.0642 14.4749C33.0636 14.4747 33.0629 14.4744 33.0618 14.4741C33.0597 14.4734 33.0566 14.4723 33.0526 14.4709C33.0444 14.4681 33.0323 14.4639 33.0164 14.4585C32.9846 14.4476 32.9378 14.4316 32.8777 14.4111C32.7574 14.3702 32.5836 14.3111 32.3698 14.239C31.9421 14.0947 31.3537 13.8978 30.7111 13.6876C29.4286 13.268 27.9216 12.7922 27.0479 12.5766L27 12.7708ZM33 14.6643L33.1828 14.5831L29.1828 5.58308L29 5.66431L28.8172 5.74553L32.8172 14.7455L33 14.6643ZM29 5.66431L28.8157 5.58652L25.8157 12.693L26 12.7708L26.1843 12.8485L29.1843 5.74209L29 5.66431Z" fill="#D9D9D9" mask="url(#path-7-outside-1_502_57)"/>
<path d="M2.82955 44.5217H0.613636L7.02273 27.0672H9.20455L15.6136 44.5217H13.3977L8.18182 29.8285H8.04545L2.82955 44.5217ZM3.64773 37.7035H12.5795V39.5785H3.64773V37.7035ZM21.9378 44.7945C20.7106 44.7945 19.6537 44.5047 18.7674 43.9251C17.881 43.3456 17.1992 42.5473 16.7219 41.5303C16.2447 40.5132 16.006 39.3513 16.006 38.0445C16.006 36.7149 16.2503 35.5416 16.739 34.5246C17.2333 33.5018 17.9208 32.7035 18.8015 32.1297C19.6878 31.5501 20.7219 31.2604 21.9037 31.2604C22.8242 31.2604 23.6537 31.4308 24.3924 31.7717C25.131 32.1126 25.7361 32.5899 26.2077 33.2035C26.6793 33.8172 26.9719 34.5331 27.0856 35.3513H25.0742C24.9208 34.7547 24.5799 34.2263 24.0515 33.766C23.5287 33.3001 22.8242 33.0672 21.9378 33.0672C21.1537 33.0672 20.4662 33.2717 19.8753 33.6808C19.2901 34.0842 18.8327 34.6553 18.5032 35.3939C18.1793 36.1268 18.0174 36.9876 18.0174 37.9763C18.0174 38.9876 18.1765 39.8683 18.4947 40.6183C18.8185 41.3683 19.2731 41.9507 19.8583 42.3655C20.4492 42.7803 21.1424 42.9876 21.9378 42.9876C22.4606 42.9876 22.935 42.8967 23.3611 42.7149C23.7873 42.5331 24.1481 42.2717 24.4435 41.9308C24.739 41.5899 24.9492 41.1808 25.0742 40.7035H27.0856C26.9719 41.4763 26.6907 42.1723 26.2418 42.7916C25.7986 43.4053 25.2106 43.8939 24.4776 44.2575C23.7503 44.6155 22.9037 44.7945 21.9378 44.7945ZM32.4382 44.8285C31.6086 44.8285 30.8558 44.6723 30.1797 44.3598C29.5035 44.0416 28.9666 43.5842 28.5689 42.9876C28.1711 42.3854 27.9723 41.6581 27.9723 40.8058C27.9723 40.0558 28.12 39.4479 28.4155 38.982C28.7109 38.5104 29.1058 38.141 29.6001 37.874C30.0944 37.607 30.6399 37.4081 31.2365 37.2774C31.8387 37.141 32.4439 37.0331 33.0518 36.9535C33.8473 36.8513 34.4922 36.7746 34.9865 36.7234C35.4865 36.6666 35.8501 36.5729 36.0774 36.4422C36.3103 36.3115 36.4268 36.0842 36.4268 35.7604V35.6922C36.4268 34.8513 36.1967 34.1979 35.7365 33.732C35.2819 33.266 34.5916 33.0331 33.6655 33.0331C32.7052 33.0331 31.9524 33.2433 31.4069 33.6638C30.8615 34.0842 30.478 34.5331 30.2564 35.0104L28.3473 34.3285C28.6882 33.5331 29.1427 32.9138 29.7109 32.4706C30.2848 32.0217 30.9098 31.7092 31.5859 31.5331C32.2677 31.3513 32.9382 31.2604 33.5973 31.2604C34.0177 31.2604 34.5007 31.3115 35.0461 31.4138C35.5973 31.5104 36.1285 31.7121 36.6399 32.0189C37.1569 32.3257 37.5859 32.7888 37.9268 33.4081C38.2677 34.0274 38.4382 34.857 38.4382 35.8967V44.5217H36.4268V42.749H36.3245C36.1882 43.0331 35.9609 43.3371 35.6427 43.6609C35.3245 43.9848 34.9012 44.2604 34.3728 44.4876C33.8444 44.7149 33.1995 44.8285 32.4382 44.8285ZM32.745 43.0217C33.5405 43.0217 34.2109 42.8655 34.7564 42.553C35.3075 42.2405 35.7223 41.8371 36.0007 41.3428C36.2848 40.8484 36.4268 40.3285 36.4268 39.7831V37.9422C36.3416 38.0445 36.1541 38.1382 35.8643 38.2234C35.5802 38.303 35.2507 38.374 34.8757 38.4365C34.5064 38.4933 34.1456 38.5445 33.7933 38.5899C33.4467 38.6297 33.1655 38.6638 32.9495 38.6922C32.4268 38.7604 31.9382 38.8712 31.4836 39.0246C31.0348 39.1723 30.6711 39.3967 30.3927 39.6979C30.12 39.9933 29.9836 40.3967 29.9836 40.9081C29.9836 41.607 30.2422 42.1354 30.7592 42.4933C31.2819 42.8456 31.9439 43.0217 32.745 43.0217ZM45.6125 44.7945C44.5216 44.7945 43.5586 44.5189 42.7233 43.9678C41.8881 43.4109 41.2347 42.6268 40.7631 41.6155C40.2915 40.5984 40.0557 39.3967 40.0557 38.0104C40.0557 36.6354 40.2915 35.4422 40.7631 34.4308C41.2347 33.4195 41.8909 32.6382 42.7318 32.0871C43.5728 31.5359 44.5443 31.2604 45.6466 31.2604C46.4989 31.2604 47.1722 31.4024 47.6665 31.6865C48.1665 31.9649 48.5472 32.2831 48.8086 32.641C49.0756 32.9933 49.283 33.2831 49.4307 33.5104H49.6012V27.0672H51.6125V44.5217H49.6693V42.5104H49.4307C49.283 42.749 49.0728 43.0501 48.8 43.4138C48.5273 43.7717 48.1381 44.0928 47.6324 44.3768C47.1267 44.6553 46.4534 44.7945 45.6125 44.7945ZM45.8853 42.9876C46.6921 42.9876 47.3739 42.7774 47.9307 42.357C48.4875 41.9308 48.9108 41.3428 49.2006 40.5928C49.4904 39.8371 49.6353 38.9649 49.6353 37.9763C49.6353 36.999 49.4932 36.1439 49.2091 35.4109C48.925 34.6723 48.5046 34.0984 47.9478 33.6893C47.3909 33.2746 46.7034 33.0672 45.8853 33.0672C45.033 33.0672 44.3228 33.2859 43.7546 33.7234C43.1921 34.1553 42.7688 34.7433 42.4847 35.4876C42.2063 36.2263 42.0671 37.0558 42.0671 37.9763C42.0671 38.9081 42.2091 39.7547 42.4932 40.516C42.783 41.2717 43.2091 41.874 43.7716 42.3229C44.3398 42.766 45.0443 42.9876 45.8853 42.9876ZM59.6242 44.7945C58.3629 44.7945 57.2748 44.516 56.36 43.9592C55.4509 43.3967 54.7492 42.6126 54.2549 41.607C53.7663 40.5956 53.522 39.4195 53.522 38.0785C53.522 36.7376 53.7663 35.5558 54.2549 34.5331C54.7492 33.5047 55.4367 32.7035 56.3174 32.1297C57.2038 31.5501 58.2379 31.2604 59.4197 31.2604C60.1015 31.2604 60.7748 31.374 61.4396 31.6013C62.1043 31.8285 62.7095 32.1979 63.2549 32.7092C63.8004 33.2149 64.235 33.8854 64.5589 34.7206C64.8828 35.5558 65.0447 36.5842 65.0447 37.8058V38.6581H54.9538V36.9195H62.9992C62.9992 36.1808 62.8515 35.5217 62.556 34.9422C62.2663 34.3626 61.8515 33.9053 61.3117 33.57C60.7776 33.2348 60.147 33.0672 59.4197 33.0672C58.6185 33.0672 57.9254 33.266 57.3401 33.6638C56.7606 34.0558 56.3146 34.5672 56.0021 35.1979C55.6896 35.8285 55.5333 36.5047 55.5333 37.2263V38.3854C55.5333 39.374 55.7038 40.2121 56.0447 40.8996C56.3913 41.5814 56.8714 42.1013 57.485 42.4592C58.0987 42.8115 58.8117 42.9876 59.6242 42.9876C60.1526 42.9876 60.6299 42.9138 61.056 42.766C61.4879 42.6126 61.86 42.3854 62.1725 42.0842C62.485 41.7774 62.7265 41.3967 62.897 40.9422L64.8401 41.4876C64.6356 42.1467 64.2918 42.7263 63.8089 43.2263C63.3259 43.7206 62.7293 44.107 62.0191 44.3854C61.3089 44.6581 60.5106 44.7945 59.6242 44.7945ZM66.6643 44.5217V31.4308H68.6075V33.4763H68.778C69.0507 32.7774 69.4911 32.2348 70.099 31.8484C70.707 31.4564 71.4371 31.2604 72.2894 31.2604C73.153 31.2604 73.8717 31.4564 74.4456 31.8484C75.0251 32.2348 75.4769 32.7774 75.8007 33.4763H75.9371C76.2723 32.8001 76.7751 32.2632 77.4456 31.8655C78.1161 31.4621 78.92 31.2604 79.8575 31.2604C81.028 31.2604 81.9854 31.6268 82.7297 32.3598C83.474 33.0871 83.8462 34.2206 83.8462 35.7604V44.5217H81.8348V35.7604C81.8348 34.7945 81.5706 34.1041 81.0422 33.6893C80.5138 33.2746 79.8916 33.0672 79.1757 33.0672C78.2553 33.0672 77.5422 33.3456 77.0365 33.9024C76.5308 34.4535 76.278 35.1524 76.278 35.999V44.5217H74.2325V35.5558C74.2325 34.8115 73.9911 34.2121 73.5081 33.7575C73.0251 33.2973 72.403 33.0672 71.6416 33.0672C71.1189 33.0672 70.6303 33.2064 70.1757 33.4848C69.7268 33.7632 69.3632 34.1496 69.0848 34.6439C68.8121 35.1325 68.6757 35.6979 68.6757 36.3399V44.5217H66.6643ZM86.0837 44.5217V31.4308H88.0951V44.5217H86.0837ZM87.1064 29.249C86.7144 29.249 86.3763 29.1155 86.0922 28.8484C85.8138 28.5814 85.6746 28.2604 85.6746 27.8854C85.6746 27.5104 85.8138 27.1893 86.0922 26.9223C86.3763 26.6553 86.7144 26.5217 87.1064 26.5217C87.4985 26.5217 87.8337 26.6553 88.1121 26.9223C88.3962 27.1893 88.5383 27.5104 88.5383 27.8854C88.5383 28.2604 88.3962 28.5814 88.1121 28.8484C87.8337 29.1155 87.4985 29.249 87.1064 29.249ZM94.1913 44.8285C93.3618 44.8285 92.6089 44.6723 91.9328 44.3598C91.2566 44.0416 90.7197 43.5842 90.322 42.9876C89.9243 42.3854 89.7254 41.6581 89.7254 40.8058C89.7254 40.0558 89.8731 39.4479 90.1686 38.982C90.464 38.5104 90.8589 38.141 91.3532 37.874C91.8476 37.607 92.393 37.4081 92.9896 37.2774C93.5919 37.141 94.197 37.0331 94.8049 36.9535C95.6004 36.8513 96.2453 36.7746 96.7396 36.7234C97.2396 36.6666 97.6032 36.5729 97.8305 36.4422C98.0635 36.3115 98.1799 36.0842 98.1799 35.7604V35.6922C98.1799 34.8513 97.9498 34.1979 97.4896 33.732C97.0351 33.266 96.3447 33.0331 95.4186 33.0331C94.4584 33.0331 93.7055 33.2433 93.1601 33.6638C92.6146 34.0842 92.2311 34.5331 92.0095 35.0104L90.1004 34.3285C90.4413 33.5331 90.8959 32.9138 91.464 32.4706C92.0379 32.0217 92.6629 31.7092 93.339 31.5331C94.0209 31.3513 94.6913 31.2604 95.3504 31.2604C95.7709 31.2604 96.2538 31.3115 96.7993 31.4138C97.3504 31.5104 97.8816 31.7121 98.393 32.0189C98.9101 32.3257 99.339 32.7888 99.6799 33.4081C100.021 34.0274 100.191 34.857 100.191 35.8967V44.5217H98.1799V42.749H98.0777C97.9413 43.0331 97.714 43.3371 97.3959 43.6609C97.0777 43.9848 96.6544 44.2604 96.126 44.4876C95.5976 44.7149 94.9527 44.8285 94.1913 44.8285ZM94.4981 43.0217C95.2936 43.0217 95.964 42.8655 96.5095 42.553C97.0606 42.2405 97.4754 41.8371 97.7538 41.3428C98.0379 40.8484 98.1799 40.3285 98.1799 39.7831V37.9422C98.0947 38.0445 97.9072 38.1382 97.6174 38.2234C97.3334 38.303 97.0038 38.374 96.6288 38.4365C96.2595 38.4933 95.8987 38.5445 95.5464 38.5899C95.1998 38.6297 94.9186 38.6638 94.7027 38.6922C94.1799 38.7604 93.6913 38.8712 93.2368 39.0246C92.7879 39.1723 92.4243 39.3967 92.1459 39.6979C91.8731 39.9933 91.7368 40.3967 91.7368 40.9081C91.7368 41.607 91.9953 42.1354 92.5123 42.4933C93.0351 42.8456 93.697 43.0217 94.4981 43.0217ZM108.005 27.0672H110.528L116.46 41.5558H116.664L122.596 27.0672H125.119V44.5217H123.142V31.2604H122.971L117.517 44.5217H115.607L110.153 31.2604H109.982V44.5217H108.005V27.0672ZM135.894 39.1695V31.4308H137.905V44.5217H135.894V42.3058H135.758C135.451 42.9706 134.974 43.5359 134.326 44.0018C133.678 44.4621 132.86 44.6922 131.871 44.6922C131.053 44.6922 130.326 44.5132 129.689 44.1553C129.053 43.7916 128.553 43.2462 128.189 42.5189C127.826 41.7859 127.644 40.8626 127.644 39.749V31.4308H129.655V39.6126C129.655 40.5672 129.922 41.3285 130.457 41.8967C130.996 42.4649 131.684 42.749 132.519 42.749C133.019 42.749 133.528 42.6212 134.045 42.3655C134.567 42.1098 135.005 41.7178 135.357 41.1893C135.715 40.6609 135.894 39.9876 135.894 39.1695ZM149.422 34.3626L147.615 34.874C147.502 34.5729 147.334 34.2803 147.112 33.9962C146.897 33.7064 146.601 33.4678 146.226 33.2803C145.851 33.0928 145.371 32.999 144.786 32.999C143.985 32.999 143.317 33.1837 142.783 33.553C142.254 33.9166 141.99 34.3797 141.99 34.9422C141.99 35.4422 142.172 35.8371 142.536 36.1268C142.899 36.4166 143.468 36.6581 144.24 36.8513L146.183 37.3285C147.354 37.6126 148.226 38.0473 148.8 38.6325C149.374 39.2121 149.661 39.9592 149.661 40.874C149.661 41.624 149.445 42.2945 149.013 42.8854C148.587 43.4763 147.99 43.9422 147.223 44.2831C146.456 44.624 145.564 44.7945 144.547 44.7945C143.212 44.7945 142.107 44.5047 141.232 43.9251C140.357 43.3456 139.803 42.499 139.57 41.3854L141.479 40.9081C141.661 41.6126 142.004 42.141 142.51 42.4933C143.022 42.8456 143.689 43.0217 144.513 43.0217C145.45 43.0217 146.195 42.8229 146.746 42.4251C147.303 42.0217 147.581 41.5388 147.581 40.9763C147.581 40.5217 147.422 40.141 147.104 39.8342C146.786 39.5217 146.297 39.2888 145.638 39.1354L143.456 38.624C142.257 38.3399 141.377 37.8996 140.814 37.303C140.257 36.7007 139.979 35.9479 139.979 35.0445C139.979 34.3058 140.186 33.6524 140.601 33.0842C141.022 32.516 141.593 32.07 142.314 31.7462C143.041 31.4223 143.865 31.2604 144.786 31.2604C146.081 31.2604 147.098 31.5445 147.837 32.1126C148.581 32.6808 149.11 33.4308 149.422 34.3626ZM151.248 44.5217V31.4308H153.26V44.5217H151.248ZM152.271 29.249C151.879 29.249 151.541 29.1155 151.257 28.8484C150.979 28.5814 150.839 28.2604 150.839 27.8854C150.839 27.5104 150.979 27.1893 151.257 26.9223C151.541 26.6553 151.879 26.5217 152.271 26.5217C152.663 26.5217 152.998 26.6553 153.277 26.9223C153.561 27.1893 153.703 27.5104 153.703 27.8854C153.703 28.2604 153.561 28.5814 153.277 28.8484C152.998 29.1155 152.663 29.249 152.271 29.249ZM160.822 44.7945C159.595 44.7945 158.538 44.5047 157.651 43.9251C156.765 43.3456 156.083 42.5473 155.606 41.5303C155.129 40.5132 154.89 39.3513 154.89 38.0445C154.89 36.7149 155.134 35.5416 155.623 34.5246C156.117 33.5018 156.805 32.7035 157.686 32.1297C158.572 31.5501 159.606 31.2604 160.788 31.2604C161.708 31.2604 162.538 31.4308 163.276 31.7717C164.015 32.1126 164.62 32.5899 165.092 33.2035C165.563 33.8172 165.856 34.5331 165.97 35.3513H163.958C163.805 34.7547 163.464 34.2263 162.936 33.766C162.413 33.3001 161.708 33.0672 160.822 33.0672C160.038 33.0672 159.35 33.2717 158.759 33.6808C158.174 34.0842 157.717 34.6553 157.387 35.3939C157.063 36.1268 156.901 36.9876 156.901 37.9763C156.901 38.9876 157.061 39.8683 157.379 40.6183C157.703 41.3683 158.157 41.9507 158.742 42.3655C159.333 42.7803 160.026 42.9876 160.822 42.9876C161.345 42.9876 161.819 42.8967 162.245 42.7149C162.671 42.5331 163.032 42.2717 163.328 41.9308C163.623 41.5899 163.833 41.1808 163.958 40.7035H165.97C165.856 41.4763 165.575 42.1723 165.126 42.7916C164.683 43.4053 164.095 43.8939 163.362 44.2575C162.634 44.6155 161.788 44.7945 160.822 44.7945ZM171.322 44.8285C170.493 44.8285 169.74 44.6723 169.064 44.3598C168.388 44.0416 167.851 43.5842 167.453 42.9876C167.055 42.3854 166.856 41.6581 166.856 40.8058C166.856 40.0558 167.004 39.4479 167.3 38.982C167.595 38.5104 167.99 38.141 168.484 37.874C168.978 37.607 169.524 37.4081 170.121 37.2774C170.723 37.141 171.328 37.0331 171.936 36.9535C172.731 36.8513 173.376 36.7746 173.871 36.7234C174.371 36.6666 174.734 36.5729 174.961 36.4422C175.194 36.3115 175.311 36.0842 175.311 35.7604V35.6922C175.311 34.8513 175.081 34.1979 174.621 33.732C174.166 33.266 173.476 33.0331 172.55 33.0331C171.589 33.0331 170.836 33.2433 170.291 33.6638C169.746 34.0842 169.362 34.5331 169.14 35.0104L167.231 34.3285C167.572 33.5331 168.027 32.9138 168.595 32.4706C169.169 32.0217 169.794 31.7092 170.47 31.5331C171.152 31.3513 171.822 31.2604 172.481 31.2604C172.902 31.2604 173.385 31.3115 173.93 31.4138C174.481 31.5104 175.013 31.7121 175.524 32.0189C176.041 32.3257 176.47 32.7888 176.811 33.4081C177.152 34.0274 177.322 34.857 177.322 35.8967V44.5217H175.311V42.749H175.209C175.072 43.0331 174.845 43.3371 174.527 43.6609C174.209 43.9848 173.785 44.2604 173.257 44.4876C172.728 44.7149 172.084 44.8285 171.322 44.8285ZM171.629 43.0217C172.425 43.0217 173.095 42.8655 173.64 42.553C174.192 42.2405 174.606 41.8371 174.885 41.3428C175.169 40.8484 175.311 40.3285 175.311 39.7831V37.9422C175.226 38.0445 175.038 38.1382 174.748 38.2234C174.464 38.303 174.135 38.374 173.76 38.4365C173.39 38.4933 173.03 38.5445 172.677 38.5899C172.331 38.6297 172.05 38.6638 171.834 38.6922C171.311 38.7604 170.822 38.8712 170.368 39.0246C169.919 39.1723 169.555 39.3967 169.277 39.6979C169.004 39.9933 168.868 40.3967 168.868 40.9081C168.868 41.607 169.126 42.1354 169.643 42.4933C170.166 42.8456 170.828 43.0217 171.629 43.0217ZM181.565 27.0672V44.5217H179.553V27.0672H181.565Z" fill="white"/>
</svg>
