<svg width="239" height="58" viewBox="0 0 239 58" fill="none" xmlns="http://www.w3.org/2000/svg">
<path d="M11.7215 7.09447V18.7566C11.7215 21.1631 11.117 22.9725 9.90792 24.1829C8.69881 25.3943 6.8269 26 4.29246 26C3.75763 26 3.23456 25.9627 2.72294 25.888C2.21147 25.8134 1.75803 25.7005 1.36278 25.5512C0.967389 25.402 0.641935 25.2077 0.386126 24.9685C0.130317 24.7436 0.00248493 24.4824 0.00248493 24.1829C-0.0207299 23.8997 0.118707 23.6299 0.421095 23.3763C0.700119 23.1218 1.1418 22.9725 1.74643 22.9275C2.04866 22.9122 2.3393 22.9352 2.61832 22.9945C2.92056 23.0548 3.17637 23.1371 3.3856 23.2414C3.59498 23.361 3.75763 23.4883 3.874 23.6222C4.01344 23.7724 4.08324 23.9141 4.08324 24.049C4.08324 24.2882 4.15303 24.4748 4.29246 24.6097C4.43205 24.7436 4.73429 24.8116 5.19933 24.8116C6.15263 24.8116 6.8269 24.4528 7.22229 23.7351C7.64075 23.0175 7.84999 21.8358 7.84999 20.1919V7.09447C7.84999 6.63135 7.81517 6.27253 7.74537 6.01801C7.67573 5.74913 7.52453 5.54723 7.29194 5.41232C7.08271 5.27836 6.75726 5.19607 6.31543 5.16545C5.8736 5.12144 5.28073 5.09847 4.53667 5.09847V4C5.04814 4.02966 5.7806 4.05167 6.73389 4.06698C7.68734 4.06698 8.68706 4.06698 9.73351 4.06698C10.7798 4.06698 11.7797 4.06698 12.733 4.06698C13.6863 4.05167 14.442 4.03732 15 4.02201V5.09847C14.2327 5.09847 13.6282 5.12144 13.1864 5.16545C12.7678 5.19607 12.4424 5.27836 12.2098 5.41232C12.0005 5.54723 11.8611 5.74913 11.7913 6.01801C11.7447 6.27253 11.7215 6.63135 11.7215 7.09447Z" fill="white"/>
<path d="M64.5578 5.59548L64.9057 10.3258H63.1052C62.8105 8.5906 62.1474 7.3498 61.1158 6.60341C60.0841 5.85702 58.6526 5.48322 56.8211 5.48322C55.5368 5.48322 54.3368 5.70774 53.2211 6.15558C52.1264 6.5843 51.1684 7.20052 50.3474 8.00304C49.5264 8.78645 48.8842 9.74661 48.4211 10.8859C47.9579 12.0049 47.7264 13.2552 47.7264 14.6358C47.7264 16.1476 47.979 17.5091 48.4843 18.7224C48.9896 19.9357 49.6737 20.9711 50.5369 21.8298C51.421 22.6872 52.4422 23.35 53.6 23.817C54.7789 24.2827 56.021 24.5168 57.3264 24.5168C58.9474 24.5168 60.2315 24.0594 61.1789 23.1446C62.1263 22.231 62.7579 21.0081 63.0737 19.4783H65L64.1157 24.4045C63.7368 24.6278 63.2421 24.8428 62.6316 25.0482C62.0421 25.2345 61.4105 25.3933 60.7368 25.5235C60.0631 25.6728 59.3789 25.785 58.6842 25.8603C57.9894 25.9534 57.3579 26 56.7894 26C54.8948 26 53.1579 25.7289 51.5789 25.1879C50.0211 24.647 48.6737 23.8815 47.5368 22.8926C46.4211 21.9038 45.5474 20.7191 44.9158 19.3386C44.3053 17.939 44 16.3996 44 14.7205C44 13.1716 44.358 11.7434 45.0737 10.4381C45.7896 9.11247 46.7369 7.97438 47.9158 7.02258C49.0948 6.07078 50.4421 5.33395 51.9579 4.81207C53.4947 4.27109 55.0737 4 56.6947 4C58.0843 4 59.4421 4.15884 60.7683 4.4753C62.1157 4.79297 63.3789 5.16676 64.5578 5.59548Z" fill="white"/>
<path d="M84.8476 24.9897C85.2769 25.5131 85.7763 25.9557 86.3433 26.3163C86.9104 26.6779 87.5562 26.9576 88.2797 27.1564C89.0232 27.3551 89.8631 27.4811 90.8019 27.5354C91.7407 27.5897 92.8071 27.5631 94 27.4545V28.6459C92.6707 28.899 91.3702 29.0157 90.0984 28.9983C88.8267 28.9983 87.6238 28.8631 86.4898 28.5916C85.3758 28.3212 84.3381 27.9063 83.3806 27.3459C82.4418 26.7866 81.6495 26.0644 81.0036 25.1792C79.6155 25.0891 78.3149 24.7459 77.102 24.1507C75.8891 23.5545 74.834 22.7872 73.934 21.8477C73.034 20.8909 72.3205 19.8081 71.7923 18.5982C71.2641 17.3699 71 16.0884 71 14.7525C71 13.434 71.2641 12.134 71.7923 10.8525C72.3393 9.55249 73.1029 8.39692 74.0804 7.3858C75.058 6.37469 76.2321 5.56232 77.6015 4.94756C78.9696 4.31547 80.4954 4 82.1777 4C83.7035 4 85.1405 4.28889 86.4898 4.86667C87.8391 5.44446 89.0132 6.22099 90.0108 7.19629C91.0084 8.1531 91.7908 9.27168 92.3578 10.5544C92.9436 11.8185 93.2377 13.1451 93.2377 14.5353C93.2377 15.6908 93.0324 16.8372 92.6219 17.9754C92.2301 19.094 91.6631 20.1328 90.9196 21.0896C90.1961 22.0291 89.3161 22.8496 88.2797 23.5545C87.2433 24.2409 86.0993 24.7193 84.8476 24.9897ZM89.6003 15.3476C89.6003 14.6439 89.5214 13.9124 89.3649 13.1544C89.2285 12.3778 89.0132 11.629 88.7191 10.9068C88.4462 10.1661 88.0932 9.47044 87.6639 8.82101C87.2333 8.1531 86.7251 7.57531 86.1381 7.08766C85.571 6.58153 84.9252 6.18517 84.2017 5.89628C83.4782 5.5889 82.6759 5.43521 81.7959 5.43521C80.7395 5.43521 79.7719 5.64321 78.892 6.05806C78.012 6.47406 77.2485 7.05184 76.6039 7.7914C75.978 8.53212 75.4886 9.42537 75.1369 10.4735C74.7851 11.5204 74.6086 12.676 74.6086 13.9402C74.6086 14.9871 74.7751 16.0976 75.1068 17.2705C75.4398 18.4261 75.9292 19.4915 76.5738 20.4668C77.2397 21.4421 78.0608 22.2544 79.0384 22.9039C80.016 23.536 81.1513 23.8526 82.4418 23.8526C83.5758 23.8526 84.5834 23.6446 85.4634 23.2298C86.3433 22.8138 87.0869 22.236 87.6927 21.4964C88.3185 20.7372 88.7879 19.8439 89.1008 18.8143C89.4338 17.7674 89.6003 16.6118 89.6003 15.3476Z" fill="white"/>
<path d="M122 4V5.42132C121.423 5.42132 120.965 5.44072 120.627 5.47831C120.309 5.51591 120.069 5.6202 119.91 5.7912C119.751 5.94279 119.651 6.17927 119.612 6.50185C119.592 6.82322 119.581 7.27799 119.581 7.86616V18.6097C119.581 19.6708 119.403 20.6568 119.045 21.5663C118.686 22.4564 118.159 23.2338 117.462 23.8971C116.767 24.5411 115.901 25.0529 114.865 25.4312C113.831 25.8108 112.637 26 111.284 26C109.99 26 108.826 25.8387 107.792 25.5161C106.756 25.2129 105.871 24.74 105.135 24.096C104.418 23.4509 103.862 22.6456 103.463 21.6791C103.066 20.6943 102.857 19.5483 102.836 18.2398V7.97894C102.836 7.41139 102.807 6.95662 102.747 6.61585C102.687 6.27386 102.557 6.01797 102.359 5.84819C102.179 5.6772 101.901 5.5632 101.523 5.50621C101.145 5.45042 100.637 5.42132 100 5.42132V4.02911C100.438 4.0667 101.065 4.09459 101.881 4.114C102.697 4.1334 103.553 4.14189 104.449 4.14189C105.344 4.14189 106.2 4.1334 107.015 4.114C107.852 4.09459 108.508 4.0667 108.985 4.02911V5.42132C108.348 5.42132 107.841 5.45042 107.463 5.50621C107.085 5.5632 106.796 5.6772 106.597 5.84819C106.399 6.01797 106.269 6.27386 106.209 6.61585C106.15 6.95662 106.12 7.41139 106.12 7.97894V17.4733C106.12 19.86 106.597 21.5845 107.552 22.6456C108.508 23.6886 110.021 24.2088 112.09 24.2088C112.845 24.2088 113.542 24.0766 114.179 23.811C114.816 23.5455 115.363 23.1768 115.821 22.7026C116.279 22.2102 116.637 21.6136 116.895 20.9126C117.154 20.2105 117.284 19.4246 117.284 18.5527V7.97894C117.284 7.39198 117.264 6.93722 117.224 6.61585C117.204 6.27386 117.104 6.02768 116.926 5.87609C116.767 5.70631 116.507 5.60201 116.149 5.5632C115.812 5.5062 115.324 5.46861 114.687 5.45042V4.02911C115.105 4.0667 115.652 4.09459 116.329 4.114C117.005 4.114 117.702 4.114 118.417 4.114C119.155 4.114 119.841 4.10429 120.478 4.0861C121.134 4.0667 121.642 4.03759 122 4Z" fill="white"/>
<path d="M132.84 21.8261V7.97111C132.84 7.3713 132.799 6.90753 132.719 6.5798C132.666 6.23104 132.506 5.97999 132.239 5.8254C131.973 5.65225 131.586 5.5459 131.079 5.50633C130.574 5.44944 129.879 5.41976 129 5.41976V4C129.399 4.01855 129.906 4.03833 130.519 4.05812C131.159 4.05812 131.854 4.06678 132.599 4.08657C133.373 4.08657 134.159 4.08657 134.96 4.08657C135.786 4.08657 136.573 4.08657 137.32 4.08657C138.066 4.06678 138.759 4.05812 139.399 4.05812C140.066 4.05812 140.601 4.04824 141 4.02845V5.41976C140.119 5.41976 139.426 5.44944 138.919 5.50633C138.44 5.5459 138.066 5.65225 137.8 5.8254C137.559 5.97999 137.401 6.23104 137.32 6.5798C137.266 6.90753 137.24 7.3713 137.24 7.97111V21.8261C137.24 22.4246 137.279 22.9082 137.36 23.2755C137.44 23.623 137.614 23.8939 137.88 24.0868C138.146 24.2797 138.52 24.4145 139 24.4924C139.507 24.5506 140.174 24.579 141 24.579V25.9703C140.387 25.9518 139.534 25.932 138.44 25.9122C137.346 25.9122 136.199 25.9122 134.999 25.9122C133.827 25.9122 132.693 25.9221 131.599 25.9419C130.507 25.9604 129.64 25.9802 129 26V24.579C129.826 24.579 130.493 24.5506 131 24.4924C131.505 24.4145 131.893 24.2797 132.159 24.0868C132.453 23.8939 132.64 23.623 132.719 23.2755C132.799 22.9082 132.84 22.4246 132.84 21.8261Z" fill="white"/>
<path d="M168.138 8.02061V26H166.278L152.081 8.91149V21.749C152.081 22.3617 152.11 22.8507 152.169 23.2146C152.229 23.5589 152.356 23.8175 152.554 23.9903C152.75 24.1619 153.035 24.2672 153.409 24.3052C153.783 24.3444 154.285 24.3628 154.915 24.3628V25.7132C154.363 25.6936 153.713 25.6838 152.967 25.6838C152.239 25.6838 151.491 25.6838 150.722 25.6838C149.956 25.6838 149.199 25.6838 148.451 25.6838C147.723 25.7034 147.083 25.7231 146.531 25.7414V24.3628C147.22 24.3628 147.772 24.3444 148.185 24.3052C148.618 24.2489 148.952 24.1337 149.189 23.9609C149.424 23.7697 149.581 23.4916 149.661 23.1288C149.739 22.7649 149.778 22.2661 149.778 21.635V8.02061C149.778 7.4851 149.72 7.05375 149.602 6.72901C149.483 6.38344 149.277 6.1163 148.982 5.92391C148.686 5.71436 148.293 5.56976 147.801 5.49378C147.329 5.41658 146.729 5.3786 146 5.3786V4C146.315 4.03799 146.729 4.0674 147.24 4.08578C147.772 4.08578 148.303 4.08578 148.833 4.08578C149.365 4.08578 149.867 4.0772 150.34 4.05759C150.812 4.03798 151.176 4.01961 151.431 4L165.776 20.9169V7.84905C165.776 7.31231 165.746 6.88219 165.687 6.55623C165.628 6.23027 165.501 5.9815 165.304 5.80994C165.106 5.63716 164.812 5.52197 164.418 5.46438C164.045 5.40801 163.532 5.3786 162.884 5.3786V4C163.336 4.01961 163.926 4.03798 164.654 4.05759C165.402 4.05759 166.169 4.05759 166.956 4.05759C167.764 4.05759 168.53 4.05759 169.258 4.05759C169.986 4.03798 170.567 4.01961 171 4V5.3786C170.311 5.3786 169.78 5.40801 169.406 5.46438C169.033 5.50359 168.747 5.60897 168.551 5.78053C168.353 5.95332 168.236 6.22169 168.195 6.58564C168.156 6.92998 168.138 7.4079 168.138 8.02061Z" fill="white"/>
<path d="M29.1995 3C29.2283 3.07591 35.3424 19.1709 37.5432 23.835C38.0192 24.8436 39.4397 25.9828 39.4612 26H33.51C33.5369 25.9939 35.1183 25.6324 35.2952 24.9043C35.428 24.3568 35.2954 23.8092 34.7004 23.2617C34.1052 22.7141 32.9143 22.1668 31.7239 21.6191C30.5336 21.0716 31.6362 21.5862 28.7483 20.5234C27.8898 20.2075 26.3674 19.4289 25.177 19.9766C24.7355 20.1797 24.5846 20.516 24.5813 20.5234C24.5813 20.5234 23.6057 23.3516 23.3909 23.8096C23.176 24.2675 22.7964 24.9046 23.9866 25.4521C25.1769 25.9998 25.177 26 25.177 26H19.2249C19.2249 26 19.8 25.4612 20.2795 25.0547C20.7546 24.652 21.0053 23.8252 21.01 23.8096L29.1995 3ZM25.177 18.6514C25.1928 18.644 25.6141 18.4522 26.3665 18.6514C28.4159 19.1943 33.4589 21.0528 33.509 21.0713L28.7473 9.57129L25.177 18.6514Z" fill="#D9D9D9"/>
<path d="M177 3.72162C177 -0.503782 183.662 -0.119983 186.041 0.151817C186.525 0.207117 186.873 0.621018 186.873 1.10832V26.2571C186.873 26.8094 187.321 27.2571 187.873 27.2571H189C189.552 27.2571 190 27.7048 190 28.2571V51C190 51.5523 189.552 52 189 52H178C177.448 52 177 51.5636 177 51.0113C177 44.5448 177 8.40262 177 3.72162Z" fill="#FFFEFF"/>
<path d="M195.25 1.0143C195.25 0.426154 195.697 -0.0461327 196.248 0.00359847C198.07 0.168446 201.75 0.83444 201.75 3.52439C201.75 6.60762 201.75 22.0992 201.75 26.3038C201.75 26.892 202.198 27.3581 202.75 27.3581H204C204.552 27.3581 205 27.8348 205 28.423V48.9351C205 49.5232 204.552 50 204 50H193C192.448 50 192 49.5232 192 48.9351V28.423C192 27.8348 192.448 27.3581 193 27.3581H194.25C194.802 27.3581 195.25 26.8813 195.25 26.2932V1.0143Z" fill="#FFFEFF"/>
<path d="M211.038 2.08365C211.038 1.51002 211.431 1.03383 211.948 1.01454C213.746 0.947572 217.657 1.03538 218.538 2.9807C219.521 5.14997 219.248 19.2957 219.146 23.4383C219.13 24.0651 219.584 24.5765 220.15 24.5765H221C221.552 24.5765 222 25.0729 222 25.6852V50.8913C222 51.5036 221.552 52 221 52H208C207.448 52 207 51.5036 207 50.8913V25.5353C207 24.9848 207.364 24.5177 207.856 24.4382L210.183 24.062C210.674 23.9825 211.038 23.5154 211.038 22.9648V2.08365Z" fill="#FFFEFF"/>
<path d="M228.038 4.80656C228.038 1.19831 235.394 0.968032 238.054 1.00285C238.586 1.00972 239 1.49377 239 2.08382V50.8913C239 51.5036 238.552 52 238 52H225C224.448 52 224 51.5036 224 50.8913V26.6804C224 26.068 224.448 25.5717 225 25.5717H227.038C227.591 25.5717 228.038 25.0766 228.038 24.4643C228.038 20.7137 228.038 8.51737 228.038 4.80656Z" fill="#FFFEFF"/>
<path d="M194.311 1.65807C194.321 1.38019 194.638 1.22726 194.861 1.39337C194.949 1.45837 195 1.56077 195 1.66956V25.9913C195 26.547 194.547 26.9961 193.991 26.9913L192.496 26.9784C192.221 26.976 192 26.7528 192 26.4782C192 26.203 192.222 25.9795 192.497 25.9779L192.763 25.9764C193.174 25.974 193.511 25.6467 193.525 25.2351L194.311 1.65807Z" fill="url(#paint0_radial_473_140)"/>
<path d="M209.469 2.48299C209.486 2.21138 209.712 2 209.984 2C210.269 2 210.5 2.23103 210.5 2.51602V22.6327C210.5 23.1304 210.134 23.5523 209.641 23.6227L207.665 23.9049C207.314 23.9551 207 23.6826 207 23.3278C207 23.1243 207.106 22.9354 207.28 22.8297L207.755 22.5409C208.034 22.3713 208.212 22.0762 208.233 21.7505L209.469 2.48299Z" fill="url(#paint1_radial_473_140)"/>
<path d="M226.993 5.49719C226.997 5.34149 227.099 5.20525 227.247 5.15701C227.485 5.07954 227.729 5.25683 227.729 5.507L227.729 24.3711C227.729 24.9234 227.281 25.3711 226.729 25.3711H224.989C224.719 25.3711 224.5 25.1521 224.5 24.8819C224.5 24.6575 224.653 24.4618 224.871 24.4074L225.763 24.1842C226.199 24.0753 226.508 23.6895 226.52 23.2407L226.993 5.49719Z" fill="url(#paint2_radial_473_140)"/>
<path d="M2.82955 52H0.613636L7.02273 34.5455H9.20455L15.6136 52H13.3977L8.18182 37.3068H8.04545L2.82955 52ZM3.64773 45.1818H12.5795V47.0568H3.64773V45.1818ZM21.2178 52.2727C19.9906 52.2727 18.9338 51.983 18.0474 51.4034C17.161 50.8239 16.4792 50.0256 16.0019 49.0085C15.5247 47.9915 15.286 46.8295 15.286 45.5227C15.286 44.1932 15.5303 43.0199 16.019 42.0028C16.5133 40.9801 17.2008 40.1818 18.0815 39.608C18.9678 39.0284 20.0019 38.7386 21.1838 38.7386C22.1042 38.7386 22.9338 38.9091 23.6724 39.25C24.411 39.5909 25.0161 40.0682 25.4877 40.6818C25.9593 41.2955 26.2519 42.0114 26.3656 42.8295H24.3542C24.2008 42.233 23.8599 41.7045 23.3315 41.2443C22.8088 40.7784 22.1042 40.5455 21.2178 40.5455C20.4338 40.5455 19.7463 40.75 19.1553 41.1591C18.5701 41.5625 18.1127 42.1335 17.7832 42.8722C17.4593 43.6051 17.2974 44.4659 17.2974 45.4545C17.2974 46.4659 17.4565 47.3466 17.7747 48.0966C18.0985 48.8466 18.5531 49.429 19.1383 49.8438C19.7292 50.2585 20.4224 50.4659 21.2178 50.4659C21.7406 50.4659 22.215 50.375 22.6411 50.1932C23.0673 50.0114 23.4281 49.75 23.7235 49.4091C24.019 49.0682 24.2292 48.6591 24.3542 48.1818H26.3656C26.2519 48.9545 25.9707 49.6506 25.5218 50.2699C25.0786 50.8835 24.4906 51.3722 23.7576 51.7358C23.0303 52.0938 22.1838 52.2727 21.2178 52.2727ZM30.9982 52.3068C30.1686 52.3068 29.4158 52.1506 28.7397 51.8381C28.0635 51.5199 27.5266 51.0625 27.1289 50.4659C26.7311 49.8636 26.5323 49.1364 26.5323 48.2841C26.5323 47.5341 26.68 46.9261 26.9755 46.4602C27.2709 45.9886 27.6658 45.6193 28.1601 45.3523C28.6544 45.0852 29.1999 44.8864 29.7965 44.7557C30.3988 44.6193 31.0039 44.5114 31.6118 44.4318C32.4073 44.3295 33.0522 44.2528 33.5465 44.2017C34.0465 44.1449 34.4101 44.0511 34.6374 43.9205C34.8703 43.7898 34.9868 43.5625 34.9868 43.2386V43.1705C34.9868 42.3295 34.7567 41.6761 34.2965 41.2102C33.8419 40.7443 33.1516 40.5114 32.2255 40.5114C31.2652 40.5114 30.5124 40.7216 29.9669 41.142C29.4215 41.5625 29.038 42.0114 28.8164 42.4886L26.9073 41.8068C27.2482 41.0114 27.7027 40.392 28.2709 39.9489C28.8448 39.5 29.4698 39.1875 30.1459 39.0114C30.8277 38.8295 31.4982 38.7386 32.1573 38.7386C32.5777 38.7386 33.0607 38.7898 33.6061 38.892C34.1573 38.9886 34.6885 39.1903 35.1999 39.4972C35.7169 39.804 36.1459 40.267 36.4868 40.8864C36.8277 41.5057 36.9982 42.3352 36.9982 43.375V52H34.9868V50.2273H34.8845C34.7482 50.5114 34.5209 50.8153 34.2027 51.1392C33.8845 51.4631 33.4613 51.7386 32.9328 51.9659C32.4044 52.1932 31.7595 52.3068 30.9982 52.3068ZM31.305 50.5C32.1005 50.5 32.7709 50.3438 33.3164 50.0312C33.8675 49.7188 34.2823 49.3153 34.5607 48.821C34.8448 48.3267 34.9868 47.8068 34.9868 47.2614V45.4205C34.9016 45.5227 34.7141 45.6165 34.4243 45.7017C34.1402 45.7812 33.8107 45.8523 33.4357 45.9148C33.0664 45.9716 32.7056 46.0227 32.3533 46.0682C32.0067 46.108 31.7255 46.142 31.5095 46.1705C30.9868 46.2386 30.4982 46.3494 30.0436 46.5028C29.5948 46.6506 29.2311 46.875 28.9527 47.1761C28.68 47.4716 28.5436 47.875 28.5436 48.3864C28.5436 49.0852 28.8022 49.6136 29.3192 49.9716C29.8419 50.3239 30.5039 50.5 31.305 50.5ZM43.4525 52.2727C42.3616 52.2727 41.3986 51.9972 40.5633 51.446C39.7281 50.8892 39.0747 50.1051 38.6031 49.0938C38.1315 48.0767 37.8957 46.875 37.8957 45.4886C37.8957 44.1136 38.1315 42.9205 38.6031 41.9091C39.0747 40.8977 39.7309 40.1165 40.5718 39.5653C41.4128 39.0142 42.3843 38.7386 43.4866 38.7386C44.3389 38.7386 45.0122 38.8807 45.5065 39.1648C46.0065 39.4432 46.3872 39.7614 46.6486 40.1193C46.9156 40.4716 47.123 40.7614 47.2707 40.9886H47.4412V34.5455H49.4525V52H47.5093V49.9886H47.2707C47.123 50.2273 46.9128 50.5284 46.64 50.892C46.3673 51.25 45.9781 51.571 45.4724 51.8551C44.9667 52.1335 44.2934 52.2727 43.4525 52.2727ZM43.7253 50.4659C44.5321 50.4659 45.2139 50.2557 45.7707 49.8352C46.3275 49.4091 46.7508 48.821 47.0406 48.071C47.3304 47.3153 47.4753 46.4432 47.4753 45.4545C47.4753 44.4773 47.3332 43.6222 47.0491 42.8892C46.765 42.1506 46.3446 41.5767 45.7878 41.1676C45.2309 40.7528 44.5434 40.5455 43.7253 40.5455C42.873 40.5455 42.1628 40.7642 41.5946 41.2017C41.0321 41.6335 40.6088 42.2216 40.3247 42.9659C40.0463 43.7045 39.9071 44.5341 39.9071 45.4545C39.9071 46.3864 40.0491 47.233 40.3332 47.9943C40.623 48.75 41.0491 49.3523 41.6116 49.8011C42.1798 50.2443 42.8843 50.4659 43.7253 50.4659ZM56.7442 52.2727C55.4829 52.2727 54.3948 51.9943 53.48 51.4375C52.5709 50.875 51.8692 50.0909 51.3749 49.0852C50.8863 48.0739 50.642 46.8977 50.642 45.5568C50.642 44.2159 50.8863 43.0341 51.3749 42.0114C51.8692 40.983 52.5567 40.1818 53.4374 39.608C54.3238 39.0284 55.3579 38.7386 56.5397 38.7386C57.2215 38.7386 57.8948 38.8523 58.5596 39.0795C59.2243 39.3068 59.8295 39.6761 60.3749 40.1875C60.9204 40.6932 61.355 41.3636 61.6789 42.1989C62.0028 43.0341 62.1647 44.0625 62.1647 45.2841V46.1364H52.0738V44.3977H60.1192C60.1192 43.6591 59.9715 43 59.6761 42.4205C59.3863 41.8409 58.9715 41.3835 58.4317 41.0483C57.8976 40.7131 57.267 40.5455 56.5397 40.5455C55.7386 40.5455 55.0454 40.7443 54.4601 41.142C53.8806 41.5341 53.4346 42.0455 53.1221 42.6761C52.8096 43.3068 52.6533 43.983 52.6533 44.7045V45.8636C52.6533 46.8523 52.8238 47.6903 53.1647 48.3778C53.5113 49.0597 53.9914 49.5795 54.605 49.9375C55.2187 50.2898 55.9317 50.4659 56.7442 50.4659C57.2726 50.4659 57.7499 50.392 58.1761 50.2443C58.6079 50.0909 58.98 49.8636 59.2925 49.5625C59.605 49.2557 59.8465 48.875 60.017 48.4205L61.9601 48.9659C61.7556 49.625 61.4118 50.2045 60.9289 50.7045C60.4459 51.1989 59.8493 51.5852 59.1391 51.8636C58.4289 52.1364 57.6306 52.2727 56.7442 52.2727ZM63.0643 52V38.9091H65.0075V40.9545H65.178C65.4507 40.2557 65.8911 39.7131 66.499 39.3267C67.107 38.9347 67.8371 38.7386 68.6893 38.7386C69.553 38.7386 70.2717 38.9347 70.8456 39.3267C71.4251 39.7131 71.8768 40.2557 72.2007 40.9545H72.3371C72.6723 40.2784 73.1751 39.7415 73.8456 39.3438C74.5161 38.9403 75.32 38.7386 76.2575 38.7386C77.428 38.7386 78.3854 39.1051 79.1297 39.8381C79.874 40.5653 80.2462 41.6989 80.2462 43.2386V52H78.2348V43.2386C78.2348 42.2727 77.9706 41.5824 77.4422 41.1676C76.9138 40.7528 76.2916 40.5455 75.5757 40.5455C74.6553 40.5455 73.9422 40.8239 73.4365 41.3807C72.9308 41.9318 72.678 42.6307 72.678 43.4773V52H70.6325V43.0341C70.6325 42.2898 70.3911 41.6903 69.9081 41.2358C69.4251 40.7756 68.803 40.5455 68.0416 40.5455C67.5189 40.5455 67.0303 40.6847 66.5757 40.9631C66.1268 41.2415 65.7632 41.6278 65.4848 42.1222C65.2121 42.6108 65.0757 43.1761 65.0757 43.8182V52H63.0643ZM81.7637 52V38.9091H83.7751V52H81.7637ZM82.7864 36.7273C82.3944 36.7273 82.0563 36.5938 81.7722 36.3267C81.4938 36.0597 81.3546 35.7386 81.3546 35.3636C81.3546 34.9886 81.4938 34.6676 81.7722 34.4006C82.0563 34.1335 82.3944 34 82.7864 34C83.1785 34 83.5137 34.1335 83.7921 34.4006C84.0762 34.6676 84.2183 34.9886 84.2183 35.3636C84.2183 35.7386 84.0762 36.0597 83.7921 36.3267C83.5137 36.5938 83.1785 36.7273 82.7864 36.7273ZM89.1513 52.3068C88.3218 52.3068 87.5689 52.1506 86.8928 51.8381C86.2166 51.5199 85.6797 51.0625 85.282 50.4659C84.8843 49.8636 84.6854 49.1364 84.6854 48.2841C84.6854 47.5341 84.8331 46.9261 85.1286 46.4602C85.424 45.9886 85.8189 45.6193 86.3132 45.3523C86.8076 45.0852 87.353 44.8864 87.9496 44.7557C88.5519 44.6193 89.157 44.5114 89.7649 44.4318C90.5604 44.3295 91.2053 44.2528 91.6996 44.2017C92.1996 44.1449 92.5632 44.0511 92.7905 43.9205C93.0235 43.7898 93.1399 43.5625 93.1399 43.2386V43.1705C93.1399 42.3295 92.9098 41.6761 92.4496 41.2102C91.9951 40.7443 91.3047 40.5114 90.3786 40.5114C89.4183 40.5114 88.6655 40.7216 88.1201 41.142C87.5746 41.5625 87.1911 42.0114 86.9695 42.4886L85.0604 41.8068C85.4013 41.0114 85.8558 40.392 86.424 39.9489C86.9979 39.5 87.6229 39.1875 88.299 39.0114C88.9808 38.8295 89.6513 38.7386 90.3104 38.7386C90.7308 38.7386 91.2138 38.7898 91.7593 38.892C92.3104 38.9886 92.8416 39.1903 93.353 39.4972C93.8701 39.804 94.299 40.267 94.6399 40.8864C94.9808 41.5057 95.1513 42.3352 95.1513 43.375V52H93.1399V50.2273H93.0377C92.9013 50.5114 92.674 50.8153 92.3558 51.1392C92.0377 51.4631 91.6144 51.7386 91.086 51.9659C90.5576 52.1932 89.9127 52.3068 89.1513 52.3068ZM89.4581 50.5C90.2536 50.5 90.924 50.3438 91.4695 50.0312C92.0206 49.7188 92.4354 49.3153 92.7138 48.821C92.9979 48.3267 93.1399 47.8068 93.1399 47.2614V45.4205C93.0547 45.5227 92.8672 45.6165 92.5774 45.7017C92.2933 45.7812 91.9638 45.8523 91.5888 45.9148C91.2195 45.9716 90.8587 46.0227 90.5064 46.0682C90.1598 46.108 89.8786 46.142 89.6627 46.1705C89.1399 46.2386 88.6513 46.3494 88.1968 46.5028C87.7479 46.6506 87.3843 46.875 87.1058 47.1761C86.8331 47.4716 86.6968 47.875 86.6968 48.3864C86.6968 49.0852 86.9553 49.6136 87.4723 49.9716C87.9951 50.3239 88.657 50.5 89.4581 50.5ZM101.525 34.5455H104.048L109.98 49.0341H110.184L116.116 34.5455H118.639V52H116.662V38.7386H116.491L111.037 52H109.127L103.673 38.7386H103.502V52H101.525V34.5455ZM128.694 46.6477V38.9091H130.705V52H128.694V49.7841H128.558C128.251 50.4489 127.774 51.0142 127.126 51.4801C126.478 51.9403 125.66 52.1705 124.671 52.1705C123.853 52.1705 123.126 51.9915 122.489 51.6335C121.853 51.2699 121.353 50.7244 120.989 49.9972C120.626 49.2642 120.444 48.3409 120.444 47.2273V38.9091H122.455V47.0909C122.455 48.0455 122.722 48.8068 123.257 49.375C123.796 49.9432 124.484 50.2273 125.319 50.2273C125.819 50.2273 126.328 50.0994 126.845 49.8438C127.367 49.5881 127.805 49.196 128.157 48.6676C128.515 48.1392 128.694 47.4659 128.694 46.6477ZM141.502 41.8409L139.695 42.3523C139.582 42.0511 139.414 41.7585 139.192 41.4744C138.977 41.1847 138.681 40.946 138.306 40.7585C137.931 40.571 137.451 40.4773 136.866 40.4773C136.065 40.4773 135.397 40.6619 134.863 41.0312C134.334 41.3949 134.07 41.858 134.07 42.4205C134.07 42.9205 134.252 43.3153 134.616 43.6051C134.979 43.8949 135.548 44.1364 136.32 44.3295L138.263 44.8068C139.434 45.0909 140.306 45.5256 140.88 46.1108C141.454 46.6903 141.741 47.4375 141.741 48.3523C141.741 49.1023 141.525 49.7727 141.093 50.3636C140.667 50.9545 140.07 51.4205 139.303 51.7614C138.536 52.1023 137.644 52.2727 136.627 52.2727C135.292 52.2727 134.187 51.983 133.312 51.4034C132.437 50.8239 131.883 49.9773 131.65 48.8636L133.559 48.3864C133.741 49.0909 134.084 49.6193 134.59 49.9716C135.102 50.3239 135.769 50.5 136.593 50.5C137.53 50.5 138.275 50.3011 138.826 49.9034C139.383 49.5 139.661 49.017 139.661 48.4545C139.661 48 139.502 47.6193 139.184 47.3125C138.866 47 138.377 46.767 137.718 46.6136L135.536 46.1023C134.337 45.8182 133.457 45.3778 132.894 44.7812C132.337 44.179 132.059 43.4261 132.059 42.5227C132.059 41.7841 132.266 41.1307 132.681 40.5625C133.102 39.9943 133.673 39.5483 134.394 39.2244C135.121 38.9006 135.945 38.7386 136.866 38.7386C138.161 38.7386 139.178 39.0227 139.917 39.5909C140.661 40.1591 141.19 40.9091 141.502 41.8409ZM142.608 52V38.9091H144.62V52H142.608ZM143.631 36.7273C143.239 36.7273 142.901 36.5938 142.617 36.3267C142.339 36.0597 142.199 35.7386 142.199 35.3636C142.199 34.9886 142.339 34.6676 142.617 34.4006C142.901 34.1335 143.239 34 143.631 34C144.023 34 144.358 34.1335 144.637 34.4006C144.921 34.6676 145.063 34.9886 145.063 35.3636C145.063 35.7386 144.921 36.0597 144.637 36.3267C144.358 36.5938 144.023 36.7273 143.631 36.7273ZM151.462 52.2727C150.235 52.2727 149.178 51.983 148.291 51.4034C147.405 50.8239 146.723 50.0256 146.246 49.0085C145.769 47.9915 145.53 46.8295 145.53 45.5227C145.53 44.1932 145.774 43.0199 146.263 42.0028C146.757 40.9801 147.445 40.1818 148.326 39.608C149.212 39.0284 150.246 38.7386 151.428 38.7386C152.348 38.7386 153.178 38.9091 153.916 39.25C154.655 39.5909 155.26 40.0682 155.732 40.6818C156.203 41.2955 156.496 42.0114 156.61 42.8295H154.598C154.445 42.233 154.104 41.7045 153.576 41.2443C153.053 40.7784 152.348 40.5455 151.462 40.5455C150.678 40.5455 149.99 40.75 149.399 41.1591C148.814 41.5625 148.357 42.1335 148.027 42.8722C147.703 43.6051 147.541 44.4659 147.541 45.4545C147.541 46.4659 147.701 47.3466 148.019 48.0966C148.343 48.8466 148.797 49.429 149.382 49.8438C149.973 50.2585 150.666 50.4659 151.462 50.4659C151.985 50.4659 152.459 50.375 152.885 50.1932C153.311 50.0114 153.672 49.75 153.968 49.4091C154.263 49.0682 154.473 48.6591 154.598 48.1818H156.61C156.496 48.9545 156.215 49.6506 155.766 50.2699C155.323 50.8835 154.735 51.3722 154.002 51.7358C153.274 52.0938 152.428 52.2727 151.462 52.2727ZM161.242 52.3068C160.413 52.3068 159.66 52.1506 158.984 51.8381C158.308 51.5199 157.771 51.0625 157.373 50.4659C156.975 49.8636 156.776 49.1364 156.776 48.2841C156.776 47.5341 156.924 46.9261 157.22 46.4602C157.515 45.9886 157.91 45.6193 158.404 45.3523C158.898 45.0852 159.444 44.8864 160.041 44.7557C160.643 44.6193 161.248 44.5114 161.856 44.4318C162.651 44.3295 163.296 44.2528 163.791 44.2017C164.291 44.1449 164.654 44.0511 164.881 43.9205C165.114 43.7898 165.231 43.5625 165.231 43.2386V43.1705C165.231 42.3295 165.001 41.6761 164.541 41.2102C164.086 40.7443 163.396 40.5114 162.47 40.5114C161.509 40.5114 160.756 40.7216 160.211 41.142C159.666 41.5625 159.282 42.0114 159.06 42.4886L157.151 41.8068C157.492 41.0114 157.947 40.392 158.515 39.9489C159.089 39.5 159.714 39.1875 160.39 39.0114C161.072 38.8295 161.742 38.7386 162.401 38.7386C162.822 38.7386 163.305 38.7898 163.85 38.892C164.401 38.9886 164.933 39.1903 165.444 39.4972C165.961 39.804 166.39 40.267 166.731 40.8864C167.072 41.5057 167.242 42.3352 167.242 43.375V52H165.231V50.2273H165.129C164.992 50.5114 164.765 50.8153 164.447 51.1392C164.129 51.4631 163.705 51.7386 163.177 51.9659C162.648 52.1932 162.004 52.3068 161.242 52.3068ZM161.549 50.5C162.345 50.5 163.015 50.3438 163.56 50.0312C164.112 49.7188 164.526 49.3153 164.805 48.821C165.089 48.3267 165.231 47.8068 165.231 47.2614V45.4205C165.146 45.5227 164.958 45.6165 164.668 45.7017C164.384 45.7812 164.055 45.8523 163.68 45.9148C163.31 45.9716 162.95 46.0227 162.597 46.0682C162.251 46.108 161.97 46.142 161.754 46.1705C161.231 46.2386 160.742 46.3494 160.288 46.5028C159.839 46.6506 159.475 46.875 159.197 47.1761C158.924 47.4716 158.788 47.875 158.788 48.3864C158.788 49.0852 159.046 49.6136 159.563 49.9716C160.086 50.3239 160.748 50.5 161.549 50.5ZM170.765 34.5455V52H168.753V34.5455H170.765Z" fill="white"/>
<defs>
<radialGradient id="paint0_radial_473_140" cx="0" cy="0" r="1" gradientUnits="userSpaceOnUse" gradientTransform="translate(194.688 11.0709) rotate(90) scale(14.7532 3.4958)">
<stop stop-color="#D9D9D9"/>
<stop offset="0.810919" stop-color="#737373"/>
<stop offset="1" stop-color="#737373"/>
</radialGradient>
<radialGradient id="paint1_radial_473_140" cx="0" cy="0" r="1" gradientUnits="userSpaceOnUse" gradientTransform="translate(208.611 11.8453) rotate(90) scale(11.8939 2.71895)">
<stop stop-color="#D9D9D9"/>
<stop offset="0.810919" stop-color="#737373"/>
<stop offset="1" stop-color="#737373"/>
</radialGradient>
<radialGradient id="paint2_radial_473_140" cx="0" cy="0" r="1" gradientUnits="userSpaceOnUse" gradientTransform="translate(225.611 12.649) rotate(90) scale(11.6964 2.71895)">
<stop stop-color="#D9D9D9"/>
<stop offset="0.810919" stop-color="#737373"/>
<stop offset="1" stop-color="#737373"/>
</radialGradient>
</defs>
</svg>
