<svg width="62" height="52" viewBox="0 0 62 52" fill="none" xmlns="http://www.w3.org/2000/svg">
<path d="M0 3.72162C0 -0.503782 6.662 -0.119983 9.041 0.151817C9.525 0.207117 9.873 0.621018 9.873 1.10832V26.2571C9.873 26.8094 10.321 27.2571 10.873 27.2571H12C12.552 27.2571 13 27.7048 13 28.2571V51C13 51.5523 12.552 52 12 52H1C0.448 52 0 51.5636 0 51.0113C0 44.5448 0 8.40262 0 3.72162Z" fill="#FFFEFF"/>
<path d="M18.25 1.0143C18.25 0.426154 18.697 -0.0461327 19.248 0.00359847C21.07 0.168446 24.75 0.83444 24.75 3.52439C24.75 6.60762 24.75 22.0992 24.75 26.3038C24.75 26.892 25.198 27.3581 25.75 27.3581H27C27.552 27.3581 28 27.8348 28 28.423V48.9351C28 49.5232 27.552 50 27 50H16C15.448 50 15 49.5232 15 48.9351V28.423C15 27.8348 15.448 27.3581 16 27.3581H17.25C17.802 27.3581 18.25 26.8813 18.25 26.2932V1.0143Z" fill="#FFFEFF"/>
<path d="M34.038 2.08365C34.038 1.51002 34.431 1.03383 34.948 1.01454C36.746 0.947572 40.657 1.03538 41.538 2.9807C42.521 5.14997 42.248 19.2957 42.146 23.4383C42.13 24.0651 42.584 24.5765 43.15 24.5765H44C44.552 24.5765 45 25.0729 45 25.6852V50.8913C45 51.5036 44.552 52 44 52H31C30.448 52 30 51.5036 30 50.8913V25.5353C30 24.9848 30.364 24.5177 30.856 24.4382L33.183 24.062C33.674 23.9825 34.038 23.5154 34.038 22.9648V2.08365Z" fill="#FFFEFF"/>
<path d="M51.038 4.80656C51.038 1.19831 58.394 0.968032 61.054 1.00285C61.586 1.00972 62 1.49377 62 2.08382V50.8913C62 51.5036 61.552 52 61 52H48C47.448 52 47 51.5036 47 50.8913V26.6804C47 26.068 47.448 25.5717 48 25.5717H50.038C50.591 25.5717 51.038 25.0766 51.038 24.4643C51.038 20.7137 51.038 8.51737 51.038 4.80656Z" fill="#FFFEFF"/>
<path d="M17.3114 1.65807C17.3207 1.38019 17.6384 1.22726 17.8614 1.39337C17.9486 1.45837 18 1.56077 18 1.66956V25.9913C18 26.547 17.547 26.9961 16.9914 26.9913L15.4959 26.9784C15.2214 26.976 15 26.7528 15 26.4782C15 26.203 15.2222 25.9795 15.4974 25.9779L15.7625 25.9764C16.1744 25.974 16.5109 25.6467 16.5246 25.2351L17.3114 1.65807Z" fill="url(#paint0_radial_502_27)"/>
<path d="M32.469 2.48299C32.4864 2.21138 32.7118 2 32.984 2C33.269 2 33.5 2.23103 33.5 2.51602V22.6327C33.5 23.1304 33.1341 23.5523 32.6414 23.6227L30.6654 23.9049C30.3142 23.9551 30 23.6826 30 23.3278C30 23.1243 30.1062 22.9354 30.2801 22.8297L30.755 22.5409C31.0339 22.3713 31.2124 22.0762 31.2333 21.7505L32.469 2.48299Z" fill="url(#paint1_radial_502_27)"/>
<path d="M49.9931 5.49719C49.9972 5.34149 50.0989 5.20525 50.247 5.15701C50.4849 5.07954 50.7291 5.25683 50.7291 5.507L50.7291 24.3711C50.7291 24.9234 50.2814 25.3711 49.7291 25.3711H47.9892C47.719 25.3711 47.5 25.1521 47.5 24.8819C47.5 24.6575 47.6528 24.4618 47.8705 24.4074L48.7631 24.1842C49.1987 24.0753 49.5083 23.6895 49.5202 23.2407L49.9931 5.49719Z" fill="url(#paint2_radial_502_27)"/>
<defs>
<radialGradient id="paint0_radial_502_27" cx="0" cy="0" r="1" gradientUnits="userSpaceOnUse" gradientTransform="translate(17.6875 11.0709) rotate(90) scale(14.7532 3.4958)">
<stop stop-color="#D9D9D9"/>
<stop offset="0.810919" stop-color="#737373"/>
<stop offset="1" stop-color="#737373"/>
</radialGradient>
<radialGradient id="paint1_radial_502_27" cx="0" cy="0" r="1" gradientUnits="userSpaceOnUse" gradientTransform="translate(31.6111 11.8453) rotate(90) scale(11.8939 2.71895)">
<stop stop-color="#D9D9D9"/>
<stop offset="0.810919" stop-color="#737373"/>
<stop offset="1" stop-color="#737373"/>
</radialGradient>
<radialGradient id="paint2_radial_502_27" cx="0" cy="0" r="1" gradientUnits="userSpaceOnUse" gradientTransform="translate(48.6111 12.649) rotate(90) scale(11.6964 2.71895)">
<stop stop-color="#D9D9D9"/>
<stop offset="0.810919" stop-color="#737373"/>
<stop offset="1" stop-color="#737373"/>
</radialGradient>
</defs>
</svg>
