<?xml version="1.0" encoding="UTF-8"?>
<svg id="Capa_1" data-name="Capa 1" xmlns="http://www.w3.org/2000/svg" xmlns:xlink="http://www.w3.org/1999/xlink" viewBox="0 0 268.3 131.22">
  <defs>
    <style>
      .cls-1 {
        fill: url(#Degradado_sin_nombre_62-12);
      }

      .cls-2 {
        fill: url(#Degradado_sin_nombre_62-25);
      }

      .cls-3 {
        fill: url(#Degradado_sin_nombre_62-19);
      }

      .cls-4 {
        fill: url(#Degradado_sin_nombre_62-24);
      }

      .cls-5 {
        fill: url(#Degradado_sin_nombre_62-28);
      }

      .cls-6 {
        font-family: SegoeUIVariable-BoldText, 'Segoe UI Variable';
        font-size: 65.6px;
        font-variation-settings: 'wght' 700, 'opsz' 10;
        font-weight: 700;
      }

      .cls-7 {
        fill: url(#Degradado_sin_nombre_62-7);
      }

      .cls-8 {
        letter-spacing: 0em;
      }

      .cls-8, .cls-9, .cls-10 {
        fill: #3fc0ff;
      }

      .cls-11 {
        fill: url(#Degradado_sin_nombre_62-15);
      }

      .cls-12 {
        fill: url(#Degradado_sin_nombre_62-8);
      }

      .cls-13 {
        fill: url(#Degradado_sin_nombre_62-20);
      }

      .cls-14 {
        fill: url(#Degradado_sin_nombre_62-11);
      }

      .cls-15 {
        fill: url(#Degradado_sin_nombre_62-14);
      }

      .cls-16 {
        fill: url(#Degradado_sin_nombre_62-22);
      }

      .cls-17 {
        fill: url(#Degradado_sin_nombre_62-31);
      }

      .cls-18 {
        fill: url(#Degradado_sin_nombre_62-34);
      }

      .cls-19 {
        letter-spacing: 0em;
      }

      .cls-20 {
        fill: url(#Degradado_sin_nombre_62-30);
      }

      .cls-21 {
        fill: url(#Degradado_sin_nombre_62-26);
      }

      .cls-22 {
        fill: url(#Degradado_sin_nombre_62);
      }

      .cls-23 {
        letter-spacing: -.01em;
      }

      .cls-24 {
        fill: url(#Degradado_sin_nombre_62-3);
      }

      .cls-25 {
        fill: url(#Degradado_sin_nombre_62-27);
      }

      .cls-26 {
        fill: #f7f8f9;
      }

      .cls-27 {
        fill: url(#Degradado_sin_nombre_62-2);
      }

      .cls-28 {
        fill: url(#Degradado_sin_nombre_62-6);
      }

      .cls-29 {
        fill: url(#Degradado_sin_nombre_62-29);
      }

      .cls-30 {
        fill: #c7c7c7;
        font-family: MyriadPro-Regular, 'Myriad Pro';
        font-size: 16.41px;
      }

      .cls-10 {
        letter-spacing: -.01em;
      }

      .cls-31 {
        fill: url(#Degradado_sin_nombre_62-10);
      }

      .cls-32 {
        fill: url(#Degradado_sin_nombre_62-13);
      }

      .cls-33 {
        fill: url(#Degradado_sin_nombre_62-33);
      }

      .cls-34 {
        fill: url(#Degradado_sin_nombre_62-21);
      }

      .cls-35 {
        letter-spacing: 0em;
      }

      .cls-36 {
        fill: url(#Degradado_sin_nombre_62-5);
      }

      .cls-37 {
        fill: url(#Degradado_sin_nombre_62-16);
      }

      .cls-38 {
        fill: url(#Degradado_sin_nombre_62-9);
      }

      .cls-39 {
        fill: url(#Degradado_sin_nombre_62-23);
      }

      .cls-40 {
        fill: url(#Degradado_sin_nombre_62-32);
      }

      .cls-41 {
        fill: url(#Degradado_sin_nombre_62-4);
      }

      .cls-42 {
        fill: url(#Degradado_sin_nombre_62-17);
      }

      .cls-43 {
        fill: url(#Degradado_sin_nombre_62-18);
      }
    </style>
    <linearGradient id="Degradado_sin_nombre_62" data-name="Degradado sin nombre 62" x1=".03" y1="37.82" x2="9.84" y2="37.82" gradientUnits="userSpaceOnUse">
      <stop offset=".03" stop-color="#002455"/>
      <stop offset=".27" stop-color="#0006aa"/>
      <stop offset=".28" stop-color="#0605a8"/>
      <stop offset=".36" stop-color="#24039f"/>
      <stop offset=".43" stop-color="#3b0199"/>
      <stop offset=".5" stop-color="#480095"/>
      <stop offset=".56" stop-color="#4d0094"/>
      <stop offset=".61" stop-color="#4a26a9"/>
      <stop offset=".67" stop-color="#4654c3"/>
      <stop offset=".74" stop-color="#447bd8"/>
      <stop offset=".8" stop-color="#419ae9"/>
      <stop offset=".87" stop-color="#40aff5"/>
      <stop offset=".93" stop-color="#3fbcfc"/>
      <stop offset=".98" stop-color="#3fc1ff"/>
    </linearGradient>
    <linearGradient id="Degradado_sin_nombre_62-2" data-name="Degradado sin nombre 62" x1="25.69" y1="15.65" x2="38.38" y2="15.65" xlink:href="#Degradado_sin_nombre_62"/>
    <linearGradient id="Degradado_sin_nombre_62-3" data-name="Degradado sin nombre 62" x1="20.19" y1="31.83" x2="44.09" y2="31.83" xlink:href="#Degradado_sin_nombre_62"/>
    <linearGradient id="Degradado_sin_nombre_62-4" data-name="Degradado sin nombre 62" x1="25.7" y1="28.33" x2="47" y2="28.33" xlink:href="#Degradado_sin_nombre_62"/>
    <linearGradient id="Degradado_sin_nombre_62-5" data-name="Degradado sin nombre 62" x1="16.7" y1="21.76" x2="24.92" y2="21.76" xlink:href="#Degradado_sin_nombre_62"/>
    <linearGradient id="Degradado_sin_nombre_62-6" data-name="Degradado sin nombre 62" x1="21.93" y1="31.84" x2="31.41" y2="31.84" xlink:href="#Degradado_sin_nombre_62"/>
    <linearGradient id="Degradado_sin_nombre_62-7" data-name="Degradado sin nombre 62" x1="33.16" y1="34.76" x2="39.54" y2="34.76" xlink:href="#Degradado_sin_nombre_62"/>
    <linearGradient id="Degradado_sin_nombre_62-8" data-name="Degradado sin nombre 62" x1="39.61" y1="31.25" x2="42.03" y2="31.25" xlink:href="#Degradado_sin_nombre_62"/>
    <linearGradient id="Degradado_sin_nombre_62-9" data-name="Degradado sin nombre 62" x1="20.19" y1="30.49" x2="21" y2="30.49" xlink:href="#Degradado_sin_nombre_62"/>
    <linearGradient id="Degradado_sin_nombre_62-10" data-name="Degradado sin nombre 62" x1="41.96" y1="28.22" x2="42.23" y2="28.22" xlink:href="#Degradado_sin_nombre_62"/>
    <linearGradient id="Degradado_sin_nombre_62-11" data-name="Degradado sin nombre 62" x1="22.07" y1="33.59" x2="23.15" y2="33.59" xlink:href="#Degradado_sin_nombre_62"/>
    <linearGradient id="Degradado_sin_nombre_62-12" data-name="Degradado sin nombre 62" x1="23.69" y1="35" x2="24.56" y2="35" xlink:href="#Degradado_sin_nombre_62"/>
    <linearGradient id="Degradado_sin_nombre_62-13" data-name="Degradado sin nombre 62" x1="21.74" y1="32.85" x2="22.01" y2="32.85" xlink:href="#Degradado_sin_nombre_62"/>
    <linearGradient id="Degradado_sin_nombre_62-14" data-name="Degradado sin nombre 62" x1="21.47" y1="32.42" x2="21.67" y2="32.42" xlink:href="#Degradado_sin_nombre_62"/>
    <linearGradient id="Degradado_sin_nombre_62-15" data-name="Degradado sin nombre 62" x1="25.03" y1="35.86" x2="25.17" y2="35.86" xlink:href="#Degradado_sin_nombre_62"/>
    <linearGradient id="Degradado_sin_nombre_62-16" data-name="Degradado sin nombre 62" x1="25.23" y1="36.04" x2="25.37" y2="36.04" xlink:href="#Degradado_sin_nombre_62"/>
    <linearGradient id="Degradado_sin_nombre_62-17" data-name="Degradado sin nombre 62" x1="32.55" y1="36.11" x2="32.69" y2="36.11" xlink:href="#Degradado_sin_nombre_62"/>
    <linearGradient id="Degradado_sin_nombre_62-18" data-name="Degradado sin nombre 62" x1="25.5" y1="36.29" x2="25.64" y2="36.29" xlink:href="#Degradado_sin_nombre_62"/>
    <linearGradient id="Degradado_sin_nombre_62-19" data-name="Degradado sin nombre 62" x1="21.27" y1="32.11" x2="21.41" y2="32.11" xlink:href="#Degradado_sin_nombre_62"/>
    <linearGradient id="Degradado_sin_nombre_62-20" data-name="Degradado sin nombre 62" x1="21.07" y1="31.8" x2="21.21" y2="31.8" xlink:href="#Degradado_sin_nombre_62"/>
    <linearGradient id="Degradado_sin_nombre_62-21" data-name="Degradado sin nombre 62" x1="23.48" y1="34.51" x2="23.62" y2="34.51" xlink:href="#Degradado_sin_nombre_62"/>
    <linearGradient id="Degradado_sin_nombre_62-22" data-name="Degradado sin nombre 62" x1="24.82" y1="35.67" x2="24.97" y2="35.67" xlink:href="#Degradado_sin_nombre_62"/>
    <linearGradient id="Degradado_sin_nombre_62-23" data-name="Degradado sin nombre 62" x1="23.28" y1="34.32" x2="23.42" y2="34.32" xlink:href="#Degradado_sin_nombre_62"/>
    <linearGradient id="Degradado_sin_nombre_62-24" data-name="Degradado sin nombre 62" x1="26.06" y1="25.1" x2="37.99" y2="25.1" xlink:href="#Degradado_sin_nombre_62"/>
    <linearGradient id="Degradado_sin_nombre_62-25" data-name="Degradado sin nombre 62" x1="17.39" y1="73.62" x2="47.65" y2="73.62" xlink:href="#Degradado_sin_nombre_62"/>
    <linearGradient id="Degradado_sin_nombre_62-26" data-name="Degradado sin nombre 62" x1="26.33" y1="86.31" x2="38.45" y2="86.31" xlink:href="#Degradado_sin_nombre_62"/>
    <linearGradient id="Degradado_sin_nombre_62-27" data-name="Degradado sin nombre 62" x1="17.61" y1="73.66" x2="47.34" y2="73.66" xlink:href="#Degradado_sin_nombre_62"/>
    <linearGradient id="Degradado_sin_nombre_62-28" data-name="Degradado sin nombre 62" x1="26.56" y1="86.35" x2="38.22" y2="86.35" xlink:href="#Degradado_sin_nombre_62"/>
    <linearGradient id="Degradado_sin_nombre_62-29" data-name="Degradado sin nombre 62" x1="0" y1="51.3" x2="63.42" y2="51.3" xlink:href="#Degradado_sin_nombre_62"/>
    <linearGradient id="Degradado_sin_nombre_62-30" data-name="Degradado sin nombre 62" y1="51.26" x2="63.61" y2="51.26" xlink:href="#Degradado_sin_nombre_62"/>
    <linearGradient id="Degradado_sin_nombre_62-31" data-name="Degradado sin nombre 62" x1="41.28" y1="51.07" x2="52.53" y2="51.07" xlink:href="#Degradado_sin_nombre_62"/>
    <linearGradient id="Degradado_sin_nombre_62-32" data-name="Degradado sin nombre 62" x1="11.3" y1="51.25" x2="22.65" y2="51.25" xlink:href="#Degradado_sin_nombre_62"/>
    <linearGradient id="Degradado_sin_nombre_62-33" data-name="Degradado sin nombre 62" x1="41.82" y1="51.02" x2="52.21" y2="51.02" xlink:href="#Degradado_sin_nombre_62"/>
    <linearGradient id="Degradado_sin_nombre_62-34" data-name="Degradado sin nombre 62" x1="11.48" y1="51.28" x2="22.47" y2="51.28" xlink:href="#Degradado_sin_nombre_62"/>
  </defs>
  <g>
    <g>
      <path class="cls-22" d="M9.84,32.67c-.04.26-.65.22-.88.27-4.38,1.03-8.08,4.86-8.66,8.97-.04.3.12.94-.28,1.07.05-4.05,3.17-8.25,7.39-9.73.55-.19,1.87-.58,2.42-.58Z"/>
      <g>
        <path class="cls-27" d="M35.62,1.32c1.91,1.53,2.44,4.7,1.16,6.69-.84,1.3-2.59,2.07-2.74,3.7-.13,1.37-.07,3.01-.13,4.42-.12,2.5-.51,6.67.73,8.91,1.15,2.07,4.88,2.49,3.42,5.62-.67,1.43-3.37.06-4.42-.29-.32-.11-1.52-.47-1.78-.46-.2,0-.32.13-.48.17-.13.03-.28,0-.43.04-1.16.3-3.11,1.39-4.25,1.12-.33-.08-.84-.59-.91-.89-.17-.71-.11-1.66.29-2.29.65-1.02,2.07-1.66,2.89-2.58s1.06-2.17,1.18-3.34c.23-2.27-.08-4.44-.2-6.69-.06-1.09,0-2.24-.07-3.32-.13-1.92-1.6-2.44-2.73-3.77-.65-.77-1.08-1.7-1.17-2.67-.45-4.76,5.8-7.46,9.65-4.36ZM33.36,19.28c-.15-.05-.32.13-.43.11-.08-.01-.13-.15-.28-.17-.19-.03-1.41-.03-1.61,0s-.29.27-.49.32c-.07,1.13.05,2.31-.28,3.4-.03.29.05.64-.07.92-.14.33-.13,0-.16.54-.04.72-.93,1.27-1.39,1.73-.71.7-1.74,1.36-2.29,2.21-.28.44-.38,1.28-.27,1.78.03.12.12.15.16.22s.02.17.06.22c.13.18.65.39.89.4.08,0,.8-.16.93-.2.91-.24,1.74-.68,2.59-.95,1.93-.6,3.05.44,4.76.94.37.11.93.14,1.33.25.92-.25,1.31-1.19,1.12-2-.38-1.59-2.7-2.28-3.58-3.67-.31-.49-.65-1.67-.73-2.22s0-1.21-.07-1.72c-.02-.11-.19-.46-.21-.73-.03-.46.02-.92,0-1.38Z"/>
        <path class="cls-24" d="M42.16,26.96c.2.03.13-.09.13-.21.03-.8.26-1.91.14-2.71-.09-.59-.21-1.08-.14-1.72.09-.81.55-.16.77-.15.14,0,.29-.19.53-.11.03.01.44.48.45.51.1.51-.01,1.51,0,2.09.05,2.58.16,5.2-1.34,7.47-.37.56-.84,1.01-1.35,1.49-2.55,2.42-5.55,4.5-7.86,7.19-.32.17-.8.8-1.08.92-.32.13-.92-.51-1.25-.61-1.41-1.37-2.94-2.61-4.45-3.88-.42-.35-.44-.54-1.01-.82-.02-.01-.04-.05-.07-.06.02-.13,0-.14-.13-.12-.06-.07-.06-.07-.13-.12.02-.13,0-.14-.13-.12-.03-.03-.04-.04-.07-.06.02-.13,0-.14-.13-.12-.03-.03-.04-.04-.07-.06.02-.13,0-.14-.13-.12-.1-.11-.19-.16-.27-.25-.32-.32-.49-.49-.87-.74-.01,0-.03-.04-.07-.06.02-.13,0-.14-.13-.12-.03-.03-.04-.04-.07-.06.02-.13,0-.14-.13-.12-.06-.07-.11-.09-.13-.12-.32-.37-.67-.78-1.08-1.11-.02-.02-.04-.04-.07-.06,0-.15-.11-.24-.27-.25-.02-.05-.04-.12-.07-.18-.05-.11-.04-.2-.2-.25-.01-.04-.03-.1-.07-.12.02-.11-.01-.14-.13-.12-.02-.06.01-.13-.07-.18.02-.11-.01-.14-.13-.12-.02-.06,0-.13-.07-.18l-.81-2.15c0-.12,0-.25,0-.37l.08-6.13c.44-.38,1.22-.57,1.73-.21.04,1.51-.05,3.03,0,4.54,0,.11.07.2.07.21,0,.06,0,.12,0,.18-.2-.03-.13.09-.13.21-.06,1.5.11,2.41.98,3.65,1.73,2.46,5.26,4.63,8.49,4.55.38,0,.77.02,1.14,0-.04.18.17.19.13,0,.16,0,.32.01.47,0,.18.1.57.08.77.06,2.26-.29,4.07-1.28,5.61-2.7.02-.02.05-.04.07-.06.01-.01.11,0,.17-.06,1.06-1.02,2.26-2.68,2.25-4.12,0-.08,0-.16,0-.25.2-.43.21-.86.2-1.32,0-.1-.07-.09-.07-.09,0-.18,0-.37,0-.55Z"/>
        <path class="cls-41" d="M42.16,26.96c-.01-1.16.29-4.13-.37-5.03s-2.13-1.6-2.52-2.61c-.74-1.94.84-4.46,3.13-4.64,2.96-.23,5.22,1.83,4.45,4.55-.25.86-1.02,1.51-1.73,2.11-.32.27-.69.32-.79.81-.16,3.03.42,6.42-.97,9.25-1.1,2.25-3.68,3.87-5.57,5.54-1.59,1.41-3.01,2.83-4.47,4.33-.26.26-.75.77-1.15.74-.2-.02-1.1-.72-1.31-.89-1.38-1.15-2.71-2.41-4.07-3.59-.38-.33-.84-.71-1.11-1.11.58.28.59.47,1.01.82,1.51,1.27,3.04,2.52,4.45,3.88.33.1.93.74,1.25.61.28-.11.76-.75,1.08-.92,2.31-2.69,5.31-4.76,7.86-7.19.51-.48.98-.93,1.35-1.49,1.5-2.27,1.39-4.89,1.34-7.47-.01-.58.1-1.58,0-2.09,0-.03-.42-.5-.45-.51-.23-.07-.38.12-.53.11-.22,0-.68-.65-.77.15-.07.64.05,1.13.14,1.72.12.79-.11,1.9-.14,2.71,0,.12.07.25-.13.21Z"/>
        <path class="cls-36" d="M22.07,27.45s-.07-.1-.07-.21c-.05-1.51.04-3.03,0-4.54-.51-.35-1.3-.17-1.73.21l-.08,6.13c-.21.03-.13-.09-.13-.21-.12-1.8.2-3.57.07-5.35-.12-1.63-.72-1.78-1.89-2.76-.11-.09-.16-.22-.26-.31-.56-.48-.76-.49-1.04-1.26-1.38-3.68,3.7-6.18,6.72-3.68,1.11.91,1.57,2.77,1.05,4.03-.4.97-2.01,1.48-2.37,2.5-.42,1.16-.17,3.77-.19,5.11,0,.1.04.27-.07.34Z"/>
        <path class="cls-28" d="M22.07,27.63c.02.41-.03.85,0,1.26.19,2.58,3.42,5.3,5.87,6.3,1.13.46,2.25.67,3.47.85-3.23.08-6.76-2.09-8.49-4.55-.87-1.24-1.05-2.15-.98-3.65,0-.12-.07-.25.13-.21Z"/>
        <path class="cls-7" d="M39.54,33.4c-1.55,1.42-3.36,2.41-5.61,2.7-.2.03-.58.04-.77-.06,1.95-.15,4.02-.92,5.54-2.03.28-.2.47-.55.84-.61Z"/>
        <path class="cls-12" d="M42.03,29.17c.01,1.44-1.19,3.09-2.25,4.12-.06.05-.16.05-.17.06.16-.38.54-.63.79-.96.77-.99,1.14-1.85,1.47-3.02.03-.11-.04-.23.15-.19Z"/>
        <path class="cls-38" d="M21,31.56c-.17.03-.14-.08-.18-.17-.31-.62-.59-1.32-.62-1.98l.81,2.15Z"/>
        <path class="cls-31" d="M42.03,28.92s-.07-.13-.07-.27c0-.33.14-.81.2-1.14,0,0,.06,0,.07.09.01.46,0,.9-.2,1.32Z"/>
        <path class="cls-14" d="M23.15,34.14c-.3-.08-.47-.38-.71-.55l-.37-.56c.4.33.75.74,1.08,1.11Z"/>
        <path class="cls-1" d="M24.56,35.37c-.34-.05-.72-.47-.87-.74.39.24.55.42.87.74Z"/>
        <path class="cls-32" d="M22.01,32.97c-.13-.1-.13.03-.27-.25.16,0,.26.1.27.25Z"/>
        <path class="cls-15" d="M21.67,32.54c-.24,0-.16-.14-.2-.25.16.05.15.14.2.25Z"/>
        <path class="cls-11" d="M25.03,35.8c.14-.01.15,0,.13.12-.01,0-.09.02-.12,0s0-.1-.01-.11Z"/>
        <path class="cls-37" d="M25.23,35.98c.14-.01.15,0,.13.12-.01,0-.09.02-.12,0-.03-.03,0-.1-.01-.11Z"/>
        <path class="cls-42" d="M32.69,36.04c.04.19-.18.18-.13,0,.04,0,.09,0,.13,0Z"/>
        <path class="cls-43" d="M25.5,36.23c.14-.01.15,0,.13.12-.21-.11-.06-.03-.13-.12Z"/>
        <path class="cls-3" d="M21.27,32.05c.12-.02.16.01.13.12-.11-.07-.07.1-.13-.12Z"/>
        <path class="cls-13" d="M21.07,31.75c.12-.02.16.01.13.12-.1-.06-.07.1-.13-.12Z"/>
        <path class="cls-34" d="M23.48,34.45c.14-.01.15,0,.13.12-.21-.11-.06-.04-.13-.12Z"/>
        <path class="cls-16" d="M24.83,35.61c.14-.01.15,0,.13.12-.01,0-.09.02-.12,0-.03-.03,0-.1-.01-.11Z"/>
        <path class="cls-39" d="M23.28,34.26c.14-.01.15,0,.13.12-.01,0-.09.02-.12,0-.03-.03,0-.1-.01-.11Z"/>
        <path class="cls-4" d="M33.36,19.28c.02.46-.03.92,0,1.38.02.27.19.62.21.73.07.51-.02,1.17.07,1.72s.43,1.73.73,2.22c.88,1.39,3.19,2.08,3.58,3.67.19.81-.2,1.75-1.12,2-.39-.12-.96-.15-1.33-.25-1.7-.49-2.83-1.53-4.76-.94-.86.27-1.69.71-2.59.95-.13.03-.85.2-.93.2-.24,0-.76-.22-.89-.4-.04-.05-.02-.15-.06-.22s-.14-.1-.16-.22c-.11-.5-.02-1.34.27-1.78.55-.84,1.57-1.51,2.29-2.21.46-.46,1.35-1.01,1.39-1.73.03-.53.02-.21.16-.54.12-.28.04-.63.07-.92.33-1.09.21-2.27.28-3.4.2-.05.29-.28.49-.32s1.42-.04,1.61,0c.15.03.2.16.28.17.1.02.28-.16.43-.11Z"/>
      </g>
    </g>
    <g>
      <path class="cls-2" d="M38.6,65.45c1.62,1.02,4.58,3.76,5.29,5.45,1,2.35.48,4.55.69,6.99.13,1.61,1.72,1.8,2.48,2.96,2.26,3.47-2.42,7.59-5.97,4.84-.1-.08-.56-.48-.61-.55-.08-.13-.04-.27-.1-.34-.04-.05-.17-.04-.24-.1-.53-.46-.52-2.05-.38-2.67.45-2.05,2.69-1.99,2.87-4.68.16-2.38-.17-5.39-1.65-7.39-1.09-1.48-3.69-3.22-5.55-3.71-1.54-.4-4.55-.48-6.05.03-2.38.81-5.02,2.93-6.08,5.07-.91,1.84-1.14,5.18-.75,7.16s2.8,2.3,3.02,4.55c.42,4.29-5.85,6.01-7.78,2.08-.32-.65-.54-2.02-.27-2.68.02-.06.34-.57.41-.68.54-.82,1.25-1.27,1.9-1.95.4-.42.47-1.48.5-2.06.11-1.93-.04-3.64.5-5.56.99-3.46,3.81-5.05,6.35-7.46,1.22-1.16,2.37-2.39,3.56-3.56.26-.25,1.07-1.23,1.38-1.26.41-.04,1.07.76,1.37,1.01,1.67,1.38,3.33,2.79,4.96,4.22.04.06,0,.15.02.16,0,0,.13.12.13.12-.04-.04-.1-.09-.13-.12-.14-.12-.5-.31-.67-.46-.66-.58-5.18-4.64-5.6-4.62-.33.02-.95.64-1.19.88-1.75,1.67-3.36,3.61-5.21,5.19-2.11,1.81-3.8,3.05-4.66,5.75-.74,2.3-.49,4.66-.68,6.99-.04.55-.11.72-.55,1.09-1.09.92-2,1.58-2.27,3.02-.21,1.12.7,2.53,1.64,3.22,1.83,1.34,4.46.6,5.57-1.17.41-.66.62-1.91.44-2.65-.01-.05-.11-.04-.15-.12-.06-.12-.06-.39-.07-.4-.48-.7-1.11-1.11-1.7-1.69-.75-.74-.76-.97-.98-1.91-.2-.84-.15-1.89-.14-2.81.03-2.6.38-4.33,2.24-6.39,1.2-1.33,4.24-3.38,6.14-3.53,1.48-.12,3.98-.04,5.36.45,2.53.9,5.85,3.59,6.43,6.1.4,1.73.49,3.9.28,5.65-.03.25.03.53-.02.78-.04.21-.6,1.07-.76,1.21-.1.08-.27.09-.4.18-.56.41-1.22,1.2-1.42,1.83-.08.25-.25,1.1-.21,1.32.55,2.58,3.42,4.05,5.93,2.37,1.64-1.09,2.02-3.35.8-4.84-.54-.66-1.68-1.21-2.06-1.86-.62-1.08-.06-3.05-.12-4.25-.01-.29-.08-1.09-.13-1.35-.03-.14-.17-.17-.2-.31-.04-.2.02-.49,0-.73-.29-2.44-3.63-5.16-5.5-6.79Z"/>
      <g>
        <path class="cls-21" d="M34.88,77.15c-.73,1.27-.5,2.17-.58,3.55-.15,2.81-.19,5.19.2,7.98.11.8-.06,1.93.2,2.64.23.62,1.3,1.27,1.82,1.71,2.63,2.24,2.03,6.02-.64,8.01-2.02,1.5-4.14,1.36-6.3.17-2.55-1.4-3.36-4.41-1.95-6.79.78-1.32,2.63-2.05,3.1-3.55,0-3.28.29-6.79.09-10.06-.06-1.05-.3-2.73-.63-3.72-.78-2.36-4.65-2.45-3.71-5.52.66-2.16,2.81-.39,4.1.06.78.28,1.59.3,2.42.25,1.52-.09,2.85-1.44,4.1-1.42,1.37.02,1.59,2,1.14,2.89s-1.81,1.58-2.52,2.43c-.33.4-.58.91-.83,1.36ZM37.51,70.81c-.09-.05-.86-.03-1,.01-.49.14-1,.51-1.44.71-1.43.68-2.81.84-4.39.45-.57-.14-1.42-.72-2.06-.94-.14-.05-.58-.21-.69-.23-.44-.1-.75.17-.99.49-.15.2-.33.72-.37.95-.15.84.78,1.85,1.44,2.36.82.63,2.13,1.15,2.42,2.21.64,2.3.55,4.78.57,7.15.02,2.07.02,4.14-.07,6.2-.02.33.06.64-.02,1.03-.15.75-.76,1.09-1.3,1.6-.2.2-.31.27-.5.44-1.23,1.1-2.14,2.6-1.87,4.23.39,2.44,1.95,3.45,4.3,4.18.77.24.93.37,1.81.19,2.02-.42,3.82-1.96,4.39-3.79.04-.12.16-.48.16-.51.23-1.16-.18-2.68-.89-3.6-.45-.59-2.42-1.83-2.58-2.31-.03-.1.04-.21.01-.31-.26-1.05,0-2.01-.43-2.99.09-3.37-.19-6.79.22-10.12.29-2.39,2.91-3.35,3.79-5.19.03-.06.12-.1.15-.17.05-.16.03-.71-.01-.88-.03-.13-.34-.81-.41-.91-.01-.01-.23-.23-.25-.24Z"/>
        <path class="cls-25" d="M38.6,65.45c1.87,1.63,5.22,4.36,5.5,6.79.03.23-.03.52,0,.73.03.14.17.17.2.31.05.26.12,1.06.13,1.35.06,1.2-.5,3.17.12,4.25.38.66,1.52,1.2,2.06,1.86,1.21,1.49.83,3.75-.8,4.84-2.51,1.68-5.38.21-5.93-2.37-.05-.22.13-1.07.21-1.32.2-.63.87-1.42,1.42-1.83.13-.1.31-.1.4-.18.16-.14.72-1,.76-1.21.05-.25-.01-.53.02-.78.21-1.75.12-3.92-.28-5.65-.58-2.51-3.9-5.2-6.43-6.1-1.38-.49-3.88-.57-5.36-.45-1.9.15-4.94,2.2-6.14,3.53-1.86,2.06-2.21,3.79-2.24,6.39-.01.92-.05,1.97.14,2.81.22.94.24,1.17.98,1.91.59.58,1.22,1,1.7,1.69.01.02,0,.28.07.4.04.07.14.07.15.12.18.74-.03,1.99-.44,2.65-1.11,1.77-3.74,2.51-5.57,1.17-.94-.69-1.85-2.09-1.64-3.22.27-1.44,1.18-2.1,2.27-3.02.44-.37.5-.54.55-1.09.18-2.34-.06-4.69.68-6.99.86-2.69,2.56-3.94,4.66-5.75,1.84-1.58,3.46-3.52,5.21-5.19.24-.23.86-.86,1.19-.88.42-.02,4.93,4.05,5.6,4.62.18.15.54.34.67.46.03.03.09.09.13.12Z"/>
        <path class="cls-5" d="M37.51,70.81s.24.22.25.24c.08.1.38.78.41.91.04.17.07.72.01.88-.02.07-.12.11-.15.17-.88,1.84-3.5,2.8-3.79,5.19-.41,3.33-.12,6.75-.22,10.12.43.98.17,1.93.43,2.99.03.1-.04.22-.01.31.16.49,2.13,1.73,2.58,2.31.71.92,1.12,2.44.89,3.6,0,.03-.12.39-.16.51-.57,1.82-2.37,3.37-4.39,3.79-.88.18-1.05.05-1.81-.19-2.35-.73-3.91-1.74-4.3-4.18-.26-1.64.64-3.13,1.87-4.23.19-.17.29-.24.5-.44.54-.51,1.15-.85,1.3-1.6.08-.39,0-.7.02-1.03.1-2.06.09-4.13.07-6.2-.02-2.37.07-4.86-.57-7.15-.29-1.06-1.6-1.57-2.42-2.21-.66-.51-1.6-1.52-1.44-2.36.04-.23.22-.75.37-.95.24-.32.54-.58.99-.49.11.02.55.18.69.23.64.22,1.48.8,2.06.94,1.58.39,2.96.23,4.39-.45.43-.21.94-.58,1.44-.71.14-.04.91-.06,1-.01Z"/>
      </g>
      <g>
        <path class="cls-29" d="M9.98,32.67c3.21.02,5.63,0,8.42,1.73,2.1,1.3,4.02,2.89,5.9,4.43,1.53,1.26,3.57,2.78,4.87,4.21.14.15.24.43.37.59.23.27.42.12.34.62-.04.25-.2.26-.34.43-.9,1.12-3.06,3.34-4.36,4-.13.07-.01.19-.37.13-.12-.02-.61-.25-.73-.31-.31-.17-.85-.58-1.13-.81-2.85-2.24-5.57-5.65-8.68-7.48-1.28-.75-2.95-.94-4.37-.39s-2.05,1.84-2.27,3.14c.08,4.1-.14,8.26.07,12.33,0,.15.13.29.13.49.06,1.44-.29,4.28.26,5.47,1.02,2.23,3.89,2.37,6.07,1.54,1.58-.6,2.75-2.1,3.91-3.15,6.74-6.15,13.19-12.84,19.96-19.06,2.21-2.03,4.63-4.38,7.19-6.01,5.16-3.29,12.41-2.27,15.9,2.6,1.23,1.72,1.6,3.15,1.94,5.16.1.6.04.47.27,1.04.16.38,0,.68,0,1.05-.09,4.79.24,9.74,0,14.49-.09,1.79-.63,3.72-1.63,5.27-2.9,4.51-8.25,6.15-13.73,4.46-4.91-1.52-8.18-6.02-12.04-8.99-.18-.22-.46-.4-.66-.6-.11-.11-.8-.86-.82-.91-.04-.12.1-.46.18-.58.56-.85,2.24-2.52,3.05-3.23.26-.22.95-.74,1.24-.89.19-.1.42-.11.63-.1,2.4,1.49,4.22,3.63,6.31,5.44,1.28,1.11,2.87,2.4,4.42,3.18,1.83.92,4.43.49,5.42-1.29.7-1.26.49-3.46.55-4.9.1-2.68.18-5.29,0-7.98-.11-1.67,0-3.3-.28-4.97-.43-2.59-2.2-3.75-5.05-3.28-1.68.28-3.39,1.97-4.61,3.03-8.18,7.14-15.27,15.36-23.68,22.28-3.21,2.64-6.29,5.08-10.9,5.06-.62,0-1.98-.13-2.55-.31-.65-.2-1.43-.33-2.11-.59-4.26-1.61-6.31-5.43-6.72-9.45-.08-.77-.03-1.56-.13-2.33-.02-.14-.02-.21-.2-.21C0,52.36-.02,47.66.03,42.98c.4-.12.23-.76.28-1.07.58-4.12,4.27-7.95,8.66-8.97.23-.05.84-.02.88-.27.04,0,.09,0,.13,0Z"/>
        <path class="cls-20" d="M9.98,32.67c.24-.07.59-.1.84-.12,4.89-.37,7.54,1.48,11.08,4.11,2.59,1.93,5.32,4.1,7.56,6.35.1.11.13.26.27.37.11.1.27.12.37.21.41.4.06.92-.23,1.25-.96,1.09-2.67,2.7-3.83,3.62-.25.2-.91.73-1.23.69-.35-.04-1.61-.98-1.93-1.25-2.13-1.74-4.05-3.82-6.18-5.59-1.9-1.57-4.18-3.54-6.94-2.16-2.58,1.29-1.98,5.55-1.93,7.81.07,3.45,0,6.93.13,10.38.07,1.96.11,3.91,2.54,4.55,3.65.96,6.04-2.15,8.21-4.19,7.04-6.62,13.78-13.54,20.96-20.02,2.36-2.13,5.51-5.02,8.76-5.87,6.78-1.76,13.41,1.83,14.68,8.16.1.49.09,1.26.23,1.69.05.15.26.11.26.25v17.19c-.27.22-.16.48-.24.77-1.48,5.73-6.59,9.4-13.17,8.46-5.4-.77-8.19-4.07-11.82-7.34-1.36-1.22-2.78-2.39-4.11-3.64-.31-.39-.13-.57.14-.92.89-1.15,2.9-3.18,4.1-4.05.55-.4.8-.6,1.41-.18,2.6,1.77,4.82,4.44,7.29,6.41,1.99,1.59,4.93,3.8,7.49,1.81,1.33-1.04,1.38-2.82,1.45-4.32.11-2.53.04-5.15,0-7.67-.04-2.05,0-4.1-.27-6.14-.25-1.86-1.12-3.5-3.39-3.66-2.52-.18-4.12,1.44-5.78,2.88-8.3,7.23-15.47,15.56-24.02,22.56-3.93,3.22-7.29,5.75-13,4.81-4.54-.75-7.68-3.39-8.93-7.43-.56-1.82-.71-3.59-.72-5.45.19,0,.19.07.2.21.1.77.05,1.56.13,2.33.42,4.02,2.46,7.84,6.72,9.45.69.26,1.46.38,2.11.59.57.18,1.93.31,2.55.31,4.6.03,7.69-2.42,10.9-5.06,8.42-6.93,15.5-15.14,23.68-22.28,1.22-1.06,2.93-2.75,4.61-3.03,2.85-.48,4.62.69,5.05,3.28.27,1.66.17,3.3.28,4.97.18,2.69.1,5.3,0,7.98-.06,1.44.15,3.64-.55,4.9-.99,1.78-3.59,2.22-5.42,1.29-1.55-.78-3.13-2.07-4.42-3.18-2.1-1.81-3.91-3.95-6.31-5.44-.21-.02-.44,0-.63.1-.29.15-.98.67-1.24.89-.82.7-2.49,2.38-3.05,3.23-.08.12-.23.45-.18.58.02.06.71.8.82.91.2.2.47.38.66.6,3.86,2.96,7.13,7.47,12.04,8.99,5.48,1.69,10.83.05,13.73-4.46,1-1.55,1.54-3.48,1.63-5.27.23-4.75-.09-9.71,0-14.49,0-.36.17-.66,0-1.05-.23-.57-.17-.44-.27-1.04-.34-2.02-.71-3.45-1.94-5.16-3.49-4.87-10.75-5.89-15.9-2.6-2.56,1.63-4.98,3.98-7.19,6.01-6.77,6.22-13.22,12.91-19.96,19.06-1.15,1.05-2.33,2.55-3.91,3.15-2.18.83-5.05.69-6.07-1.54-.55-1.19-.2-4.04-.26-5.47,0-.2-.13-.35-.13-.49-.21-4.08,0-8.23-.07-12.33.22-1.31.84-2.6,2.27-3.14s3.1-.36,4.37.39c3.1,1.83,5.83,5.24,8.68,7.48.29.23.82.64,1.13.81.12.07.62.29.73.31.35.06.23-.06.37-.13,1.29-.66,3.46-2.88,4.36-4,.14-.17.3-.18.34-.43.08-.5-.11-.35-.34-.62-.13-.15-.23-.44-.37-.59-1.29-1.43-3.33-2.95-4.87-4.21-1.88-1.54-3.8-3.13-5.9-4.43-2.79-1.72-5.21-1.71-8.42-1.73Z"/>
        <path class="cls-17" d="M42.27,52.27c-.16-.16-.9-.78-.95-.88-.07-.15-.06-.33.03-.46.61-.61,1.2-1.23,1.82-1.84.68-.67,1.42-1.32,2.12-1.99.75-.72,1.64-1.81,2.45-2.43.38-.29,1.02-.37,1.5-.26s1.4,1.07,1.69,1.46c1.73,2.36,2.12,6.47.86,9.06-.44.89-1.66,2.86-2.87,2.85-.67,0-1.91-1.05-2.42-1.48-1.47-1.24-2.87-2.68-4.22-4.03ZM49.73,45.09c-.06-.04-.71-.38-.75-.39-.31-.06-.7.05-.94.24-1.45,1.15-2.72,2.57-4.04,3.86-.7.68-1.32,1.08-1.87,1.92-.14.22-.43.31-.28.6.04.09.23.18.3.28.36.48.54.58.92.97,1.36,1.41,3.18,3.43,4.92,4.37.25.14.44.36.78.4.49.06,1.03-.29,1.35-.61,1.69-1.68,2.21-4.07,2.05-6.29-.11-1.49-1.09-4.41-2.44-5.35Z"/>
        <path class="cls-40" d="M20.42,48.73c.58.51,1.39,1.12,1.85,1.72.42.56.55.8.13,1.39-.99,1.42-3.75,3.35-5.16,4.67-.77.71-1.05,1.5-2.32,1.39-1.86-.16-3.3-3.67-3.52-5.13-.37-2.42.36-5.96,2.38-7.71,1.57-1.35,2.86.55,3.93,1.45.9.75,1.83,1.45,2.71,2.22ZM18.81,47.62c-.38-.32-.79-.61-1.17-.93-1.19-.98-2.41-2.88-3.99-1.19-2.29,2.43-2.71,6.23-1.5,9.15.37.89,1.53,2.76,2.58,3.04.11.03.88.03.94,0,1.04-.89,1.98-1.85,3-2.75,1.14-1,2.98-2.21,3.64-3.49.03-.06.12-.1.16-.17-.19-.28-.27-.57-.47-.85-.68-.95-2.26-2.03-3.2-2.82Z"/>
        <path class="cls-33" d="M49.73,45.09c1.35.94,2.33,3.86,2.44,5.35.16,2.22-.36,4.61-2.05,6.29-.32.32-.86.67-1.35.61-.34-.04-.52-.26-.78-.4-1.74-.95-3.56-2.96-4.92-4.37-.38-.39-.56-.49-.92-.97-.07-.1-.26-.19-.3-.28-.15-.29.14-.39.28-.6.55-.84,1.17-1.23,1.87-1.92,1.32-1.29,2.58-2.71,4.04-3.86.24-.19.63-.3.94-.24.04,0,.68.35.75.39Z"/>
        <path class="cls-18" d="M18.81,47.62c.94.79,2.52,1.87,3.2,2.82.2.28.27.57.47.85-.04.07-.13.1-.16.17-.65,1.29-2.5,2.49-3.64,3.49-1.02.9-1.97,1.86-3,2.75-.07.04-.84.03-.94,0-1.05-.28-2.21-2.15-2.58-3.04-1.21-2.92-.79-6.72,1.5-9.15,1.58-1.68,2.81.21,3.99,1.19.38.32.79.61,1.17.93Z"/>
      </g>
    </g>
  </g>
  <text class="cls-6" transform="translate(72.11 62.1) scale(.45 1)"><tspan class="cls-26" x="0" y="0">MODUS</tspan><tspan class="cls-8" x="245.11" y="0">A</tspan><tspan class="cls-10" x="291.24" y="0">X</tspan><tspan class="cls-9" x="333.49" y="0">ON</tspan></text>
  <text class="cls-30" transform="translate(74.48 87.74) scale(.86 1)"><tspan x="0" y="0">El mé</tspan><tspan class="cls-35" x="37.33" y="0">t</tspan><tspan class="cls-19" x="42.66" y="0">odo de la e</tspan><tspan class="cls-23" x="117.83" y="0">v</tspan><tspan x="125.56" y="0">olución di</tspan><tspan class="cls-35" x="193.36" y="0">g</tspan><tspan x="202.43" y="0">ital</tspan></text>
</svg>