<?xml version="1.0" encoding="UTF-8"?>
<svg id="Capa_1" data-name="Capa 1" xmlns="http://www.w3.org/2000/svg" xmlns:xlink="http://www.w3.org/1999/xlink" viewBox="0 0 226.94 399.1">
  <defs>
    <style>
      .cls-1 {
        fill: url(#Degradado_sin_nombre_62-12);
      }

      .cls-2 {
        fill: url(#Degradado_sin_nombre_62-25);
      }

      .cls-3 {
        fill: url(#Degradado_sin_nombre_62-19);
      }

      .cls-4 {
        fill: url(#Degradado_sin_nombre_62-24);
      }

      .cls-5 {
        fill: url(#Degradado_sin_nombre_62-28);
      }

      .cls-6 {
        fill: url(#Degradado_sin_nombre_62-7);
      }

      .cls-7 {
        fill: url(#Degradado_sin_nombre_62-15);
      }

      .cls-8 {
        fill: url(#Degradado_sin_nombre_62-8);
      }

      .cls-9 {
        fill: url(#Degradado_sin_nombre_62-20);
      }

      .cls-10 {
        fill: url(#Degradado_sin_nombre_62-11);
      }

      .cls-11 {
        fill: url(#Degradado_sin_nombre_62-14);
      }

      .cls-12 {
        fill: url(#Degradado_sin_nombre_62-22);
      }

      .cls-13 {
        fill: url(#Degradado_sin_nombre_62-31);
      }

      .cls-14 {
        fill: url(#Degradado_sin_nombre_62-34);
      }

      .cls-15 {
        fill: url(#Degradado_sin_nombre_62-30);
      }

      .cls-16 {
        fill: url(#Degradado_sin_nombre_62-26);
      }

      .cls-17 {
        fill: url(#Degradado_sin_nombre_62);
      }

      .cls-18 {
        fill: url(#Degradado_sin_nombre_62-3);
      }

      .cls-19 {
        fill: url(#Degradado_sin_nombre_62-27);
      }

      .cls-20 {
        fill: url(#Degradado_sin_nombre_62-2);
      }

      .cls-21 {
        fill: url(#Degradado_sin_nombre_62-6);
      }

      .cls-22 {
        fill: url(#Degradado_sin_nombre_62-29);
      }

      .cls-23 {
        fill: url(#Degradado_sin_nombre_62-10);
      }

      .cls-24 {
        fill: url(#Degradado_sin_nombre_62-13);
      }

      .cls-25 {
        fill: url(#Degradado_sin_nombre_62-33);
      }

      .cls-26 {
        fill: url(#Degradado_sin_nombre_62-21);
      }

      .cls-27 {
        fill: url(#Degradado_sin_nombre_62-5);
      }

      .cls-28 {
        fill: url(#Degradado_sin_nombre_62-16);
      }

      .cls-29 {
        fill: url(#Degradado_sin_nombre_62-9);
      }

      .cls-30 {
        fill: url(#Degradado_sin_nombre_62-23);
      }

      .cls-31 {
        fill: url(#Degradado_sin_nombre_62-32);
      }

      .cls-32 {
        fill: url(#Degradado_sin_nombre_62-4);
      }

      .cls-33 {
        fill: url(#Degradado_sin_nombre_62-17);
      }

      .cls-34 {
        fill: url(#Degradado_sin_nombre_62-18);
      }
    </style>
    <linearGradient id="Degradado_sin_nombre_62" data-name="Degradado sin nombre 62" x1=".12" y1="147.78" x2="35.12" y2="147.78" gradientUnits="userSpaceOnUse">
      <stop offset=".03" stop-color="#002455"/>
      <stop offset=".27" stop-color="#0006aa"/>
      <stop offset=".28" stop-color="#0605a8"/>
      <stop offset=".36" stop-color="#24039f"/>
      <stop offset=".43" stop-color="#3b0199"/>
      <stop offset=".5" stop-color="#480095"/>
      <stop offset=".56" stop-color="#4d0094"/>
      <stop offset=".61" stop-color="#4a26a9"/>
      <stop offset=".67" stop-color="#4654c3"/>
      <stop offset=".74" stop-color="#447bd8"/>
      <stop offset=".8" stop-color="#419ae9"/>
      <stop offset=".87" stop-color="#40aff5"/>
      <stop offset=".93" stop-color="#3fbcfc"/>
      <stop offset=".98" stop-color="#3fc1ff"/>
    </linearGradient>
    <linearGradient id="Degradado_sin_nombre_62-2" data-name="Degradado sin nombre 62" x1="91.67" y1="61.14" x2="136.94" y2="61.14" xlink:href="#Degradado_sin_nombre_62"/>
    <linearGradient id="Degradado_sin_nombre_62-3" data-name="Degradado sin nombre 62" x1="72.04" y1="124.35" x2="157.31" y2="124.35" xlink:href="#Degradado_sin_nombre_62"/>
    <linearGradient id="Degradado_sin_nombre_62-4" data-name="Degradado sin nombre 62" x1="91.7" y1="110.7" x2="167.7" y2="110.7" xlink:href="#Degradado_sin_nombre_62"/>
    <linearGradient id="Degradado_sin_nombre_62-5" data-name="Degradado sin nombre 62" x1="59.59" y1="85.02" x2="88.9" y2="85.02" xlink:href="#Degradado_sin_nombre_62"/>
    <linearGradient id="Degradado_sin_nombre_62-6" data-name="Degradado sin nombre 62" x1="78.23" y1="124.39" x2="112.08" y2="124.39" xlink:href="#Degradado_sin_nombre_62"/>
    <linearGradient id="Degradado_sin_nombre_62-7" data-name="Degradado sin nombre 62" x1="118.31" y1="135.82" x2="141.09" y2="135.82" xlink:href="#Degradado_sin_nombre_62"/>
    <linearGradient id="Degradado_sin_nombre_62-8" data-name="Degradado sin nombre 62" x1="141.33" y1="122.1" x2="149.96" y2="122.1" xlink:href="#Degradado_sin_nombre_62"/>
    <linearGradient id="Degradado_sin_nombre_62-9" data-name="Degradado sin nombre 62" x1="72.04" y1="119.13" x2="74.92" y2="119.13" xlink:href="#Degradado_sin_nombre_62"/>
    <linearGradient id="Degradado_sin_nombre_62-10" data-name="Degradado sin nombre 62" x1="149.71" y1="110.24" x2="150.69" y2="110.24" xlink:href="#Degradado_sin_nombre_62"/>
    <linearGradient id="Degradado_sin_nombre_62-11" data-name="Degradado sin nombre 62" x1="78.75" y1="131.23" x2="82.59" y2="131.23" xlink:href="#Degradado_sin_nombre_62"/>
    <linearGradient id="Degradado_sin_nombre_62-12" data-name="Degradado sin nombre 62" x1="84.51" y1="136.75" x2="87.63" y2="136.75" xlink:href="#Degradado_sin_nombre_62"/>
    <linearGradient id="Degradado_sin_nombre_62-13" data-name="Degradado sin nombre 62" x1="77.56" y1="128.35" x2="78.52" y2="128.35" xlink:href="#Degradado_sin_nombre_62"/>
    <linearGradient id="Degradado_sin_nombre_62-14" data-name="Degradado sin nombre 62" x1="76.6" y1="126.67" x2="77.32" y2="126.67" xlink:href="#Degradado_sin_nombre_62"/>
    <linearGradient id="Degradado_sin_nombre_62-15" data-name="Degradado sin nombre 62" x1="89.29" y1="140.1" x2="89.8" y2="140.1" xlink:href="#Degradado_sin_nombre_62"/>
    <linearGradient id="Degradado_sin_nombre_62-16" data-name="Degradado sin nombre 62" x1="90.01" y1="140.82" x2="90.52" y2="140.82" xlink:href="#Degradado_sin_nombre_62"/>
    <linearGradient id="Degradado_sin_nombre_62-17" data-name="Degradado sin nombre 62" x1="116.14" y1="141.1" x2="116.65" y2="141.1" xlink:href="#Degradado_sin_nombre_62"/>
    <linearGradient id="Degradado_sin_nombre_62-18" data-name="Degradado sin nombre 62" x1="90.98" y1="141.77" x2="91.48" y2="141.77" xlink:href="#Degradado_sin_nombre_62"/>
    <linearGradient id="Degradado_sin_nombre_62-19" data-name="Degradado sin nombre 62" x1="75.88" y1="125.46" x2="76.38" y2="125.46" xlink:href="#Degradado_sin_nombre_62"/>
    <linearGradient id="Degradado_sin_nombre_62-20" data-name="Degradado sin nombre 62" x1="75.16" y1="124.26" x2="75.66" y2="124.26" xlink:href="#Degradado_sin_nombre_62"/>
    <linearGradient id="Degradado_sin_nombre_62-21" data-name="Degradado sin nombre 62" x1="83.79" y1="134.82" x2="84.29" y2="134.82" xlink:href="#Degradado_sin_nombre_62"/>
    <linearGradient id="Degradado_sin_nombre_62-22" data-name="Degradado sin nombre 62" x1="88.57" y1="139.38" x2="89.09" y2="139.38" xlink:href="#Degradado_sin_nombre_62"/>
    <linearGradient id="Degradado_sin_nombre_62-23" data-name="Degradado sin nombre 62" x1="83.05" y1="134.1" x2="83.57" y2="134.1" xlink:href="#Degradado_sin_nombre_62"/>
    <linearGradient id="Degradado_sin_nombre_62-24" data-name="Degradado sin nombre 62" x1="92.98" y1="98.06" x2="135.55" y2="98.06" xlink:href="#Degradado_sin_nombre_62"/>
    <linearGradient id="Degradado_sin_nombre_62-25" data-name="Degradado sin nombre 62" x1="62.04" y1="287.65" x2="170.02" y2="287.65" xlink:href="#Degradado_sin_nombre_62"/>
    <linearGradient id="Degradado_sin_nombre_62-26" data-name="Degradado sin nombre 62" x1="93.93" y1="337.23" x2="137.17" y2="337.23" xlink:href="#Degradado_sin_nombre_62"/>
    <linearGradient id="Degradado_sin_nombre_62-27" data-name="Degradado sin nombre 62" x1="62.85" y1="287.78" x2="168.91" y2="287.78" xlink:href="#Degradado_sin_nombre_62"/>
    <linearGradient id="Degradado_sin_nombre_62-28" data-name="Degradado sin nombre 62" x1="94.77" y1="337.35" x2="136.35" y2="337.35" xlink:href="#Degradado_sin_nombre_62"/>
    <linearGradient id="Degradado_sin_nombre_62-29" data-name="Degradado sin nombre 62" x1="0" y1="200.42" x2="226.27" y2="200.42" xlink:href="#Degradado_sin_nombre_62"/>
    <linearGradient id="Degradado_sin_nombre_62-30" data-name="Degradado sin nombre 62" y1="200.27" x2="226.94" y2="200.27" xlink:href="#Degradado_sin_nombre_62"/>
    <linearGradient id="Degradado_sin_nombre_62-31" data-name="Degradado sin nombre 62" x1="147.28" y1="199.54" x2="187.41" y2="199.54" xlink:href="#Degradado_sin_nombre_62"/>
    <linearGradient id="Degradado_sin_nombre_62-32" data-name="Degradado sin nombre 62" x1="40.31" y1="200.25" x2="80.82" y2="200.25" xlink:href="#Degradado_sin_nombre_62"/>
    <linearGradient id="Degradado_sin_nombre_62-33" data-name="Degradado sin nombre 62" x1="149.21" y1="199.34" x2="186.26" y2="199.34" xlink:href="#Degradado_sin_nombre_62"/>
    <linearGradient id="Degradado_sin_nombre_62-34" data-name="Degradado sin nombre 62" x1="40.97" y1="200.34" x2="80.18" y2="200.34" xlink:href="#Degradado_sin_nombre_62"/>
  </defs>
  <g>
    <path class="cls-17" d="M35.12,127.63c-.14,1-2.31.86-3.12,1.07-15.64,4.01-28.81,18.98-30.89,35.06-.15,1.18.44,3.69-.99,4.17.16-15.83,11.31-32.22,26.38-38.01,1.96-.75,6.68-2.26,8.63-2.28Z"/>
    <g>
      <path class="cls-20" d="M127.09,5.16c6.8,5.98,8.7,18.38,4.12,26.12-3,5.07-9.24,8.08-9.78,14.44-.46,5.36-.25,11.75-.48,17.27-.41,9.78-1.83,26.04,2.6,34.82,4.09,8.1,17.41,9.73,12.21,21.97-2.38,5.6-12.04.24-15.77-1.13-1.13-.42-5.41-1.82-6.35-1.81-.72,0-1.12.52-1.73.67-.48.12-1.01.02-1.52.16-4.14,1.16-11.08,5.42-15.15,4.39-1.19-.3-2.99-2.29-3.25-3.47-.62-2.79-.38-6.47,1.04-8.93,2.32-4,7.39-6.48,10.3-10.08s3.78-8.47,4.2-13.07c.82-8.86-.29-17.36-.73-26.16-.21-4.25.02-8.76-.23-12.96-.45-7.51-5.71-9.53-9.72-14.74-2.31-2.99-3.86-6.64-4.19-10.44-1.62-18.59,20.68-29.13,34.43-17.05ZM119.03,75.34c-.53-.19-1.15.52-1.52.45-.27-.06-.45-.57-1-.68-.69-.14-5.04-.13-5.74,0s-1.02,1.04-1.75,1.24c-.25,4.4.18,9.01-.99,13.28-.12,1.13.17,2.51-.25,3.59-.51,1.29-.46.03-.57,2.12-.15,2.8-3.3,4.97-4.95,6.75-2.54,2.75-6.2,5.33-8.15,8.63-1.01,1.71-1.34,5.01-.95,6.95.09.47.45.57.58.87s.08.66.21.86c.46.7,2.31,1.54,3.16,1.54.3,0,2.86-.64,3.33-.78,3.23-.93,6.19-2.66,9.25-3.7,6.89-2.33,10.9,1.73,16.97,3.66,1.34.42,3.34.54,4.74.99,3.28-.96,4.67-4.65,3.98-7.8-1.36-6.22-9.62-8.91-12.76-14.34-1.09-1.9-2.32-6.52-2.62-8.66s.03-4.73-.23-6.72c-.06-.44-.67-1.79-.74-2.86-.11-1.79.08-3.61,0-5.39Z"/>
      <path class="cls-18" d="M150.44,105.32c.73.13.46-.37.48-.83.11-3.14.92-7.47.49-10.58-.32-2.3-.75-4.22-.49-6.7.33-3.15,1.95-.62,2.75-.6.51.01,1.04-.73,1.88-.45.12.04,1.58,1.87,1.6,2,.36,1.99-.05,5.91-.01,8.17.17,10.09.57,20.33-4.78,29.2-1.31,2.17-3.01,3.93-4.81,5.81-9.09,9.47-19.81,17.58-28.04,28.08-1.14.67-2.85,3.14-3.85,3.59-1.15.51-3.28-1.99-4.46-2.37-5.03-5.33-10.49-10.21-15.89-15.16-1.51-1.38-1.57-2.11-3.62-3.21-.08-.04-.15-.19-.24-.24.06-.51.03-.54-.48-.48-.21-.26-.22-.27-.48-.48.06-.51.03-.54-.48-.48-.09-.11-.13-.15-.24-.24.06-.51.03-.54-.48-.48-.09-.11-.13-.15-.24-.24.06-.51.03-.54-.48-.48-.36-.42-.66-.64-.96-.96-1.14-1.24-1.73-1.93-3.12-2.88-.05-.03-.1-.16-.24-.24.06-.51.03-.54-.48-.48-.09-.11-.13-.15-.24-.24.06-.51.03-.54-.48-.48-.2-.28-.39-.36-.48-.48-1.15-1.44-2.4-3.04-3.84-4.32-.08-.07-.15-.17-.24-.24-.03-.57-.4-.93-.96-.96-.09-.19-.14-.47-.24-.72-.17-.42-.16-.77-.72-.96-.05-.16-.1-.39-.24-.48.08-.43-.04-.56-.48-.48-.06-.23.04-.52-.24-.72.08-.43-.04-.57-.48-.48-.06-.23.03-.52-.24-.72l-2.88-8.39c-.02-.48.01-.96,0-1.44l.29-23.94c1.55-1.49,4.35-2.22,6.18-.84.13,5.9-.18,11.83-.02,17.73.01.43.26.77.26.81,0,.24,0,.48,0,.72-.73-.13-.46.37-.48.83-.23,5.87.4,9.43,3.5,14.25,6.18,9.62,18.77,18.07,30.3,17.78,1.35-.03,2.73.08,4.08,0-.15.71.61.75.48,0,.55-.03,1.13.05,1.68,0,.66.38,2.02.33,2.74.23,8.05-1.14,14.52-5,20.03-10.54.08-.08.16-.16.24-.24.04-.04.41-.02.61-.23,3.78-4,8.07-10.46,8.02-16.08,0-.32,0-.64,0-.96.73-1.66.76-3.38.71-5.16-.01-.38-.23-.33-.23-.36-.01-.72,0-1.44,0-2.16Z"/>
      <path class="cls-32" d="M150.44,105.32c-.05-4.53,1.04-16.14-1.33-19.65-2.4-3.55-7.6-6.25-8.98-10.2-2.66-7.57,3-17.41,11.16-18.11,10.57-.91,18.63,7.16,15.87,17.79-.88,3.38-3.64,5.91-6.16,8.23-1.15,1.06-2.46,1.24-2.82,3.17-.56,11.83,1.48,25.09-3.45,36.13-3.93,8.8-13.14,15.1-19.86,21.63-5.67,5.51-10.74,11.05-15.94,16.91-.91,1.03-2.69,3.01-4.09,2.89-.73-.06-3.92-2.81-4.68-3.49-4.94-4.48-9.68-9.41-14.51-14.03-1.35-1.29-2.98-2.77-3.95-4.32,2.05,1.1,2.11,1.83,3.62,3.21,5.4,4.95,10.86,9.83,15.89,15.16,1.17.38,3.31,2.88,4.46,2.37,1-.45,2.71-2.91,3.85-3.59,8.23-10.49,18.94-18.6,28.04-28.08,1.8-1.88,3.5-3.64,4.81-5.81,5.34-8.87,4.95-19.1,4.78-29.2-.04-2.26.37-6.18.01-8.17-.02-.13-1.48-1.96-1.6-2-.84-.29-1.37.46-1.88.45-.8-.02-2.42-2.55-2.75.6-.26,2.49.17,4.4.49,6.7.43,3.1-.38,7.44-.49,10.58-.02.46.25.96-.48.83Z"/>
      <path class="cls-27" d="M78.75,107.24s-.25-.38-.26-.81c-.16-5.9.16-11.83.02-17.73-1.83-1.38-4.63-.65-6.18.84l-.29,23.94c-.74.13-.45-.37-.48-.83-.44-7.05.7-13.94.25-20.89-.41-6.37-2.58-6.95-6.73-10.77-.38-.35-.56-.87-.94-1.22-1.99-1.86-2.7-1.92-3.72-4.91-4.91-14.38,13.2-24.14,23.98-14.39,3.95,3.57,5.6,10.8,3.75,15.76-1.41,3.77-7.16,5.78-8.47,9.75-1.5,4.52-.61,14.71-.68,19.95,0,.41.15,1.07-.24,1.32Z"/>
      <path class="cls-21" d="M78.75,107.96c.06,1.61-.12,3.34,0,4.93.69,10.08,12.21,20.71,20.94,24.62,4.04,1.81,8.03,2.63,12.39,3.32-11.53.29-24.12-8.16-30.3-17.78-3.1-4.83-3.74-8.39-3.5-14.25.02-.46-.25-.96.48-.83Z"/>
      <path class="cls-6" d="M141.09,130.51c-5.52,5.54-11.98,9.4-20.03,10.54-.73.1-2.09.16-2.74-.23,6.96-.58,14.33-3.59,19.77-7.92.98-.78,1.68-2.17,3-2.39Z"/>
      <path class="cls-8" d="M149.96,113.96c.04,5.62-4.24,12.08-8.02,16.08-.2.21-.57.19-.61.23.56-1.48,1.93-2.48,2.84-3.76,2.73-3.87,4.07-7.25,5.25-11.79.11-.42-.15-.9.55-.76Z"/>
      <path class="cls-29" d="M74.92,123.31c-.62.13-.49-.3-.65-.66-1.09-2.43-2.12-5.14-2.23-7.74l2.88,8.39Z"/>
      <path class="cls-23" d="M149.96,113c0-.05-.26-.5-.25-1.06.02-1.29.5-3.15.73-4.46,0,.02.22-.02.23.36.05,1.78.01,3.5-.71,5.16Z"/>
      <path class="cls-10" d="M82.59,133.39c-1.07-.31-1.67-1.5-2.53-2.15l-1.3-2.17c1.43,1.27,2.68,2.88,3.84,4.32Z"/>
      <path class="cls-1" d="M87.63,138.18c-1.22-.2-2.57-1.82-3.12-2.88,1.39.95,1.97,1.64,3.12,2.88Z"/>
      <path class="cls-24" d="M78.52,128.83c-.47-.4-.47.12-.96-.96.56.03.93.39.96.96Z"/>
      <path class="cls-11" d="M77.32,127.15c-.86.03-.58-.55-.72-.96.56.19.55.54.72.96Z"/>
      <path class="cls-7" d="M89.3,139.86c.51-.06.54-.03.48.48-.05-.04-.33.08-.44-.04s0-.4-.04-.44Z"/>
      <path class="cls-28" d="M90.02,140.58c.51-.06.54-.03.48.48-.05-.04-.33.08-.44-.04-.11-.11,0-.4-.04-.44Z"/>
      <path class="cls-33" d="M116.64,140.82c.13.75-.63.71-.48,0,.16,0,.32,0,.48,0Z"/>
      <path class="cls-34" d="M90.98,141.54c.51-.06.54-.03.48.48-.73-.42-.2-.13-.48-.48Z"/>
      <path class="cls-3" d="M75.88,125.23c.44-.08.55.05.48.48-.4-.26-.24.37-.48-.48Z"/>
      <path class="cls-9" d="M75.16,124.03c.44-.09.55.05.48.48-.34-.24-.24.38-.48-.48Z"/>
      <path class="cls-26" d="M83.79,134.59c.51-.06.54-.03.48.48-.74-.42-.22-.15-.48-.48Z"/>
      <path class="cls-12" d="M88.58,139.14c.51-.06.54-.03.48.48-.05-.04-.33.08-.44-.04-.12-.12,0-.4-.04-.44Z"/>
      <path class="cls-30" d="M83.07,133.87c.51-.06.54-.03.48.48-.05-.04-.33.08-.44-.04-.12-.12,0-.39-.04-.44Z"/>
      <path class="cls-4" d="M119.03,75.34c.08,1.79-.11,3.61,0,5.39.07,1.07.68,2.43.74,2.86.26,1.99-.07,4.57.23,6.72s1.52,6.76,2.62,8.66c3.14,5.43,11.39,8.12,12.76,14.34.69,3.15-.7,6.84-3.98,7.8-1.41-.45-3.41-.57-4.74-.99-6.08-1.93-10.09-5.99-16.97-3.66-3.06,1.04-6.02,2.77-9.25,3.7-.47.14-3.03.78-3.33.78-.85,0-2.7-.84-3.16-1.54-.13-.2-.08-.58-.21-.86s-.49-.39-.58-.87c-.39-1.94-.06-5.25.95-6.95,1.95-3.3,5.61-5.88,8.15-8.63,1.65-1.78,4.8-3.95,4.95-6.75.11-2.09.05-.82.57-2.12.43-1.08.14-2.46.25-3.59,1.17-4.27.74-8.88.99-13.28.73-.2,1.05-1.11,1.75-1.24s5.06-.14,5.74,0c.54.11.73.63,1,.68.37.08.99-.63,1.52-.45Z"/>
    </g>
  </g>
  <g>
    <path class="cls-2" d="M137.73,255.71c5.78,3.98,16.32,14.7,18.88,21.28,3.57,9.19,1.73,17.79,2.44,27.3.47,6.29,6.15,7.02,8.84,11.55,8.06,13.57-8.63,29.64-21.3,18.91-.36-.31-2.01-1.87-2.17-2.15-.28-.5-.15-1.06-.34-1.34-.14-.21-.61-.15-.86-.4-1.88-1.82-1.85-8.01-1.37-10.45,1.59-8,9.61-7.79,10.25-18.29.57-9.3-.62-21.05-5.89-28.88-3.91-5.8-13.18-12.58-19.81-14.48-5.49-1.58-16.24-1.87-21.59.13-8.5,3.18-17.92,11.46-21.69,19.8-3.25,7.18-4.08,20.26-2.68,27.98s9.98,9,10.77,17.77c1.51,16.76-20.86,23.49-27.77,8.12-1.14-2.53-1.93-7.89-.98-10.46.09-.24,1.21-2.21,1.47-2.65,1.91-3.22,4.48-4.96,6.79-7.6,1.44-1.64,1.68-5.8,1.79-8.04.39-7.54-.16-14.23,1.8-21.71,3.54-13.53,13.59-19.72,22.66-29.13,4.36-4.52,8.46-9.34,12.7-13.92.91-.99,3.81-4.8,4.93-4.91,1.47-.15,3.8,2.96,4.9,3.96,5.97,5.4,11.89,10.89,17.68,16.5.15.24.02.57.06.64.02.03.45.46.48.48-.14-.14-.36-.36-.48-.48-.48-.46-1.77-1.2-2.4-1.8-2.37-2.26-18.49-18.15-19.97-18.07-1.17.06-3.38,2.51-4.24,3.42-6.23,6.54-11.99,14.09-18.57,20.27-7.51,7.06-13.56,11.93-16.64,22.45-2.63,9-1.77,18.21-2.41,27.33-.15,2.16-.39,2.83-1.95,4.27-3.89,3.6-7.15,6.16-8.1,11.81-.74,4.38,2.5,9.87,5.86,12.57,6.52,5.24,15.92,2.35,19.87-4.58,1.47-2.58,2.22-7.47,1.58-10.36-.04-.19-.41-.17-.55-.46-.22-.47-.2-1.51-.24-1.57-1.7-2.72-3.97-4.34-6.07-6.62-2.67-2.9-2.73-3.79-3.51-7.47-.7-3.28-.55-7.39-.51-10.99.12-10.18,1.36-16.93,8.01-24.98,4.3-5.2,15.14-13.21,21.92-13.81,5.29-.46,14.22-.16,19.13,1.75,9.03,3.52,20.88,14.03,22.94,23.83,1.41,6.74,1.73,15.24.99,22.06-.11,1,.11,2.06-.07,3.05-.15.81-2.12,4.16-2.71,4.73-.34.33-.97.34-1.44.72-1.98,1.6-4.37,4.7-5.08,7.15-.28.98-.9,4.28-.73,5.15,1.97,10.09,12.19,15.83,21.15,9.28,5.84-4.27,7.2-13.08,2.87-18.92-1.92-2.59-5.99-4.71-7.34-7.29-2.21-4.22-.23-11.92-.44-16.59-.05-1.15-.29-4.27-.48-5.27-.1-.53-.61-.67-.71-1.21-.16-.8.06-1.93-.03-2.84-1.02-9.52-12.95-20.15-19.63-26.53Z"/>
    <g>
      <path class="cls-16" d="M124.46,301.44c-2.59,4.98-1.8,8.49-2.06,13.89-.52,10.99-.67,20.27.7,31.18.39,3.14-.22,7.56.72,10.32.82,2.42,4.64,4.96,6.49,6.7,9.37,8.76,7.26,23.53-2.29,31.3-7.19,5.85-14.78,5.31-22.48.68-9.11-5.48-12-17.24-6.97-26.55,2.79-5.17,9.37-8,11.06-13.88-.02-12.82,1.02-26.51.31-39.29-.23-4.11-1.07-10.67-2.25-14.54-2.79-9.23-16.58-9.59-13.23-21.55,2.36-8.43,10.03-1.54,14.62.25,2.77,1.08,5.69,1.15,8.65.96,5.44-.35,10.17-5.63,14.62-5.54,4.9.09,5.68,7.81,4.07,11.29s-6.47,6.19-8.98,9.48c-1.18,1.55-2.06,3.54-2.98,5.3ZM133.84,276.64c-.31-.18-3.06-.1-3.55.05-1.76.53-3.59,1.98-5.13,2.78-5.11,2.65-10.02,3.27-15.67,1.75-2.05-.55-5.07-2.81-7.34-3.69-.5-.19-2.08-.81-2.46-.9-1.58-.38-2.67.66-3.52,1.9-.54.78-1.18,2.8-1.33,3.7-.55,3.27,2.79,7.23,5.15,9.22,2.92,2.47,7.6,4.5,8.64,8.62,2.27,8.98,1.95,18.69,2.03,27.95.07,8.07.08,16.19-.26,24.22-.05,1.27.21,2.5-.06,4.02-.52,2.95-2.72,4.26-4.64,6.27-.73.77-1.11,1.05-1.78,1.7-4.39,4.3-7.62,10.15-6.69,16.55,1.39,9.51,6.95,13.47,15.34,16.31,2.74.93,3.32,1.45,6.47.74,7.21-1.63,13.63-7.67,15.66-14.79.14-.48.56-1.89.58-2,.82-4.52-.64-10.46-3.17-14.05-1.61-2.29-8.65-7.15-9.2-9.04-.11-.38.14-.82.05-1.22-.93-4.12,0-7.84-1.55-11.67.33-13.16-.69-26.53.77-39.54,1.05-9.33,10.39-13.1,13.54-20.27.1-.24.44-.4.53-.67.18-.62.1-2.76-.05-3.45-.11-.5-1.2-3.16-1.48-3.56-.04-.05-.82-.89-.88-.92Z"/>
      <path class="cls-19" d="M137.73,255.71c6.67,6.39,18.61,17.02,19.63,26.53.1.91-.12,2.05.03,2.84.1.53.61.67.71,1.21.19,1,.43,4.12.48,5.27.21,4.68-1.77,12.38.44,16.59,1.35,2.58,5.43,4.7,7.34,7.29,4.33,5.84,2.97,14.65-2.87,18.92-8.96,6.55-19.19.82-21.15-9.28-.17-.87.45-4.17.73-5.15.71-2.45,3.1-5.55,5.08-7.15.47-.38,1.09-.39,1.44-.72.58-.57,2.56-3.92,2.71-4.73.18-.99-.04-2.05.07-3.05.74-6.82.42-15.32-.99-22.06-2.05-9.8-13.91-20.31-22.94-23.83-4.91-1.91-13.84-2.21-19.13-1.75-6.79.6-17.63,8.61-21.92,13.81-6.64,8.05-7.89,14.8-8.01,24.98-.04,3.6-.19,7.71.51,10.99.78,3.67.84,4.57,3.51,7.47,2.09,2.27,4.37,3.9,6.07,6.62.04.07.02,1.11.24,1.57.14.29.5.27.55.46.64,2.89-.11,7.78-1.58,10.36-3.95,6.92-13.35,9.82-19.87,4.58-3.36-2.7-6.6-8.18-5.86-12.57.95-5.64,4.22-8.21,8.1-11.81,1.56-1.45,1.8-2.12,1.95-4.27.65-9.12-.22-18.33,2.41-27.33,3.07-10.52,9.13-15.4,16.64-22.45,6.58-6.18,12.34-13.73,18.57-20.27.87-.91,3.08-3.36,4.24-3.42,1.49-.08,17.6,15.81,19.97,18.07.63.6,1.92,1.33,2.4,1.8.12.12.34.34.48.48Z"/>
      <path class="cls-5" d="M133.84,276.64c.05.03.84.87.88.92.27.4,1.36,3.06,1.48,3.56.15.68.23,2.83.05,3.45-.08.27-.42.44-.53.67-3.15,7.18-12.49,10.94-13.54,20.27-1.46,13.01-.44,26.38-.77,39.54,1.54,3.83.62,7.55,1.55,11.67.09.4-.16.84-.05,1.22.55,1.9,7.59,6.75,9.2,9.04,2.52,3.59,3.98,9.53,3.17,14.05-.02.11-.44,1.53-.58,2-2.03,7.12-8.45,13.16-15.66,14.79-3.15.71-3.74.18-6.47-.74-8.4-2.84-13.95-6.8-15.34-16.31-.93-6.39,2.29-12.25,6.69-16.55.66-.65,1.05-.93,1.78-1.7,1.91-2.01,4.12-3.32,4.64-6.27.27-1.52,0-2.75.06-4.02.34-8.04.33-16.15.26-24.22-.08-9.26.24-18.97-2.03-27.95-1.04-4.13-5.72-6.15-8.64-8.62-2.35-1.99-5.7-5.94-5.15-9.22.15-.9.8-2.92,1.33-3.7.85-1.24,1.94-2.27,3.52-1.9.38.09,1.96.71,2.46.9,2.28.88,5.3,3.14,7.34,3.69,5.65,1.52,10.57.9,15.67-1.75,1.55-.8,3.37-2.25,5.13-2.78.49-.15,3.24-.23,3.55-.05Z"/>
    </g>
    <g>
      <path class="cls-22" d="M35.6,127.63c11.47.06,20.08.03,30.04,6.76,7.49,5.06,14.34,11.27,21.05,17.31,5.47,4.91,12.75,10.86,17.37,16.45.49.59.85,1.69,1.31,2.29.81,1.06,1.5.48,1.21,2.41-.14.97-.71,1.01-1.2,1.67-3.21,4.37-10.92,13.04-15.54,15.62-.48.27-.05.76-1.31.5-.42-.08-2.19-.97-2.62-1.22-1.1-.66-3.02-2.27-4.04-3.15-10.16-8.75-19.89-22.09-30.95-29.23-4.56-2.94-10.51-3.66-15.61-1.53s-7.32,7.17-8.1,12.29c.28,16.04-.49,32.25.25,48.19.03.57.45,1.14.48,1.93.2,5.61-1.02,16.71.93,21.38,3.65,8.73,13.87,9.27,21.65,6.03,5.64-2.35,9.83-8.21,13.95-12.32,24.06-24.02,47.05-50.15,71.22-74.46,7.88-7.93,16.54-17.12,25.67-23.49,18.4-12.85,44.28-8.87,56.74,10.16,4.39,6.71,5.69,12.29,6.91,20.18.36,2.35.15,1.85.98,4.06.56,1.49,0,2.68-.03,4.08-.31,18.7.85,38.05.02,56.63-.31,6.99-2.25,14.52-5.8,20.58-10.34,17.64-29.45,24.03-48.99,17.42-17.51-5.93-29.17-23.54-42.95-35.11-.66-.86-1.62-1.55-2.34-2.33-.39-.43-2.87-3.34-2.93-3.56-.15-.49.37-1.78.66-2.25,2.01-3.31,7.98-9.85,10.9-12.6.93-.88,3.39-2.9,4.43-3.48.68-.38,1.49-.45,2.25-.38,8.56,5.82,15.04,14.18,22.52,21.25,4.58,4.33,10.25,9.38,15.76,12.42,6.54,3.61,15.8,1.92,19.35-5.05,2.51-4.92,1.76-13.51,1.96-19.15.37-10.49.63-20.68,0-31.18-.4-6.51,0-12.91-.99-19.4-1.53-10.12-7.84-14.66-18.01-12.8-6,1.1-12.11,7.69-16.46,11.85-29.19,27.91-54.47,60-84.5,87.07-11.46,10.33-22.46,19.86-38.89,19.76-2.2-.01-7.06-.51-9.09-1.21-2.32-.8-5.09-1.29-7.54-2.3-15.21-6.28-22.5-21.21-23.99-36.92-.29-3.02-.11-6.1-.47-9.12-.07-.54-.07-.83-.73-.83C0,204.56-.07,186.22.12,167.93c1.43-.48.84-2.98.99-4.17,2.08-16.08,15.25-31.05,30.89-35.06.82-.21,2.98-.07,3.12-1.07.16,0,.32,0,.48,0Z"/>
      <path class="cls-15" d="M35.6,127.63c.85-.26,2.1-.4,3-.48,17.45-1.44,26.91,5.8,39.55,16.08,9.25,7.52,18.98,16,26.98,24.82.37.41.47,1.01.95,1.45.4.38.98.47,1.32.84,1.45,1.54.21,3.6-.83,4.9-3.44,4.28-9.52,10.54-13.66,14.16-.9.78-3.26,2.87-4.38,2.71-1.24-.17-5.76-3.85-6.9-4.87-7.58-6.79-14.43-14.92-22.05-21.83-6.76-6.14-14.92-13.85-24.75-8.45-9.19,5.04-7.06,21.69-6.9,30.52.24,13.47.02,27.08.47,40.54.26,7.66.38,15.3,9.07,17.79,13.02,3.74,21.56-8.4,29.29-16.37,25.11-25.87,49.15-52.89,74.8-78.2,8.44-8.33,19.67-19.63,31.26-22.93,24.17-6.87,47.86,7.15,52.36,31.88.35,1.9.31,4.91.82,6.61.18.59.94.45.93,1v67.18c-.96.88-.58,1.89-.84,3-5.27,22.37-23.53,36.72-46.98,33.06-19.28-3.01-29.22-15.92-42.19-28.67-4.85-4.77-9.93-9.33-14.67-14.23-1.09-1.54-.45-2.24.5-3.59,3.18-4.5,10.33-12.43,14.62-15.84,1.95-1.55,2.87-2.33,5.02-.72,9.26,6.9,17.2,17.34,26.01,25.06,7.09,6.21,17.59,14.85,26.73,7.07,4.76-4.05,4.93-11,5.17-16.89.4-9.87.15-20.13-.02-29.98-.14-8,0-16.02-.97-23.97-.89-7.25-3.98-13.67-12.09-14.29-8.98-.69-14.71,5.62-20.62,11.26-29.6,28.23-55.2,60.78-85.7,88.16-14.01,12.58-26.03,22.47-46.37,18.8-16.2-2.92-27.4-13.26-31.86-29.05-2-7.1-2.52-14.02-2.57-21.3.66,0,.66.29.73.83.36,3.02.19,6.1.47,9.12,1.49,15.71,8.78,30.64,23.99,36.92,2.44,1.01,5.22,1.5,7.54,2.3,2.04.7,6.89,1.2,9.09,1.21,16.43.1,27.43-9.44,38.89-19.76,30.04-27.07,55.32-59.16,84.5-87.07,4.35-4.16,10.46-10.75,16.46-11.85,10.17-1.86,16.48,2.68,18.01,12.8.98,6.49.59,12.89.99,19.4.64,10.5.37,20.69,0,31.18-.2,5.64.55,14.22-1.96,19.15-3.55,6.97-12.81,8.65-19.35,5.05-5.51-3.04-11.18-8.09-15.76-12.42-7.48-7.07-13.95-15.43-22.52-21.25-.77-.07-1.57,0-2.25.38-1.04.59-3.5,2.61-4.43,3.48-2.92,2.75-8.89,9.29-10.9,12.6-.28.47-.81,1.76-.66,2.25.07.22,2.54,3.13,2.93,3.56.71.79,1.68,1.47,2.34,2.33,13.77,11.58,25.43,29.19,42.95,35.11,19.54,6.61,38.65.21,48.99-17.42,3.55-6.06,5.49-13.59,5.8-20.58.83-18.58-.33-37.93-.02-56.63.02-1.41.59-2.59.03-4.08-.83-2.21-.62-1.71-.98-4.06-1.22-7.89-2.52-13.46-6.91-20.18-12.46-19.04-38.34-23.01-56.74-10.16-9.13,6.38-17.78,15.56-25.67,23.49-24.17,24.31-47.16,50.44-71.22,74.46-4.12,4.11-8.3,9.97-13.95,12.32-7.78,3.24-18.01,2.7-21.65-6.03-1.95-4.66-.73-15.77-.93-21.38-.03-.79-.45-1.35-.48-1.93-.74-15.94.03-32.16-.25-48.19.78-5.12,3.01-10.16,8.1-12.29s11.05-1.41,15.61,1.53c11.07,7.14,20.79,20.47,30.95,29.23,1.02.88,2.94,2.5,4.04,3.15.43.26,2.2,1.14,2.62,1.22,1.26.25.83-.23,1.31-.5,4.62-2.59,12.33-11.25,15.54-15.62.49-.67,1.06-.71,1.2-1.67.29-1.94-.4-1.36-1.21-2.41-.46-.6-.82-1.7-1.31-2.29-4.61-5.59-11.9-11.54-17.37-16.45-6.72-6.03-13.56-12.24-21.05-17.31-9.97-6.73-18.57-6.7-30.04-6.76Z"/>
      <path class="cls-13" d="M150.83,204.24c-.57-.62-3.21-3.05-3.38-3.45-.25-.57-.22-1.28.1-1.81,2.19-2.37,4.29-4.82,6.48-7.19,2.42-2.62,5.08-5.15,7.57-7.78,2.68-2.83,5.84-7.08,8.73-9.49,1.36-1.13,3.65-1.44,5.35-1.01s5,4.18,6.03,5.72c6.16,9.24,7.57,25.28,3.06,35.4-1.56,3.5-5.92,11.17-10.24,11.13-2.38-.02-6.82-4.1-8.64-5.77-5.25-4.83-10.25-10.48-15.07-15.75ZM177.44,176.17c-.23-.17-2.52-1.49-2.67-1.52-1.12-.22-2.51.21-3.36.95-5.18,4.49-9.71,10.03-14.4,15.09-2.48,2.68-4.7,4.22-6.66,7.49-.51.85-1.52,1.21-.99,2.36.16.34.82.71,1.08,1.08,1.28,1.87,1.93,2.28,3.27,3.8,4.87,5.51,11.36,13.39,17.57,17.08.9.54,1.57,1.4,2.77,1.55,1.73.22,3.66-1.14,4.81-2.4,6.01-6.58,7.89-15.9,7.3-24.59-.4-5.84-3.89-17.23-8.72-20.9Z"/>
      <path class="cls-31" d="M72.85,190.38c2.09,1.99,4.97,4.38,6.58,6.73,1.5,2.18,1.97,3.11.48,5.44-3.54,5.55-13.37,13.09-18.43,18.26-2.73,2.79-3.76,5.85-8.27,5.41-6.65-.64-11.78-14.34-12.57-20.04-1.31-9.47,1.28-23.29,8.5-30.11,5.6-5.29,10.2,2.15,14.03,5.65,3.2,2.93,6.53,5.66,9.68,8.66ZM67.1,186.06c-1.36-1.25-2.81-2.39-4.17-3.62-4.23-3.83-8.59-11.24-14.24-4.66-8.16,9.51-9.68,24.34-5.34,35.77,1.33,3.5,5.45,10.8,9.21,11.89.39.11,3.13.13,3.37,0,3.7-3.47,7.06-7.22,10.72-10.74,4.06-3.91,10.64-8.62,12.97-13.65.12-.25.43-.4.57-.65-.69-1.08-.95-2.23-1.67-3.32-2.43-3.71-8.05-7.92-11.41-11.01Z"/>
      <path class="cls-25" d="M177.44,176.17c4.83,3.67,8.32,15.07,8.72,20.9.59,8.69-1.29,18.01-7.3,24.59-1.15,1.25-3.08,2.61-4.81,2.4-1.2-.15-1.87-1.01-2.77-1.55-6.21-3.7-12.7-11.58-17.57-17.08-1.34-1.52-1.99-1.93-3.27-3.8-.26-.38-.92-.74-1.08-1.08-.53-1.15.48-1.51.99-2.36,1.95-3.27,4.17-4.82,6.66-7.49,4.7-5.06,9.22-10.6,14.4-15.09.85-.74,2.24-1.17,3.36-.95.15.03,2.44,1.35,2.67,1.52Z"/>
      <path class="cls-14" d="M67.1,186.06c3.36,3.09,8.98,7.3,11.41,11.01.72,1.09.98,2.24,1.67,3.32-.13.25-.45.4-.57.65-2.33,5.03-8.91,9.73-12.97,13.65-3.65,3.52-7.02,7.27-10.72,10.74-.24.14-2.98.12-3.37,0-3.76-1.09-7.88-8.4-9.21-11.89-4.33-11.43-2.82-26.26,5.34-35.77,5.65-6.58,10.01.83,14.24,4.66,1.36,1.24,2.81,2.37,4.17,3.62Z"/>
    </g>
  </g>
</svg>