<?xml version="1.0" encoding="UTF-8"?>
<svg id="Capa_1" data-name="Capa 1" xmlns="http://www.w3.org/2000/svg" viewBox="0 0 60.77 125.05">
  <defs>
    <style>
      .cls-1 {
        fill: #790505;
      }

      .cls-2 {
        fill: #d2f8e6;
      }

      .cls-3 {
        fill: #0b3919;
      }

      .cls-4 {
        fill: #fff;
      }

      .cls-5 {
        fill: #9df3f8;
      }

      .cls-6 {
        fill: #66a63e;
      }

      .cls-7 {
        fill: #806833;
      }

      .cls-8 {
        fill: #4f794f;
      }

      .cls-9 {
        fill: #f7f8f5;
      }

      .cls-10 {
        fill: #175928;
      }

      .cls-11 {
        fill: #e3e156;
      }

      .cls-12 {
        fill: #a6441c;
      }

      .cls-13 {
        fill: #f5c1a4;
      }

      .cls-14 {
        fill: #cd7347;
      }

      .cls-15 {
        fill: #33190f;
      }
    </style>
  </defs>
  <path class="cls-4" d="M25.8,66.27c-.15-2.59-2.14-8.75-1.11-10.89.37-.77,2.86-2.59,3.66-3.52,2.68-3.17,5.83-8.44,7.03-12.41,1.11.2,1.27-.44.48-1.92,1.47-.11,1.86-2.31.48-2.87.86-.34,1.21-.78.92-1.64-.14-.41-4.66-4.16-5.24-2.68-1.56.36-2.81,2.94-1.92,4.32-1.64.5-1.96,1.14-.96,1.91l-1.27.26c-.38.95-4.78,5.94-5.22,5.94-.44-.04-.45-7.72.44-8.79l-.67-1.24c.43-.03.59-.66.48-1.92,1.49-.27,2.03-3.41,1.92-4.79,1.64-.7-.78-2.99-1.44-1.44-.37-1.63-3.41-2.29-4.32-.96-1.86-.18-2.72,3.59-1.44,4.8-.71.03-.71.35,0,.95-.77,6.14-.16,12.23,1.38,18.15l-9.85,8.86c-5.92,7.03-10.86,15.57-8.59,25.26,2.99,12.81,14.23,21.01,27.4,17.8,1.4.15,1.91,11.65,2.64,13.56-.21,6.52-7.25,11.27-12.97,7.68,3.77-2.16,5.94-3.16,5.22-8.1-.27-1.9-2.57-4.55-4.4-5.19-6.38-2.22-12.07,6.31-8.62,11.98,3.63,5.97,14.11,7.47,19.65,3.33.13-.11,2.28-2.28,2.38-2.42,4.8-6.43-.14-14.65.14-21.57.1-.44,2.55-1.03,3.36-1.54.99-.63,4.35-3.66,5.02-4.57,8.48-11.45-.13-27.93-14.58-26.34ZM15.71,95.27c-1.7-.68-5.17-3.37-6.25-4.78-5.42-7.08-2.83-16.53,2.1-23.07,2.55-3.38,6.81-5.78,8.95-9.27.7-.15.48.55.61,1.04.27,1,2.07,7.76,1.78,8.06-.07.07-1.36.12-2.09.55-7.61,4.44-11.16,14.27-4.63,21.25,1.38,1.48,3.75,3.26,5.92,2.59,2.76-.84-3.38-3.32-3.9-5.08-1.28-4.3,1.48-10.38,6.14-10.68l3.37,20.36c-3.63,1.39-8.46.44-12-.97ZM31.06,95.53l-3.73-19.91c.3-1.76,4.58.32,5.47.92,6.71,4.51,5.25,15.44-1.74,18.99Z"/>
  <path class="cls-1" d="M56.09,32.74c.06,1.36-2.75.66-3.36,0-.44.62-.8.79-1.15.08-.35-2.05-1.09-3.84-2.21-5.35-1.51-1.22-1.81-2.57-.96-4.31-1.62-1.88-2.52-4.31-1.44-6.71,1.23-1.19,2.45.44,2.94,1.66-1.89-5.04-4.01-9.96-6.34-14.75l.99-.82c3.96,2.38,11.62,7.61,13.19,11.99,1.89,5.29-1.39,12.66-1.67,18.2Z"/>
  <path class="cls-10" d="M44.57,24.11l.03.67c-2.24.78-2.89,1.84-1.95,3.17.41.15.4.31,0,.48,1.09.71,1.89,1.51,2.4,2.4l1.56-1.09c1.1.44,2.14.65,3.24.13,1.15-.39,1.44.84.48,1.44,1.12,2.27-.95,2.51-2.83,2.37-1.65,2.34-2.24.73-1.97-1.41-.58.67-1.38.83-2.4.48-.13.43-.29.42-.48,0-.88,1.02-.74,2.44.43,4.26l-.43.54c.43.14.42.3,0,.48.36,1.02-2.24,1.82-2.67,1.88-1.88.28-3.67-.13-5.49-.45.12-.41.38-1.45.48-1.92,3.22,1.33,3.38.37.48-2.88.26-2.81-.56-1.41-1.66-2.4-1.53-1.39-1.72-1.21-2.66-1.91-.2.13-.41.23-.62.27-.35.06-5.35-3.7-4.66-4.59-1.45-1.14,1.6-2.14,2.4-1.44l1.05-.2c1.87,1.45,3.76,2.8,5.67,4.03.43.46.75,1.1.96,1.92,3.18,1.75,4.1-3.03,1.14-2.68-.32-.52-.86-.91-1.62-1.16-1.35-.3-1.28-2.43,0-2.88-1.53-.73-.92-1.55.48-.96.27-1.68,1.61-.79,1.92.48.72.57,1.7.96,2.39-.7.29-1.39.77-1.96,1.45-1.7,1.4-.95,3.66,1.96,2.88,3.36Z"/>
  <path class="cls-1" d="M44.57,2.54c-.18,1.02.15,1.64.64,2.48,2.04,3.5,6.87,13.95,6.56,17.9-.22,2.79-1.83.02-2.18-1.19-.63-2.21.23-3.96-2.62-5.29l-1.24-1.04c-.92-3.84-2.67-7.11-5.26-9.81l-.22-1.61-1.02.15c-.59-1.4-.96-1.1-1.11.91,1.43,1.02,4.9,4.96,3.02,6.43-1.1.86-6.8-3.49-6.17-5.09l-5.65-2.05-.11-1.3c1.78-.84,5.57-2.64,7.42-2.9,3.84-.53,5.04.67,7.94,2.42Z"/>
  <path class="cls-1" d="M34.97,6.38c-.36,1-1.49,1.38-3.38,1.15,1.31.35,4.96,2.2,5.4,3.38.82,2.22-.02,2.56-2.02,1.7-.09.21-.19.4-.34.55-.34.33-7.7-1.4-8.92-1.7-.13-.03-.24-.15-.34-.29-1.5.73-4.11,1.01-4.8-.96,2.13-3.29,5.19-5.57,8.64-7.19,1.57,1.59,4.48,1.03,5.76,3.36Z"/>
  <path class="cls-6" d="M17.21,14.52c-.69,3.37,1.15,5.8,3.32,2.14l1-.23c.91-.5,3.65,2.01,3.36,3.36-.03,1.32-.51,1.96-1.44,1.92.12.91.21,1.99-.96,1.92-1.45-.72-2.38-1.06-4.27-1.11-3.05-2.01-4.52-2.81-5.84,1.1-.55.36-1.02.05-1.41-.95-.13-1.22.69-2.63.52-3.51-.06-.31-1.39-.73-1.96-1.76-.07-1.79,1.41-2.54,4.46-2.25,1.49-1.51,2.56-1.72,3.22-.62Z"/>
  <path class="cls-2" d="M59.45,35.61c1.41,1.59,1.65,4.35.91,6.32-.15.41-1.26,1.13-1.68,1.55-.77.77.08,1.36-2.49,2.06-5.87,1.6-7.91-1.54-9.7-6.57-.47-1.17,0-1.3.96-.48l.98.37c.97,5.54,10.84,2.74,9.85-3.16l1.17-.09Z"/>
  <path class="cls-2" d="M56.09,32.74c.22.05,3.19,2.69,3.36,2.88-.89,1.04-1.06,4.64-1.58,5.16-.21.21-3.75,1.9-4.05,1.93-.39.04-5.32-1.12-5.55-1.28-.86-.59-.74-2.01-.82-2.93-.99-.1-.95-.59,0-.96-1.08-1.71.45-2.95,1.92-1.92.83.3,1.19,1.15,1.08,2.55.02,5.04,8.81-1.1,4.84-2.79-1.59-.22-2.61-.78-3.04-1.67-.73-.62-.57-.94.48-.96.36-.11,2.9-.1,3.36,0Z"/>
  <path class="cls-10" d="M22.49,23.63c.88.28.88.66,0,.96-1.36-.51-2.91-.63-4.32-.96l-.35.56c-4.83-1.27-4.58-.38-1.27,2.94l.18,1.29c-.05.3.04.65,0,.96-1.98-.88-5.54-4.65-5.76-6.71,1.48,1.02.66.12,1.1-.56,1.07-1.65,1.15-2.65,3.38-2.12,1.71.4,2.25,1.39,3.06,1.62,1.86.53,3.06-.75,3.98,2.02Z"/>
  <path class="cls-6" d="M17.21,10.69c.62.63,1.1,1.27,1.44,1.92,1.67-.69,3.88,1.89,4.32,3.41l1.92.9c1.2-.29,1.29.04.48.96.97-.12,1.66.36,2.07,1.45,1.34.33,1.77.97,1.29,1.9-.16,1.18-.63,1.5-1.44.48-.1,1.3-.52,1.21-.96,0-.98-.54-1.46-1.18-1.44-1.92-.74-.61-1.92-1.44-2.44-2.16-.68-.93.81-.83-.92-1.2-1.12,1.67-1.68.68-1.92-.96-.77-.27-1.57-.59-2.4-.96-1.44.25-2.46.56-3.84.96-.25.21,1.75,1.31.23,1.91-1.25.49-.01-1.98-2.4-1.96-1.03,0-1.06,1.39-1.67,1.96-1.85-3.38,3.61-1.87,4.7-2.5,1.93-1.11-.33-5.29,1.31-5.64.95-.2,1.42,1.32,1.67,1.44Z"/>
  <path class="cls-6" d="M20.57,10.21c1.37.2,2.97.72,4.8.96.42.14.41.3,0,.48-.36.57-.76.99-1.44,1.44.84.33.92,1.05.24,2.16l.72,1.2c.4.16.4.32,0,.48-2.48.11-4.19-3.03-6.24-4.31-1.29-.55-1.39-1.49,0-1.92.35-.04.76-.65,1.92-.48Z"/>
  <path class="cls-7" d="M45.53,32.26c.18.91.2,1.76.07,2.54,2.01.69,2.63,1.6,1.85,2.73-.03.3-.03.66,0,.96-.31.1-.68.43-.96.48-.15.03-.32-.01-.48,0-1.17-.3-2.29-.78-3.36-1.44-.95-1.62-1.83-2.72-1.44-4.8.44-.08,1.08.11,1.44,0,.89.71,1.05.71.48,0,.79-.24,1.51-1.5,2.4-.48Z"/>
  <path class="cls-1" d="M46.01,38.97c-1.61.12-2.49.41-3.36-.96-.07-.11.07-.36,0-.48l1.92-1.44c-.21,1.44.29,2.15,1.44,2.88Z"/>
  <path class="cls-6" d="M18.65,10.69v1.92c-.57-.36-3.82-.51-1.44-1.92.16.07,1.13.03,1.44,0Z"/>
  <path class="cls-3" d="M25.85,26.03c.24.08,3.45,2.45,4.08,2.89s.92,1.22,1.2,1.43c-.48,1.52-1.24,2.89-1.92,4.31-1.07,1.75-3.28.75-3.6-1.04-1.96.22-4.36-.41-3.6-2.8.3-.99.61-4.34,1.92-4.79,0-1.37,1.62-1.23,1.92,0Z"/>
  <path class="cls-3" d="M18.17,23.63c-.79,1.37-1.19,3.27-1.44,4.79-1.82-1.23-3.45-3.02-3.84-5.27,2.36-1.29,3.6.08,5.28.47Z"/>
  <path class="cls-10" d="M22.01,30.82c-.65,2.82,3.49,1.46,4.26,1.98.59.4-.17,2.71,2.94,1.86-.33.69-.56,1.24-.96,1.92-2.32-.86-5.13-2.05-6.72-3.83.17-.82.25-1.13.48-1.92Z"/>
  <path class="cls-8" d="M28.73,21.23c1.31.13,1.25.58,0,.96,1.5.35.98,2.43-.48,2.4-.95.36-1.93.43-2.4,1.44-.17-.06-1.74-.06-1.92,0,.13-.83-.79-1.19-1.44-1.44.04-.31-.06-.67,0-.96.16-.76.69-1.32.96-1.92,1.08-.31,1.24.01.48.96.89.1,1.71.81,2.4,1.44l.96-2.4c.45-.14.57-.39,1.44-.48Z"/>
  <path class="cls-3" d="M35.45,34.65c1.35-.72,3.46,3.08,3.36,3.58-.21,1.08-4.14,1.13-3.84-.71.16-.73.41-2.16.48-2.88Z"/>
  <path class="cls-1" d="M40.25,3.98c3.45,3.71,5.66,7.65,6.72,12.46.5,2.27.95,4.44,1.44,6.71l-.61.24c.37,1.48.1,2.36-.83,2.64-.92,1.68-3.26-.81-2.4-1.92-1.13-1.4-1.24-1.88-2.88-3.36-.62.57-1.1.33-1.45-.7-1.74-.15-2.37-.71-1.91-1.7-1.29.65-1.91-.16-1.44-1.44-.24-2.59,1.84-1.38,3.36-.48l.86-.55c5.46,4.37.32-6.9-.89-8.83-2.53-1.58-3.29-4.78.03-3.08Z"/>
  <path class="cls-12" d="M49.37,27.46c2.47.45,2.1,1.86,2.42,3.6.16.85-.65,1.95.94,1.68-.1.03-.31.75-.48.96-.29.89-.72.9-.96,0-1.05-.29-1.37-1.09-.96-2.4-.11-.27-.37-1.09-.48-1.44-.24-.8-.29-1.6-.48-2.4Z"/>
  <path class="cls-6" d="M28.73,22.19c1.6-.8,6.63-.39,6.72,1.44.05,1.24.09,1.55,0,2.88,1.24.79.68,1.67-.48,1.92-1.29,1.04-6.61-3.26-6.72-3.83-.02-.12.51-1.5.48-2.4Z"/>
  <path class="cls-6" d="M44.57,24.11c.58.71,1.53,1.9,2.4,1.92-.07.69.17,1.92,0,2.4.34,1.12-.3,1.92-1.92,2.4-.9-.18-1.84-.46-2.45-1.19s.04-.91.05-1.21c1.42-1.51,1.42-1.67,0-.48-1.13.05-1.75.32-1.43-1.19.34-1.62,1.95-2.15,3.35-2.65Z"/>
  <path class="cls-15" d="M51.29,33.7c.36.98-.28,1.62-1.92,1.92-.9.79-1.78.52-1.92,1.92-.37-1.51-2.75-1.8-2.87-1.93-.47-.5.97-2.57.95-3.34.79.91.05,1.9.96,1.91-.68-3.02,3.74.1,3.84-2.87.24.56,1.32,1.23.96,2.4Z"/>
  <path class="cls-8" d="M41.69,20.75c-1.5,1.67-.63,4.13-3.54,3.37-.57-.15-.22-.89-.3-.98-.07-.24.85-1.25,1.02-1.03.27.37-.52,1.23-1.02,1.03-.36-.38-1.37-.44-1.92-.48-1.14.22-1.34-.16-.48-.96-1.1-1.39,1.53-3.22,2.88-3.36,1.06.79,2.16,1.32,3.36,2.4Z"/>
  <path class="cls-8" d="M35.45,26.51c3.19-1.53,2.05.44,2.49.87.4.4,2-.72,1.34,2.23-.49,2.15-1.91,2.12-3.34.74q1.22-1.17,0,0c-.7-.67-1.1-.52-.96-1.92.03-.3.41-.94.48-1.92Z"/>
  <path class="cls-10" d="M30.17,21.23c.14-.92.52-.87.96,0,.73-1.34,3.77-.9,4.32.48.07.29.49.77.48.96,0,.05-.52,0-.48.96-1.04-1.16-2.3-.33-3.05-.46-.38-.07-.25-.88-.54-.89-.8-.04-2.06.47-3.14-.08,0-.29.07-.79,0-.96.72-1.2.73-1.2,1.44,0Z"/>
  <path class="cls-6" d="M46.97,28.42c-.4,1.68,1.63.51,2.88,1.44-.63,2.6-1.3.85-2.83.69-.82-.08-.86.49-1.97.27.08-.72,1.87-2.25,1.92-2.4Z"/>
  <path class="cls-5" d="M42.65,27.94c1.2-4.83,3.87.47,0,.48,0-.16-.03-.35,0-.48Z"/>
  <path class="cls-13" d="M43.13,32.74c1.7-.61.96,2.39.24,2.39-.6,0-.9-1.77-.72-2.39.15-.04.33.04.48,0Z"/>
  <path class="cls-1" d="M40.25,3.98l-1.92.71c.84,1.26,3.49,2.92,4.05,4.1.19.39,2.22,7.02,2.22,7.4.05,2.94-3.01,1.29-4.36.24l-1.22-.59c-1.55-.06-4.25-1.62-4.06-3.24,3.86.05-.81-2.87-1.65-3.4-1.19-.74-2.79-.23-3.15-2.59l4.8-.24,5.76,4.79c-.22-1.1-.26-2.86-.74-3.81s-3.78-2.42-2.41-4.35c1.48-2.09,2.48.77,2.67.97Z"/>
  <path class="cls-1" d="M34.97,12.61c.9.4,4.34,3.11,5.28,3.83-1.37-.54-2.26-.61-3.36.48l-1.31.29c-3.34-2.02-6.86-4.02-10.21-5.56v-.48c2.07.27,7.98.7,9.6,1.44Z"/>
  <path class="cls-6" d="M17.21,14.52c.61-.1.81-.58,1.79-.16s.51,1,.61,1.12c-.02.22-.07.42-.17.58-1.21,1.77-1.35.44.17-.58.21.25.46.76.57.83.06.04.9.03,1.35.12.03,1.62-3.16,3.79-4.27,2.82-.19-.17-1.74-4.54-.05-4.74Z"/>
  <path class="cls-8" d="M24.89,19.8c.69.57,1.89.1,1.44,1.92.59.7.32.95-.48.48-.51.6-1.19.61-1.92.48-.03-.18-.51-.59-.48-.96.52-1.15.27-2.24,1.44-1.92Z"/>
  <path class="cls-9" d="M52.25,33.7c2.14.08,6.51,1.25,4.83,4.09-.11.18-2.84,2.87-3.02,2.98-.44.25-3.27.26-3.65.04-.73-.44-1.3-4.17-1.04-5.19.06-.05-.16-.67.08-.87.1-.08,1.74-1.03,1.84-1.05.24-.06.67-.01.96,0Z"/>
  <path class="cls-6" d="M25.37,11.65c3.99.61,8.18,3.06,11.52,5.27.61.4.98,1.09,1.44,1.44-.02,1.34-2.21,1.89-2.88,3.36-1.48.08-2.84-.4-4.32-.48-.18-1.47-.5-1.47-.96,0-.47,0-.97-.05-1.44,0-.29-.7-1.43-.74-1.93-1.21-.1-.09-1.36-2.03-1.43-2.14l.15-.66c3.11-.88,2.9-4.75-.73-3.47l-.86-.66c.28-1.12-.68-1.76,1.44-1.44Z"/>
  <path class="cls-5" d="M23.93,13.09c5.17-2.6,6.77,4.23,1.44,4.79-.14-.25-.46-.69-.48-.96,0-.15-.02-.33,0-.48q1.08-1.13,0,0c-2.94-.18-1.5-1.15-.96-3.36Z"/>
  <path class="cls-14" d="M25.85,22.19c1.29-.41,1.74,1.39.48,1.92-2.72.43-2.11.11-2.4-1.44.52-1.06.94-1.36,1.92-.48Z"/>
  <path class="cls-7" d="M27.29,21.71c1.12,1.2.54,2.16-.96,2.4.24-.62-.49-1.64-.48-1.92,0-.03.44-.46.48-.48.21-.09.69.08.96,0Z"/>
  <path class="cls-2" d="M31.62,25.55c-1.01-1.01,1.59-2.64,1.92-1.19.23,1.01-1.57,1.54-1.92,1.19Z"/>
  <path class="cls-1" d="M37.85,23.15c.99-.93-1.83-1.55.49-2.63,3.78-1.76,1.09,3.82-.49,2.63Z"/>
  <path class="cls-11" d="M35.93,30.34c0-.68-.19-1.75.45-2.19,2.67-1.81,2.69,3.08-.45,2.19Z"/>
  <path class="cls-11" d="M31.13,21.23c-.32-.02-.64,0-.96,0-1.74-4.26,3.46-3.09.96,0Z"/>
  <path class="cls-13" d="M19.61,15.48c.12.12-.08,1.45,0,1.92h-2.4c-.39-1.12,1.9-2.44,2.4-1.92Z"/>
  <path class="cls-5" d="M24.89,16.44c.36-2.55,1.3-2.45,1.44,0-.47-.01-.96.03-1.44,0Z"/>
</svg>