
<svg width="184" height="113" viewBox="0 0 184 113" fill="none" xmlns="http://www.w3.org/2000/svg">
<path d="M7.81433 65.5318V75.0736C7.81433 77.0425 7.41135 78.523 6.60528 79.5133C5.79921 80.5044 4.55126 81 2.86164 81C2.50509 81 2.15637 80.9695 1.81529 80.9084C1.47431 80.8473 1.17202 80.755 0.908523 80.6328C0.644926 80.5107 0.427957 80.3518 0.257417 80.1561C0.0868778 79.9721 0.00165662 79.7584 0.00165662 79.5133C-0.0138199 79.2816 0.0791381 79.0608 0.28073 78.8533C0.466746 78.6451 0.761199 78.523 1.16428 78.4862C1.36578 78.4736 1.55953 78.4924 1.74555 78.541C1.94704 78.5903 2.11758 78.6576 2.25707 78.743C2.39665 78.8408 2.50509 78.9449 2.58267 79.0545C2.67563 79.1775 2.72216 79.2933 2.72216 79.4037C2.72216 79.5994 2.76868 79.7521 2.86164 79.8625C2.9547 79.9721 3.1562 80.0277 3.46622 80.0277C4.10175 80.0277 4.55126 79.7341 4.81486 79.1469C5.09384 78.5598 5.23333 77.5929 5.23333 76.2479V65.5318C5.23333 65.1529 5.21011 64.8593 5.16358 64.6511C5.11715 64.4311 5.01636 64.2659 4.86129 64.1555C4.72181 64.0459 4.50484 63.9786 4.21029 63.9536C3.91574 63.9175 3.52049 63.8987 3.02445 63.8987V63C3.36542 63.0243 3.85373 63.0423 4.48926 63.0548C5.12489 63.0548 5.79137 63.0548 6.48901 63.0548C7.18654 63.0548 7.85313 63.0548 8.48866 63.0548C9.12419 63.0423 9.62797 63.0305 10 63.018V63.8987C9.48848 63.8987 9.08549 63.9175 8.79094 63.9536C8.51187 63.9786 8.2949 64.0459 8.13984 64.1555C8.00035 64.2659 7.90739 64.4311 7.86086 64.6511C7.82981 64.8593 7.81433 65.1529 7.81433 65.5318Z" fill="white"/>
<path d="M64.2578 63.836L64.516 67.797H63.1797C62.961 66.344 62.4688 65.305 61.7032 64.68C60.9375 64.055 59.875 63.742 58.5157 63.742C57.5625 63.742 56.6719 63.93 55.8438 64.305C55.0313 64.664 54.3203 65.18 53.711 65.852C53.1016 66.508 52.625 67.312 52.2813 68.266C51.9375 69.203 51.7657 70.25 51.7657 71.406C51.7657 72.672 51.9532 73.812 52.3282 74.828C52.7032 75.844 53.211 76.711 53.8516 77.43C54.5078 78.148 55.2657 78.703 56.125 79.094C57 79.484 57.9219 79.68 58.8907 79.68C60.0938 79.68 61.0469 79.297 61.75 78.531C62.4532 77.766 62.9219 76.742 63.1563 75.461H64.586L63.9297 79.586C63.6485 79.773 63.2813 79.953 62.8282 80.125C62.3907 80.281 61.9219 80.414 61.4219 80.523C60.9219 80.648 60.4141 80.742 59.8985 80.805C59.3828 80.883 58.9141 80.922 58.4922 80.922C57.086 80.922 55.7969 80.695 54.625 80.242C53.4688 79.789 52.4688 79.148 51.625 78.32C50.7969 77.492 50.1485 76.5 49.6797 75.344C49.2266 74.172 49 72.883 49 71.477C49 70.18 49.2657 68.984 49.7969 67.891C50.3282 66.781 51.0313 65.828 51.9063 65.031C52.7813 64.234 53.7813 63.617 54.9063 63.18C56.0469 62.727 57.2188 62.5 58.4219 62.5C59.4532 62.5 60.461 62.633 61.4453 62.898C62.4453 63.164 63.3828 63.477 64.2578 63.836Z" fill="white"/>
<path d="M92.063 80.664C92.406 81.117 92.805 81.5 93.258 81.812C93.711 82.125 94.227 82.367 94.805 82.539C95.399 82.711 96.07 82.82 96.82 82.867C97.57 82.914 98.422 82.891 99.375 82.797V83.828C98.313 84.047 97.274 84.148 96.258 84.133C95.242 84.133 94.281 84.016 93.375 83.781C92.485 83.547 91.656 83.188 90.891 82.703C90.141 82.219 89.508 81.594 88.992 80.828C87.883 80.75 86.844 80.453 85.875 79.938C84.906 79.422 84.063 78.758 83.344 77.945C82.625 77.117 82.055 76.18 81.633 75.133C81.211 74.07 81 72.961 81 71.805C81 70.664 81.211 69.539 81.633 68.43C82.07 67.305 82.68 66.305 83.461 65.43C84.242 64.555 85.18 63.852 86.274 63.32C87.367 62.773 88.586 62.5 89.93 62.5C91.149 62.5 92.297 62.75 93.375 63.25C94.453 63.75 95.391 64.422 96.188 65.266C96.985 66.094 97.61 67.062 98.063 68.172C98.531 69.266 98.766 70.414 98.766 71.617C98.766 72.617 98.602 73.609 98.274 74.594C97.961 75.562 97.508 76.461 96.914 77.289C96.336 78.102 95.633 78.812 94.805 79.422C93.977 80.016 93.063 80.43 92.063 80.664ZM95.86 72.32C95.86 71.711 95.797 71.078 95.672 70.422C95.563 69.75 95.391 69.102 95.156 68.477C94.938 67.836 94.656 67.234 94.313 66.672C93.969 66.094 93.563 65.594 93.094 65.172C92.641 64.734 92.125 64.391 91.547 64.141C90.969 63.875 90.328 63.742 89.625 63.742C88.781 63.742 88.008 63.922 87.305 64.281C86.602 64.641 85.992 65.141 85.477 65.781C84.977 66.422 84.586 67.195 84.305 68.102C84.024 69.008 83.883 70.008 83.883 71.102C83.883 72.008 84.016 72.969 84.281 73.984C84.547 74.984 84.938 75.906 85.453 76.75C85.985 77.594 86.641 78.297 87.422 78.859C88.203 79.406 89.11 79.68 90.141 79.68C91.047 79.68 91.852 79.5 92.555 79.141C93.258 78.781 93.852 78.281 94.336 77.641C94.836 76.984 95.211 76.211 95.461 75.32C95.727 74.414 95.86 73.414 95.86 72.32Z" fill="white"/>
<path d="M130.274 62.781V63.953C129.821 63.953 129.461 63.969 129.196 64C128.946 64.031 128.758 64.117 128.633 64.258C128.508 64.383 128.43 64.578 128.399 64.844C128.383 65.109 128.375 65.484 128.375 65.969V74.828C128.375 75.703 128.235 76.516 127.954 77.266C127.672 78 127.258 78.641 126.711 79.188C126.165 79.719 125.485 80.141 124.672 80.453C123.86 80.766 122.922 80.922 121.86 80.922C120.844 80.922 119.93 80.789 119.118 80.523C118.305 80.273 117.61 79.883 117.032 79.352C116.469 78.82 116.032 78.156 115.719 77.359C115.407 76.547 115.243 75.602 115.227 74.523V66.062C115.227 65.594 115.204 65.219 115.157 64.938C115.11 64.656 115.008 64.445 114.852 64.305C114.711 64.164 114.493 64.07 114.196 64.023C113.899 63.977 113.5 63.953 113 63.953V62.805C113.344 62.836 113.836 62.859 114.477 62.875C115.118 62.891 115.79 62.898 116.493 62.898C117.196 62.898 117.868 62.891 118.508 62.875C119.165 62.859 119.68 62.836 120.055 62.805V63.953C119.555 63.953 119.157 63.977 118.86 64.023C118.563 64.07 118.336 64.164 118.18 64.305C118.024 64.445 117.922 64.656 117.875 64.938C117.829 65.219 117.805 65.594 117.805 66.062V73.891C117.805 75.859 118.18 77.281 118.93 78.156C119.68 79.016 120.868 79.445 122.493 79.445C123.086 79.445 123.633 79.336 124.133 79.117C124.633 78.898 125.063 78.594 125.422 78.203C125.782 77.797 126.063 77.305 126.266 76.727C126.469 76.148 126.571 75.5 126.571 74.781V66.062C126.571 65.578 126.555 65.203 126.524 64.938C126.508 64.656 126.43 64.453 126.29 64.328C126.165 64.188 125.961 64.102 125.68 64.07C125.415 64.023 125.032 63.992 124.532 63.977V62.805C124.86 62.836 125.29 62.859 125.821 62.875C126.352 62.875 126.899 62.875 127.461 62.875C128.04 62.875 128.579 62.867 129.079 62.852C129.594 62.836 129.993 62.812 130.274 62.781Z" fill="white"/>
<path d="M145.25 77.219V66.0161C145.25 65.5311 145.226 65.1561 145.179 64.8911C145.148 64.6091 145.054 64.4061 144.898 64.2811C144.742 64.1411 144.515 64.0551 144.218 64.0231C143.922 63.9771 143.515 63.9531 143 63.9531V62.8051C143.234 62.8201 143.531 62.8361 143.89 62.8521C144.265 62.8521 144.672 62.8591 145.109 62.8751C145.562 62.8751 146.023 62.8751 146.492 62.8751C146.976 62.8751 147.437 62.8751 147.875 62.8751C148.312 62.8591 148.718 62.8521 149.093 62.8521C149.484 62.8521 149.797 62.8441 150.031 62.8281V63.9531C149.515 63.9531 149.109 63.9771 148.812 64.0231C148.531 64.0551 148.312 64.1411 148.156 64.2811C148.015 64.4061 147.922 64.6091 147.875 64.8911C147.843 65.1561 147.828 65.5311 147.828 66.0161V77.219C147.828 77.703 147.851 78.0941 147.898 78.3911C147.945 78.6721 148.047 78.8911 148.203 79.0471C148.359 79.2031 148.578 79.3121 148.859 79.3751C149.156 79.4221 149.547 79.4451 150.031 79.4451V80.5701C149.672 80.5551 149.172 80.539 148.531 80.523C147.89 80.523 147.218 80.523 146.515 80.523C145.828 80.523 145.164 80.531 144.523 80.5471C143.883 80.562 143.375 80.578 143 80.594V79.4451C143.484 79.4451 143.875 79.4221 144.172 79.3751C144.468 79.3121 144.695 79.2031 144.851 79.0471C145.023 78.8911 145.133 78.6721 145.179 78.3911C145.226 78.0941 145.25 77.703 145.25 77.219Z" fill="white"/>
<path d="M180.579 66.109V80.781H179.102L167.829 66.836V77.312C167.829 77.812 167.852 78.211 167.899 78.508C167.946 78.789 168.047 79 168.204 79.141C168.36 79.281 168.586 79.367 168.883 79.398C169.18 79.43 169.579 79.445 170.079 79.445V80.547C169.641 80.531 169.125 80.523 168.532 80.523C167.954 80.523 167.36 80.523 166.75 80.523C166.141 80.523 165.54 80.523 164.946 80.523C164.368 80.539 163.86 80.555 163.422 80.57V79.445C163.969 79.445 164.407 79.43 164.735 79.398C165.079 79.352 165.344 79.258 165.532 79.117C165.719 78.961 165.844 78.734 165.907 78.438C165.969 78.141 166 77.734 166 77.219V66.109C166 65.672 165.954 65.32 165.86 65.055C165.766 64.773 165.602 64.555 165.368 64.398C165.133 64.227 164.821 64.109 164.43 64.047C164.055 63.984 163.579 63.953 163 63.953V62.828C163.25 62.859 163.579 62.883 163.985 62.898C164.407 62.898 164.829 62.898 165.25 62.898C165.672 62.898 166.071 62.891 166.446 62.875C166.821 62.859 167.11 62.844 167.313 62.828L178.704 76.633V65.969C178.704 65.531 178.68 65.18 178.633 64.914C178.586 64.648 178.485 64.445 178.329 64.305C178.172 64.164 177.938 64.07 177.625 64.023C177.329 63.977 176.922 63.953 176.407 63.953V62.828C176.766 62.844 177.235 62.859 177.813 62.875C178.407 62.875 179.016 62.875 179.641 62.875C180.282 62.875 180.891 62.875 181.469 62.875C182.047 62.859 182.508 62.844 182.852 62.828V63.953C182.305 63.953 181.883 63.977 181.586 64.023C181.29 64.055 181.063 64.141 180.907 64.281C180.75 64.422 180.657 64.641 180.625 64.938C180.594 65.219 180.579 65.609 180.579 66.109Z" fill="white"/>
<path d="M61 3.72162C61 -0.503782 67.662 -0.119983 70.041 0.151817C70.525 0.207117 70.873 0.621018 70.873 1.10832V26.2571C70.873 26.8094 71.321 27.2571 71.873 27.2571H73C73.552 27.2571 74 27.7048 74 28.2571V51C74 51.5523 73.552 52 73 52H62C61.448 52 61 51.5636 61 51.0113C61 44.5448 61 8.40262 61 3.72162Z" fill="#FFFEFF"/>
<path d="M79.25 1.0143C79.25 0.426154 79.697 -0.0461327 80.248 0.00359847C82.07 0.168446 85.75 0.83444 85.75 3.52439C85.75 6.60762 85.75 22.0992 85.75 26.3038C85.75 26.892 86.198 27.3581 86.75 27.3581H88C88.552 27.3581 89 27.8348 89 28.423V48.9351C89 49.5232 88.552 50 88 50H77C76.448 50 76 49.5232 76 48.9351V28.423C76 27.8348 76.448 27.3581 77 27.3581H78.25C78.802 27.3581 79.25 26.8813 79.25 26.2932V1.0143Z" fill="#FFFEFF"/>
<path d="M95.038 2.08365C95.038 1.51002 95.431 1.03383 95.948 1.01454C97.746 0.947572 101.657 1.03538 102.538 2.9807C103.521 5.14997 103.248 19.2957 103.146 23.4383C103.13 24.0651 103.584 24.5765 104.15 24.5765H105C105.552 24.5765 106 25.0729 106 25.6852V50.8913C106 51.5036 105.552 52 105 52H92C91.448 52 91 51.5036 91 50.8913V25.5353C91 24.9848 91.364 24.5177 91.856 24.4382L94.183 24.062C94.674 23.9825 95.038 23.5154 95.038 22.9648V2.08365Z" fill="#FFFEFF"/>
<path d="M112.038 4.80656C112.038 1.19831 119.394 0.968032 122.054 1.00285C122.586 1.00972 123 1.49377 123 2.08382V50.8913C123 51.5036 122.552 52 122 52H109C108.448 52 108 51.5036 108 50.8913V26.6804C108 26.068 108.448 25.5717 109 25.5717H111.038C111.591 25.5717 112.038 25.0766 112.038 24.4643C112.038 20.7137 112.038 8.51737 112.038 4.80656Z" fill="#FFFEFF"/>
<path d="M78.3114 1.65807C78.3207 1.38019 78.6384 1.22726 78.8614 1.39337C78.9486 1.45837 79 1.56077 79 1.66956V25.9913C79 26.547 78.547 26.9961 77.9914 26.9913L76.4959 26.9784C76.2214 26.976 76 26.7528 76 26.4782C76 26.203 76.2222 25.9795 76.4974 25.9779L76.7625 25.9764C77.1744 25.974 77.5109 25.6467 77.5246 25.2351L78.3114 1.65807Z" fill="url(#paint0_radial_429_147)"/>
<path d="M93.469 2.48299C93.4864 2.21138 93.7118 2 93.984 2C94.269 2 94.5 2.23103 94.5 2.51602V22.6327C94.5 23.1304 94.1341 23.5523 93.6414 23.6227L91.6654 23.9049C91.3142 23.9551 91 23.6826 91 23.3278C91 23.1243 91.1062 22.9354 91.2801 22.8297L91.755 22.5409C92.0339 22.3713 92.2124 22.0762 92.2333 21.7505L93.469 2.48299Z" fill="url(#paint1_radial_429_147)"/>
<path d="M110.993 5.49719C110.997 5.34149 111.099 5.20525 111.247 5.15701C111.485 5.07954 111.729 5.25683 111.729 5.507L111.729 24.3711C111.729 24.9234 111.281 25.3711 110.729 25.3711H108.989C108.719 25.3711 108.5 25.1521 108.5 24.8819C108.5 24.6575 108.653 24.4618 108.871 24.4074L109.763 24.1842C110.199 24.0753 110.508 23.6895 110.52 23.2407L110.993 5.49719Z" fill="url(#paint2_radial_429_147)"/>
<path d="M30.5811 62C30.6021 62.0603 35.2499 75.3572 36.9229 79.2109C37.2873 80.0505 38.3809 81 38.3809 81H33.8574C33.8781 80.9949 35.0794 80.6961 35.2139 80.0947C35.3149 79.6425 35.2139 79.1905 34.7617 78.7383C34.3093 78.2859 33.4048 77.8332 32.5 77.3809C31.5953 76.9285 32.433 77.3544 30.2383 76.4766C29.5858 76.2156 28.4282 75.5711 27.5234 76.0234C27.1842 76.1931 27.0713 76.4766 27.0713 76.4766C27.0595 76.5137 26.329 78.8149 26.167 79.1904C26.0037 79.5687 25.7144 80.0955 26.6191 80.5479L27.5234 81H23C23 81 23.4373 80.5546 23.8018 80.2188C24.1661 79.8829 24.3574 79.1904 24.3574 79.1904L30.5811 62ZM27.5234 74.9297C27.5234 74.9297 27.8455 74.7618 28.4287 74.9297C29.9943 75.3805 33.8574 76.9287 33.8574 76.9287L30.2383 67.4287L27.5234 74.9297Z" fill="#D9D9D9"/>
<path d="M2.82955 107H0.613636L7.02273 89.5455H9.20455L15.6136 107H13.3977L8.18182 92.3068H8.04545L2.82955 107ZM3.64773 100.182H12.5795V102.057H3.64773V100.182ZM21.9378 107.273C20.7106 107.273 19.6537 106.983 18.7674 106.403C17.881 105.824 17.1992 105.026 16.7219 104.009C16.2447 102.991 16.006 101.83 16.006 100.523C16.006 99.1932 16.2503 98.0199 16.739 97.0028C17.2333 95.9801 17.9208 95.1818 18.8015 94.608C19.6878 94.0284 20.7219 93.7386 21.9037 93.7386C22.8242 93.7386 23.6537 93.9091 24.3924 94.25C25.131 94.5909 25.7361 95.0682 26.2077 95.6818C26.6793 96.2955 26.9719 97.0114 27.0856 97.8295H25.0742C24.9208 97.233 24.5799 96.7045 24.0515 96.2443C23.5287 95.7784 22.8242 95.5455 21.9378 95.5455C21.1537 95.5455 20.4662 95.75 19.8753 96.1591C19.2901 96.5625 18.8327 97.1335 18.5032 97.8722C18.1793 98.6051 18.0174 99.4659 18.0174 100.455C18.0174 101.466 18.1765 102.347 18.4947 103.097C18.8185 103.847 19.2731 104.429 19.8583 104.844C20.4492 105.259 21.1424 105.466 21.9378 105.466C22.4606 105.466 22.935 105.375 23.3611 105.193C23.7873 105.011 24.1481 104.75 24.4435 104.409C24.739 104.068 24.9492 103.659 25.0742 103.182H27.0856C26.9719 103.955 26.6907 104.651 26.2418 105.27C25.7986 105.884 25.2106 106.372 24.4776 106.736C23.7503 107.094 22.9037 107.273 21.9378 107.273ZM32.4382 107.307C31.6086 107.307 30.8558 107.151 30.1797 106.838C29.5035 106.52 28.9666 106.062 28.5689 105.466C28.1711 104.864 27.9723 104.136 27.9723 103.284C27.9723 102.534 28.12 101.926 28.4155 101.46C28.7109 100.989 29.1058 100.619 29.6001 100.352C30.0944 100.085 30.6399 99.8864 31.2365 99.7557C31.8387 99.6193 32.4439 99.5114 33.0518 99.4318C33.8473 99.3295 34.4922 99.2528 34.9865 99.2017C35.4865 99.1449 35.8501 99.0511 36.0774 98.9205C36.3103 98.7898 36.4268 98.5625 36.4268 98.2386V98.1705C36.4268 97.3295 36.1967 96.6761 35.7365 96.2102C35.2819 95.7443 34.5916 95.5114 33.6655 95.5114C32.7052 95.5114 31.9524 95.7216 31.4069 96.142C30.8615 96.5625 30.478 97.0114 30.2564 97.4886L28.3473 96.8068C28.6882 96.0114 29.1427 95.392 29.7109 94.9489C30.2848 94.5 30.9098 94.1875 31.5859 94.0114C32.2677 93.8295 32.9382 93.7386 33.5973 93.7386C34.0177 93.7386 34.5007 93.7898 35.0461 93.892C35.5973 93.9886 36.1285 94.1903 36.6399 94.4972C37.1569 94.804 37.5859 95.267 37.9268 95.8864C38.2677 96.5057 38.4382 97.3352 38.4382 98.375V107H36.4268V105.227H36.3245C36.1882 105.511 35.9609 105.815 35.6427 106.139C35.3245 106.463 34.9012 106.739 34.3728 106.966C33.8444 107.193 33.1995 107.307 32.4382 107.307ZM32.745 105.5C33.5405 105.5 34.2109 105.344 34.7564 105.031C35.3075 104.719 35.7223 104.315 36.0007 103.821C36.2848 103.327 36.4268 102.807 36.4268 102.261V100.42C36.3416 100.523 36.1541 100.616 35.8643 100.702C35.5802 100.781 35.2507 100.852 34.8757 100.915C34.5064 100.972 34.1456 101.023 33.7933 101.068C33.4467 101.108 33.1655 101.142 32.9495 101.17C32.4268 101.239 31.9382 101.349 31.4836 101.503C31.0348 101.651 30.6711 101.875 30.3927 102.176C30.12 102.472 29.9836 102.875 29.9836 103.386C29.9836 104.085 30.2422 104.614 30.7592 104.972C31.2819 105.324 31.9439 105.5 32.745 105.5ZM45.6125 107.273C44.5216 107.273 43.5586 106.997 42.7233 106.446C41.8881 105.889 41.2347 105.105 40.7631 104.094C40.2915 103.077 40.0557 101.875 40.0557 100.489C40.0557 99.1136 40.2915 97.9205 40.7631 96.9091C41.2347 95.8977 41.8909 95.1165 42.7318 94.5653C43.5728 94.0142 44.5443 93.7386 45.6466 93.7386C46.4989 93.7386 47.1722 93.8807 47.6665 94.1648C48.1665 94.4432 48.5472 94.7614 48.8086 95.1193C49.0756 95.4716 49.283 95.7614 49.4307 95.9886H49.6012V89.5455H51.6125V107H49.6693V104.989H49.4307C49.283 105.227 49.0728 105.528 48.8 105.892C48.5273 106.25 48.1381 106.571 47.6324 106.855C47.1267 107.134 46.4534 107.273 45.6125 107.273ZM45.8853 105.466C46.6921 105.466 47.3739 105.256 47.9307 104.835C48.4875 104.409 48.9108 103.821 49.2006 103.071C49.4904 102.315 49.6353 101.443 49.6353 100.455C49.6353 99.4773 49.4932 98.6222 49.2091 97.8892C48.925 97.1506 48.5046 96.5767 47.9478 96.1676C47.3909 95.7528 46.7034 95.5455 45.8853 95.5455C45.033 95.5455 44.3228 95.7642 43.7546 96.2017C43.1921 96.6335 42.7688 97.2216 42.4847 97.9659C42.2063 98.7045 42.0671 99.5341 42.0671 100.455C42.0671 101.386 42.2091 102.233 42.4932 102.994C42.783 103.75 43.2091 104.352 43.7716 104.801C44.3398 105.244 45.0443 105.466 45.8853 105.466ZM59.6242 107.273C58.3629 107.273 57.2748 106.994 56.36 106.438C55.4509 105.875 54.7492 105.091 54.2549 104.085C53.7663 103.074 53.522 101.898 53.522 100.557C53.522 99.2159 53.7663 98.0341 54.2549 97.0114C54.7492 95.983 55.4367 95.1818 56.3174 94.608C57.2038 94.0284 58.2379 93.7386 59.4197 93.7386C60.1015 93.7386 60.7748 93.8523 61.4396 94.0795C62.1043 94.3068 62.7095 94.6761 63.2549 95.1875C63.8004 95.6932 64.235 96.3636 64.5589 97.1989C64.8828 98.0341 65.0447 99.0625 65.0447 100.284V101.136H54.9538V99.3977H62.9992C62.9992 98.6591 62.8515 98 62.556 97.4205C62.2663 96.8409 61.8515 96.3835 61.3117 96.0483C60.7776 95.7131 60.147 95.5455 59.4197 95.5455C58.6185 95.5455 57.9254 95.7443 57.3401 96.142C56.7606 96.5341 56.3146 97.0455 56.0021 97.6761C55.6896 98.3068 55.5333 98.983 55.5333 99.7045V100.864C55.5333 101.852 55.7038 102.69 56.0447 103.378C56.3913 104.06 56.8714 104.58 57.485 104.938C58.0987 105.29 58.8117 105.466 59.6242 105.466C60.1526 105.466 60.6299 105.392 61.056 105.244C61.4879 105.091 61.86 104.864 62.1725 104.562C62.485 104.256 62.7265 103.875 62.897 103.42L64.8401 103.966C64.6356 104.625 64.2918 105.205 63.8089 105.705C63.3259 106.199 62.7293 106.585 62.0191 106.864C61.3089 107.136 60.5106 107.273 59.6242 107.273ZM66.6643 107V93.9091H68.6075V95.9545H68.778C69.0507 95.2557 69.4911 94.7131 70.099 94.3267C70.707 93.9347 71.4371 93.7386 72.2894 93.7386C73.153 93.7386 73.8717 93.9347 74.4456 94.3267C75.0251 94.7131 75.4769 95.2557 75.8007 95.9545H75.9371C76.2723 95.2784 76.7751 94.7415 77.4456 94.3438C78.1161 93.9403 78.92 93.7386 79.8575 93.7386C81.028 93.7386 81.9854 94.1051 82.7297 94.8381C83.474 95.5653 83.8462 96.6989 83.8462 98.2386V107H81.8348V98.2386C81.8348 97.2727 81.5706 96.5824 81.0422 96.1676C80.5138 95.7528 79.8916 95.5455 79.1757 95.5455C78.2553 95.5455 77.5422 95.8239 77.0365 96.3807C76.5308 96.9318 76.278 97.6307 76.278 98.4773V107H74.2325V98.0341C74.2325 97.2898 73.9911 96.6903 73.5081 96.2358C73.0251 95.7756 72.403 95.5455 71.6416 95.5455C71.1189 95.5455 70.6303 95.6847 70.1757 95.9631C69.7268 96.2415 69.3632 96.6278 69.0848 97.1222C68.8121 97.6108 68.6757 98.1761 68.6757 98.8182V107H66.6643ZM86.0837 107V93.9091H88.0951V107H86.0837ZM87.1064 91.7273C86.7144 91.7273 86.3763 91.5938 86.0922 91.3267C85.8138 91.0597 85.6746 90.7386 85.6746 90.3636C85.6746 89.9886 85.8138 89.6676 86.0922 89.4006C86.3763 89.1335 86.7144 89 87.1064 89C87.4985 89 87.8337 89.1335 88.1121 89.4006C88.3962 89.6676 88.5383 89.9886 88.5383 90.3636C88.5383 90.7386 88.3962 91.0597 88.1121 91.3267C87.8337 91.5938 87.4985 91.7273 87.1064 91.7273ZM94.1913 107.307C93.3618 107.307 92.6089 107.151 91.9328 106.838C91.2566 106.52 90.7197 106.062 90.322 105.466C89.9243 104.864 89.7254 104.136 89.7254 103.284C89.7254 102.534 89.8731 101.926 90.1686 101.46C90.464 100.989 90.8589 100.619 91.3532 100.352C91.8476 100.085 92.393 99.8864 92.9896 99.7557C93.5919 99.6193 94.197 99.5114 94.8049 99.4318C95.6004 99.3295 96.2453 99.2528 96.7396 99.2017C97.2396 99.1449 97.6032 99.0511 97.8305 98.9205C98.0635 98.7898 98.1799 98.5625 98.1799 98.2386V98.1705C98.1799 97.3295 97.9498 96.6761 97.4896 96.2102C97.0351 95.7443 96.3447 95.5114 95.4186 95.5114C94.4584 95.5114 93.7055 95.7216 93.1601 96.142C92.6146 96.5625 92.2311 97.0114 92.0095 97.4886L90.1004 96.8068C90.4413 96.0114 90.8959 95.392 91.464 94.9489C92.0379 94.5 92.6629 94.1875 93.339 94.0114C94.0209 93.8295 94.6913 93.7386 95.3504 93.7386C95.7709 93.7386 96.2538 93.7898 96.7993 93.892C97.3504 93.9886 97.8816 94.1903 98.393 94.4972C98.9101 94.804 99.339 95.267 99.6799 95.8864C100.021 96.5057 100.191 97.3352 100.191 98.375V107H98.1799V105.227H98.0777C97.9413 105.511 97.714 105.815 97.3959 106.139C97.0777 106.463 96.6544 106.739 96.126 106.966C95.5976 107.193 94.9527 107.307 94.1913 107.307ZM94.4981 105.5C95.2936 105.5 95.964 105.344 96.5095 105.031C97.0606 104.719 97.4754 104.315 97.7538 103.821C98.0379 103.327 98.1799 102.807 98.1799 102.261V100.42C98.0947 100.523 97.9072 100.616 97.6174 100.702C97.3334 100.781 97.0038 100.852 96.6288 100.915C96.2595 100.972 95.8987 101.023 95.5464 101.068C95.1998 101.108 94.9186 101.142 94.7027 101.17C94.1799 101.239 93.6913 101.349 93.2368 101.503C92.7879 101.651 92.4243 101.875 92.1459 102.176C91.8731 102.472 91.7368 102.875 91.7368 103.386C91.7368 104.085 91.9953 104.614 92.5123 104.972C93.0351 105.324 93.697 105.5 94.4981 105.5ZM108.005 89.5455H110.528L116.46 104.034H116.664L122.596 89.5455H125.119V107H123.142V93.7386H122.971L117.517 107H115.607L110.153 93.7386H109.982V107H108.005V89.5455ZM135.894 101.648V93.9091H137.905V107H135.894V104.784H135.758C135.451 105.449 134.974 106.014 134.326 106.48C133.678 106.94 132.86 107.17 131.871 107.17C131.053 107.17 130.326 106.991 129.689 106.634C129.053 106.27 128.553 105.724 128.189 104.997C127.826 104.264 127.644 103.341 127.644 102.227V93.9091H129.655V102.091C129.655 103.045 129.922 103.807 130.457 104.375C130.996 104.943 131.684 105.227 132.519 105.227C133.019 105.227 133.528 105.099 134.045 104.844C134.567 104.588 135.005 104.196 135.357 103.668C135.715 103.139 135.894 102.466 135.894 101.648ZM149.422 96.8409L147.615 97.3523C147.502 97.0511 147.334 96.7585 147.112 96.4744C146.897 96.1847 146.601 95.946 146.226 95.7585C145.851 95.571 145.371 95.4773 144.786 95.4773C143.985 95.4773 143.317 95.6619 142.783 96.0312C142.254 96.3949 141.99 96.858 141.99 97.4205C141.99 97.9205 142.172 98.3153 142.536 98.6051C142.899 98.8949 143.468 99.1364 144.24 99.3295L146.183 99.8068C147.354 100.091 148.226 100.526 148.8 101.111C149.374 101.69 149.661 102.437 149.661 103.352C149.661 104.102 149.445 104.773 149.013 105.364C148.587 105.955 147.99 106.42 147.223 106.761C146.456 107.102 145.564 107.273 144.547 107.273C143.212 107.273 142.107 106.983 141.232 106.403C140.357 105.824 139.803 104.977 139.57 103.864L141.479 103.386C141.661 104.091 142.004 104.619 142.51 104.972C143.022 105.324 143.689 105.5 144.513 105.5C145.45 105.5 146.195 105.301 146.746 104.903C147.303 104.5 147.581 104.017 147.581 103.455C147.581 103 147.422 102.619 147.104 102.312C146.786 102 146.297 101.767 145.638 101.614L143.456 101.102C142.257 100.818 141.377 100.378 140.814 99.7812C140.257 99.179 139.979 98.4261 139.979 97.5227C139.979 96.7841 140.186 96.1307 140.601 95.5625C141.022 94.9943 141.593 94.5483 142.314 94.2244C143.041 93.9006 143.865 93.7386 144.786 93.7386C146.081 93.7386 147.098 94.0227 147.837 94.5909C148.581 95.1591 149.11 95.9091 149.422 96.8409ZM151.248 107V93.9091H153.26V107H151.248ZM152.271 91.7273C151.879 91.7273 151.541 91.5938 151.257 91.3267C150.979 91.0597 150.839 90.7386 150.839 90.3636C150.839 89.9886 150.979 89.6676 151.257 89.4006C151.541 89.1335 151.879 89 152.271 89C152.663 89 152.998 89.1335 153.277 89.4006C153.561 89.6676 153.703 89.9886 153.703 90.3636C153.703 90.7386 153.561 91.0597 153.277 91.3267C152.998 91.5938 152.663 91.7273 152.271 91.7273ZM160.822 107.273C159.595 107.273 158.538 106.983 157.651 106.403C156.765 105.824 156.083 105.026 155.606 104.009C155.129 102.991 154.89 101.83 154.89 100.523C154.89 99.1932 155.134 98.0199 155.623 97.0028C156.117 95.9801 156.805 95.1818 157.686 94.608C158.572 94.0284 159.606 93.7386 160.788 93.7386C161.708 93.7386 162.538 93.9091 163.276 94.25C164.015 94.5909 164.62 95.0682 165.092 95.6818C165.563 96.2955 165.856 97.0114 165.97 97.8295H163.958C163.805 97.233 163.464 96.7045 162.936 96.2443C162.413 95.7784 161.708 95.5455 160.822 95.5455C160.038 95.5455 159.35 95.75 158.759 96.1591C158.174 96.5625 157.717 97.1335 157.387 97.8722C157.063 98.6051 156.901 99.4659 156.901 100.455C156.901 101.466 157.061 102.347 157.379 103.097C157.703 103.847 158.157 104.429 158.742 104.844C159.333 105.259 160.026 105.466 160.822 105.466C161.345 105.466 161.819 105.375 162.245 105.193C162.671 105.011 163.032 104.75 163.328 104.409C163.623 104.068 163.833 103.659 163.958 103.182H165.97C165.856 103.955 165.575 104.651 165.126 105.27C164.683 105.884 164.095 106.372 163.362 106.736C162.634 107.094 161.788 107.273 160.822 107.273ZM171.322 107.307C170.493 107.307 169.74 107.151 169.064 106.838C168.388 106.52 167.851 106.062 167.453 105.466C167.055 104.864 166.856 104.136 166.856 103.284C166.856 102.534 167.004 101.926 167.3 101.46C167.595 100.989 167.99 100.619 168.484 100.352C168.978 100.085 169.524 99.8864 170.121 99.7557C170.723 99.6193 171.328 99.5114 171.936 99.4318C172.731 99.3295 173.376 99.2528 173.871 99.2017C174.371 99.1449 174.734 99.0511 174.961 98.9205C175.194 98.7898 175.311 98.5625 175.311 98.2386V98.1705C175.311 97.3295 175.081 96.6761 174.621 96.2102C174.166 95.7443 173.476 95.5114 172.55 95.5114C171.589 95.5114 170.836 95.7216 170.291 96.142C169.746 96.5625 169.362 97.0114 169.14 97.4886L167.231 96.8068C167.572 96.0114 168.027 95.392 168.595 94.9489C169.169 94.5 169.794 94.1875 170.47 94.0114C171.152 93.8295 171.822 93.7386 172.481 93.7386C172.902 93.7386 173.385 93.7898 173.93 93.892C174.481 93.9886 175.013 94.1903 175.524 94.4972C176.041 94.804 176.47 95.267 176.811 95.8864C177.152 96.5057 177.322 97.3352 177.322 98.375V107H175.311V105.227H175.209C175.072 105.511 174.845 105.815 174.527 106.139C174.209 106.463 173.785 106.739 173.257 106.966C172.728 107.193 172.084 107.307 171.322 107.307ZM171.629 105.5C172.425 105.5 173.095 105.344 173.64 105.031C174.192 104.719 174.606 104.315 174.885 103.821C175.169 103.327 175.311 102.807 175.311 102.261V100.42C175.226 100.523 175.038 100.616 174.748 100.702C174.464 100.781 174.135 100.852 173.76 100.915C173.39 100.972 173.03 101.023 172.677 101.068C172.331 101.108 172.05 101.142 171.834 101.17C171.311 101.239 170.822 101.349 170.368 101.503C169.919 101.651 169.555 101.875 169.277 102.176C169.004 102.472 168.868 102.875 168.868 103.386C168.868 104.085 169.126 104.614 169.643 104.972C170.166 105.324 170.828 105.5 171.629 105.5ZM181.565 89.5455V107H179.553V89.5455H181.565Z" fill="white"/>
<defs>
<radialGradient id="paint0_radial_429_147" cx="0" cy="0" r="1" gradientUnits="userSpaceOnUse" gradientTransform="translate(78.6875 11.0709) rotate(90) scale(14.7532 3.4958)">
<stop stop-color="#D9D9D9"/>
<stop offset="0.810919" stop-color="#737373"/>
<stop offset="1" stop-color="#737373"/>
</radialGradient>
<radialGradient id="paint1_radial_429_147" cx="0" cy="0" r="1" gradientUnits="userSpaceOnUse" gradientTransform="translate(92.6111 11.8453) rotate(90) scale(11.8939 2.71895)">
<stop stop-color="#D9D9D9"/>
<stop offset="0.810919" stop-color="#737373"/>
<stop offset="1" stop-color="#737373"/>
</radialGradient>
<radialGradient id="paint2_radial_429_147" cx="0" cy="0" r="1" gradientUnits="userSpaceOnUse" gradientTransform="translate(109.611 12.649) rotate(90) scale(11.6964 2.71895)">
<stop stop-color="#D9D9D9"/>
<stop offset="0.810919" stop-color="#737373"/>
<stop offset="1" stop-color="#737373"/>
</radialGradient>
</defs>
</svg>
